<ttFont>
    <TTGlyph name=".notdef" xMin="81" yMin="0" xMax="566" yMax="700">
      <contour>
        <pt x="89" y="379" on="1"/>
        <pt x="89" y="456" on="0"/>
        <pt x="87" y="619" on="0"/>
        <pt x="84" y="700" on="1"/>
        <pt x="566" y="700" on="1"/>
        <pt x="565" y="652" on="0"/>
        <pt x="562" y="579" on="0"/>
        <pt x="560" y="500" on="0"/>
        <pt x="558" y="398" on="0"/>
        <pt x="558" y="321" on="1"/>
        <pt x="558" y="244" on="0"/>
        <pt x="560" y="81" on="0"/>
        <pt x="563" y="0" on="1"/>
        <pt x="81" y="0" on="1"/>
        <pt x="82" y="48" on="0"/>
        <pt x="85" y="121" on="0"/>
        <pt x="87" y="200" on="0"/>
        <pt x="89" y="302" on="0"/>
      </contour>
      <contour>
        <pt x="203" y="356" on="1"/>
        <pt x="203" y="274" on="0"/>
        <pt x="203" y="146" on="0"/>
        <pt x="204" y="92" on="1"/>
        <pt x="441" y="92" on="1"/>
        <pt x="443" y="140" on="0"/>
        <pt x="444" y="259" on="0"/>
        <pt x="444" y="344" on="1"/>
        <pt x="444" y="426" on="0"/>
        <pt x="444" y="554" on="0"/>
        <pt x="443" y="608" on="1"/>
        <pt x="205" y="608" on="1"/>
        <pt x="203" y="560" on="0"/>
        <pt x="203" y="441" on="0"/>
      </contour>
    </TTGlyph>
    <TTGlyph name="A" xMin="12" yMin="-12" xMax="639" yMax="712">
      <contour>
        <pt x="12" y="-12" on="1"/>
        <pt x="39" y="89" on="0"/>
        <pt x="94" y="274" on="0"/>
        <pt x="154" y="448" on="0"/>
        <pt x="223" y="616" on="0"/>
        <pt x="263" y="700" on="1"/>
        <pt x="388" y="712" on="1"/>
        <pt x="428" y="629" on="0"/>
        <pt x="496" y="463" on="0"/>
        <pt x="557" y="288" on="0"/>
        <pt x="612" y="102" on="0"/>
        <pt x="639" y="0" on="1"/>
        <pt x="503" y="-12" on="1"/>
        <pt x="489" y="41" on="0"/>
        <pt x="461" y="148" on="0"/>
        <pt x="447" y="202" on="1"/>
        <pt x="200" y="202" on="1"/>
        <pt x="186" y="153" on="0"/>
        <pt x="160" y="53" on="0"/>
        <pt x="149" y="0" on="1"/>
      </contour>
      <contour>
        <pt x="326" y="587" on="1"/>
        <pt x="268" y="445" on="0"/>
        <pt x="225" y="294" on="1"/>
        <pt x="422" y="294" on="1"/>
        <pt x="400" y="369" on="0"/>
        <pt x="353" y="517" on="0"/>
      </contour>
    </TTGlyph>
    <TTGlyph name="AE" xMin="15" yMin="-12" xMax="853" yMax="700">
      <contour>
        <pt x="853" y="0" on="1"/>
        <pt x="445" y="0" on="1"/>
        <pt x="446" y="30" on="0"/>
        <pt x="448" y="80" on="0"/>
        <pt x="449" y="126" on="0"/>
        <pt x="451" y="174" on="0"/>
        <pt x="451" y="202" on="1"/>
        <pt x="250" y="202" on="1"/>
        <pt x="227" y="151" on="0"/>
        <pt x="183" y="51" on="0"/>
        <pt x="162" y="0" on="1"/>
        <pt x="15" y="-12" on="1"/>
        <pt x="96" y="167" on="0"/>
        <pt x="270" y="521" on="0"/>
        <pt x="366" y="700" on="1"/>
        <pt x="834" y="700" on="1"/>
        <pt x="834" y="602" on="1"/>
        <pt x="585" y="602" on="1"/>
        <pt x="583" y="563" on="0"/>
        <pt x="583" y="464" on="0"/>
        <pt x="583" y="401" on="1"/>
        <pt x="803" y="401" on="1"/>
        <pt x="803" y="309" on="1"/>
        <pt x="583" y="309" on="1"/>
        <pt x="583" y="246" on="0"/>
        <pt x="583" y="143" on="0"/>
        <pt x="584" y="98" on="1"/>
        <pt x="853" y="98" on="1"/>
      </contour>
      <contour>
        <pt x="439" y="587" on="1"/>
        <pt x="401" y="513" on="0"/>
        <pt x="328" y="367" on="0"/>
        <pt x="293" y="294" on="1"/>
        <pt x="453" y="294" on="1"/>
        <pt x="453" y="351" on="0"/>
        <pt x="453" y="436" on="0"/>
        <pt x="453" y="505" on="0"/>
        <pt x="452" y="560" on="0"/>
        <pt x="451" y="587" on="1"/>
      </contour>
    </TTGlyph>
    <TTGlyph name="AEacute" xMin="15" yMin="-12" xMax="853" yMax="920">
      <contour>
        <pt x="853" y="0" on="1"/>
        <pt x="445" y="0" on="1"/>
        <pt x="446" y="30" on="0"/>
        <pt x="448" y="80" on="0"/>
        <pt x="449" y="126" on="0"/>
        <pt x="451" y="174" on="0"/>
        <pt x="451" y="202" on="1"/>
        <pt x="250" y="202" on="1"/>
        <pt x="227" y="151" on="0"/>
        <pt x="183" y="51" on="0"/>
        <pt x="162" y="0" on="1"/>
        <pt x="15" y="-12" on="1"/>
        <pt x="96" y="167" on="0"/>
        <pt x="270" y="521" on="0"/>
        <pt x="366" y="700" on="1"/>
        <pt x="834" y="700" on="1"/>
        <pt x="834" y="602" on="1"/>
        <pt x="585" y="602" on="1"/>
        <pt x="583" y="563" on="0"/>
        <pt x="583" y="464" on="0"/>
        <pt x="583" y="401" on="1"/>
        <pt x="803" y="401" on="1"/>
        <pt x="803" y="309" on="1"/>
        <pt x="583" y="309" on="1"/>
        <pt x="583" y="246" on="0"/>
        <pt x="583" y="143" on="0"/>
        <pt x="584" y="98" on="1"/>
        <pt x="853" y="98" on="1"/>
      </contour>
      <contour>
        <pt x="439" y="587" on="1"/>
        <pt x="401" y="513" on="0"/>
        <pt x="328" y="367" on="0"/>
        <pt x="293" y="294" on="1"/>
        <pt x="453" y="294" on="1"/>
        <pt x="453" y="351" on="0"/>
        <pt x="453" y="436" on="0"/>
        <pt x="453" y="505" on="0"/>
        <pt x="452" y="560" on="0"/>
        <pt x="451" y="587" on="1"/>
      </contour>
      <contour>
        <pt x="755" y="908" on="1"/>
        <pt x="583" y="781" on="1"/>
        <pt x="504" y="793" on="1"/>
        <pt x="623" y="920" on="1"/>
      </contour>
    </TTGlyph>
    <TTGlyph name="Aacute" xMin="12" yMin="-12" xMax="639" yMax="920">
      <contour>
        <pt x="12" y="-12" on="1"/>
        <pt x="39" y="89" on="0"/>
        <pt x="94" y="274" on="0"/>
        <pt x="154" y="448" on="0"/>
        <pt x="223" y="616" on="0"/>
        <pt x="263" y="700" on="1"/>
        <pt x="388" y="712" on="1"/>
        <pt x="428" y="629" on="0"/>
        <pt x="496" y="463" on="0"/>
        <pt x="557" y="288" on="0"/>
        <pt x="612" y="102" on="0"/>
        <pt x="639" y="0" on="1"/>
        <pt x="503" y="-12" on="1"/>
        <pt x="489" y="41" on="0"/>
        <pt x="461" y="148" on="0"/>
        <pt x="447" y="202" on="1"/>
        <pt x="200" y="202" on="1"/>
        <pt x="186" y="153" on="0"/>
        <pt x="160" y="53" on="0"/>
        <pt x="149" y="0" on="1"/>
      </contour>
      <contour>
        <pt x="326" y="587" on="1"/>
        <pt x="268" y="445" on="0"/>
        <pt x="225" y="294" on="1"/>
        <pt x="422" y="294" on="1"/>
        <pt x="400" y="369" on="0"/>
        <pt x="353" y="517" on="0"/>
      </contour>
      <contour>
        <pt x="545" y="908" on="1"/>
        <pt x="373" y="781" on="1"/>
        <pt x="294" y="793" on="1"/>
        <pt x="413" y="920" on="1"/>
      </contour>
    </TTGlyph>
    <TTGlyph name="Abreve" xMin="12" yMin="-12" xMax="639" yMax="928">
      <contour>
        <pt x="12" y="-12" on="1"/>
        <pt x="39" y="89" on="0"/>
        <pt x="94" y="274" on="0"/>
        <pt x="154" y="448" on="0"/>
        <pt x="223" y="616" on="0"/>
        <pt x="263" y="700" on="1"/>
        <pt x="388" y="712" on="1"/>
        <pt x="428" y="629" on="0"/>
        <pt x="496" y="463" on="0"/>
        <pt x="557" y="288" on="0"/>
        <pt x="612" y="102" on="0"/>
        <pt x="639" y="0" on="1"/>
        <pt x="503" y="-12" on="1"/>
        <pt x="489" y="41" on="0"/>
        <pt x="461" y="148" on="0"/>
        <pt x="447" y="202" on="1"/>
        <pt x="200" y="202" on="1"/>
        <pt x="186" y="153" on="0"/>
        <pt x="160" y="53" on="0"/>
        <pt x="149" y="0" on="1"/>
      </contour>
      <contour>
        <pt x="326" y="587" on="1"/>
        <pt x="268" y="445" on="0"/>
        <pt x="225" y="294" on="1"/>
        <pt x="422" y="294" on="1"/>
        <pt x="400" y="369" on="0"/>
        <pt x="353" y="517" on="0"/>
      </contour>
      <contour>
        <pt x="497" y="928" on="1"/>
        <pt x="497" y="892" on="0"/>
        <pt x="471" y="837" on="0"/>
        <pt x="425" y="800" on="0"/>
        <pt x="363" y="781" on="0"/>
        <pt x="326" y="781" on="1"/>
        <pt x="248" y="781" on="0"/>
        <pt x="165" y="861" on="0"/>
        <pt x="165" y="928" on="1"/>
        <pt x="256" y="928" on="1"/>
        <pt x="256" y="898" on="0"/>
        <pt x="299" y="856" on="0"/>
        <pt x="331" y="856" on="1"/>
        <pt x="362" y="856" on="0"/>
        <pt x="407" y="898" on="0"/>
        <pt x="407" y="928" on="1"/>
      </contour>
    </TTGlyph>
    <TTGlyph name="Acircumflex" xMin="12" yMin="-12" xMax="639" yMax="930">
      <contour>
        <pt x="12" y="-12" on="1"/>
        <pt x="39" y="89" on="0"/>
        <pt x="94" y="274" on="0"/>
        <pt x="154" y="448" on="0"/>
        <pt x="223" y="616" on="0"/>
        <pt x="263" y="700" on="1"/>
        <pt x="388" y="712" on="1"/>
        <pt x="428" y="629" on="0"/>
        <pt x="496" y="463" on="0"/>
        <pt x="557" y="288" on="0"/>
        <pt x="612" y="102" on="0"/>
        <pt x="639" y="0" on="1"/>
        <pt x="503" y="-12" on="1"/>
        <pt x="489" y="41" on="0"/>
        <pt x="461" y="148" on="0"/>
        <pt x="447" y="202" on="1"/>
        <pt x="200" y="202" on="1"/>
        <pt x="186" y="153" on="0"/>
        <pt x="160" y="53" on="0"/>
        <pt x="149" y="0" on="1"/>
      </contour>
      <contour>
        <pt x="326" y="587" on="1"/>
        <pt x="268" y="445" on="0"/>
        <pt x="225" y="294" on="1"/>
        <pt x="422" y="294" on="1"/>
        <pt x="400" y="369" on="0"/>
        <pt x="353" y="517" on="0"/>
      </contour>
      <contour>
        <pt x="253" y="930" on="1"/>
        <pt x="264" y="928" on="0"/>
        <pt x="308" y="923" on="0"/>
        <pt x="326" y="923" on="1"/>
        <pt x="344" y="923" on="0"/>
        <pt x="388" y="928" on="0"/>
        <pt x="399" y="930" on="1"/>
        <pt x="513" y="803" on="1"/>
        <pt x="449" y="781" on="1"/>
        <pt x="326" y="854" on="1"/>
        <pt x="203" y="781" on="1"/>
        <pt x="139" y="803" on="1"/>
      </contour>
    </TTGlyph>
    <TTGlyph name="Adieresis" xMin="12" yMin="-12" xMax="639" yMax="900">
      <contour>
        <pt x="12" y="-12" on="1"/>
        <pt x="39" y="89" on="0"/>
        <pt x="94" y="274" on="0"/>
        <pt x="154" y="448" on="0"/>
        <pt x="223" y="616" on="0"/>
        <pt x="263" y="700" on="1"/>
        <pt x="388" y="712" on="1"/>
        <pt x="428" y="629" on="0"/>
        <pt x="496" y="463" on="0"/>
        <pt x="557" y="288" on="0"/>
        <pt x="612" y="102" on="0"/>
        <pt x="639" y="0" on="1"/>
        <pt x="503" y="-12" on="1"/>
        <pt x="489" y="41" on="0"/>
        <pt x="461" y="148" on="0"/>
        <pt x="447" y="202" on="1"/>
        <pt x="200" y="202" on="1"/>
        <pt x="186" y="153" on="0"/>
        <pt x="160" y="53" on="0"/>
        <pt x="149" y="0" on="1"/>
      </contour>
      <contour>
        <pt x="326" y="587" on="1"/>
        <pt x="268" y="445" on="0"/>
        <pt x="225" y="294" on="1"/>
        <pt x="422" y="294" on="1"/>
        <pt x="400" y="369" on="0"/>
        <pt x="353" y="517" on="0"/>
      </contour>
      <contour>
        <pt x="165" y="837" on="1"/>
        <pt x="165" y="862" on="0"/>
        <pt x="198" y="900" on="0"/>
        <pt x="224" y="900" on="1"/>
        <pt x="248" y="900" on="0"/>
        <pt x="283" y="868" on="0"/>
        <pt x="283" y="842" on="1"/>
        <pt x="283" y="816" on="0"/>
        <pt x="249" y="781" on="0"/>
        <pt x="221" y="781" on="1"/>
        <pt x="198" y="781" on="0"/>
        <pt x="165" y="810" on="0"/>
      </contour>
      <contour>
        <pt x="367" y="837" on="1"/>
        <pt x="367" y="862" on="0"/>
        <pt x="399" y="900" on="0"/>
        <pt x="427" y="900" on="1"/>
        <pt x="450" y="900" on="0"/>
        <pt x="485" y="868" on="0"/>
        <pt x="485" y="842" on="1"/>
        <pt x="485" y="816" on="0"/>
        <pt x="451" y="781" on="0"/>
        <pt x="423" y="781" on="1"/>
        <pt x="400" y="781" on="0"/>
        <pt x="367" y="810" on="0"/>
      </contour>
    </TTGlyph>
    <TTGlyph name="Agrave" xMin="12" yMin="-12" xMax="639" yMax="920">
      <contour>
        <pt x="12" y="-12" on="1"/>
        <pt x="39" y="89" on="0"/>
        <pt x="94" y="274" on="0"/>
        <pt x="154" y="448" on="0"/>
        <pt x="223" y="616" on="0"/>
        <pt x="263" y="700" on="1"/>
        <pt x="388" y="712" on="1"/>
        <pt x="428" y="629" on="0"/>
        <pt x="496" y="463" on="0"/>
        <pt x="557" y="288" on="0"/>
        <pt x="612" y="102" on="0"/>
        <pt x="639" y="0" on="1"/>
        <pt x="503" y="-12" on="1"/>
        <pt x="489" y="41" on="0"/>
        <pt x="461" y="148" on="0"/>
        <pt x="447" y="202" on="1"/>
        <pt x="200" y="202" on="1"/>
        <pt x="186" y="153" on="0"/>
        <pt x="160" y="53" on="0"/>
        <pt x="149" y="0" on="1"/>
      </contour>
      <contour>
        <pt x="326" y="587" on="1"/>
        <pt x="268" y="445" on="0"/>
        <pt x="225" y="294" on="1"/>
        <pt x="422" y="294" on="1"/>
        <pt x="400" y="369" on="0"/>
        <pt x="353" y="517" on="0"/>
      </contour>
      <contour>
        <pt x="245" y="920" on="1"/>
        <pt x="364" y="792" on="1"/>
        <pt x="285" y="780" on="1"/>
        <pt x="113" y="908" on="1"/>
      </contour>
    </TTGlyph>
    <TTGlyph name="Amacron" xMin="12" yMin="-12" xMax="639" yMax="863">
      <contour>
        <pt x="12" y="-12" on="1"/>
        <pt x="39" y="89" on="0"/>
        <pt x="94" y="274" on="0"/>
        <pt x="154" y="448" on="0"/>
        <pt x="223" y="616" on="0"/>
        <pt x="263" y="700" on="1"/>
        <pt x="388" y="712" on="1"/>
        <pt x="428" y="629" on="0"/>
        <pt x="496" y="463" on="0"/>
        <pt x="557" y="288" on="0"/>
        <pt x="612" y="102" on="0"/>
        <pt x="639" y="0" on="1"/>
        <pt x="503" y="-12" on="1"/>
        <pt x="489" y="41" on="0"/>
        <pt x="461" y="148" on="0"/>
        <pt x="447" y="202" on="1"/>
        <pt x="200" y="202" on="1"/>
        <pt x="186" y="153" on="0"/>
        <pt x="160" y="53" on="0"/>
        <pt x="149" y="0" on="1"/>
      </contour>
      <contour>
        <pt x="326" y="587" on="1"/>
        <pt x="268" y="445" on="0"/>
        <pt x="225" y="294" on="1"/>
        <pt x="422" y="294" on="1"/>
        <pt x="400" y="369" on="0"/>
        <pt x="353" y="517" on="0"/>
      </contour>
      <contour>
        <pt x="494" y="781" on="1"/>
        <pt x="446" y="782" on="0"/>
        <pt x="371" y="785" on="0"/>
        <pt x="324" y="785" on="1"/>
        <pt x="277" y="785" on="0"/>
        <pt x="201" y="784" on="0"/>
        <pt x="154" y="781" on="1"/>
        <pt x="157" y="863" on="1"/>
        <pt x="204" y="861" on="0"/>
        <pt x="279" y="859" on="0"/>
        <pt x="327" y="859" on="1"/>
        <pt x="374" y="859" on="0"/>
        <pt x="450" y="861" on="0"/>
        <pt x="498" y="863" on="1"/>
      </contour>
    </TTGlyph>
    <TTGlyph name="Aogonek" xMin="12" yMin="-230" xMax="646" yMax="712">
      <contour>
        <pt x="12" y="-12" on="1"/>
        <pt x="39" y="89" on="0"/>
        <pt x="94" y="274" on="0"/>
        <pt x="154" y="448" on="0"/>
        <pt x="223" y="616" on="0"/>
        <pt x="263" y="700" on="1"/>
        <pt x="388" y="712" on="1"/>
        <pt x="428" y="629" on="0"/>
        <pt x="496" y="463" on="0"/>
        <pt x="557" y="288" on="0"/>
        <pt x="612" y="102" on="0"/>
        <pt x="639" y="0" on="1"/>
        <pt x="569" y="-6" on="1"/>
        <pt x="553" y="-28" on="0"/>
        <pt x="526" y="-89" on="0"/>
        <pt x="526" y="-121" on="1"/>
        <pt x="526" y="-143" on="0"/>
        <pt x="544" y="-167" on="0"/>
        <pt x="565" y="-167" on="1"/>
        <pt x="582" y="-167" on="0"/>
        <pt x="619" y="-150" on="0"/>
        <pt x="631" y="-134" on="1"/>
        <pt x="646" y="-179" on="1"/>
        <pt x="630" y="-202" on="0"/>
        <pt x="581" y="-230" on="0"/>
        <pt x="539" y="-230" on="1"/>
        <pt x="509" y="-230" on="0"/>
        <pt x="468" y="-215" on="0"/>
        <pt x="443" y="-190" on="0"/>
        <pt x="432" y="-157" on="0"/>
        <pt x="432" y="-140" on="1"/>
        <pt x="432" y="-119" on="0"/>
        <pt x="445" y="-81" on="0"/>
        <pt x="465" y="-47" on="0"/>
        <pt x="490" y="-19" on="0"/>
        <pt x="502" y="-8" on="1"/>
        <pt x="488" y="43" on="0"/>
        <pt x="461" y="148" on="0"/>
        <pt x="447" y="202" on="1"/>
        <pt x="200" y="202" on="1"/>
        <pt x="186" y="153" on="0"/>
        <pt x="160" y="53" on="0"/>
        <pt x="149" y="0" on="1"/>
      </contour>
      <contour>
        <pt x="326" y="587" on="1"/>
        <pt x="268" y="445" on="0"/>
        <pt x="225" y="294" on="1"/>
        <pt x="422" y="294" on="1"/>
        <pt x="400" y="369" on="0"/>
        <pt x="353" y="517" on="0"/>
      </contour>
    </TTGlyph>
    <TTGlyph name="Aring" xMin="12" yMin="-12" xMax="639" yMax="960">
      <contour>
        <pt x="12" y="-12" on="1"/>
        <pt x="39" y="89" on="0"/>
        <pt x="94" y="274" on="0"/>
        <pt x="154" y="448" on="0"/>
        <pt x="223" y="616" on="0"/>
        <pt x="263" y="700" on="1"/>
        <pt x="388" y="712" on="1"/>
        <pt x="428" y="629" on="0"/>
        <pt x="496" y="463" on="0"/>
        <pt x="557" y="288" on="0"/>
        <pt x="612" y="102" on="0"/>
        <pt x="639" y="0" on="1"/>
        <pt x="503" y="-12" on="1"/>
        <pt x="489" y="41" on="0"/>
        <pt x="461" y="148" on="0"/>
        <pt x="447" y="202" on="1"/>
        <pt x="200" y="202" on="1"/>
        <pt x="186" y="153" on="0"/>
        <pt x="160" y="53" on="0"/>
        <pt x="149" y="0" on="1"/>
      </contour>
      <contour>
        <pt x="326" y="587" on="1"/>
        <pt x="268" y="445" on="0"/>
        <pt x="225" y="294" on="1"/>
        <pt x="422" y="294" on="1"/>
        <pt x="400" y="369" on="0"/>
        <pt x="353" y="517" on="0"/>
      </contour>
      <contour>
        <pt x="238" y="864" on="1"/>
        <pt x="238" y="903" on="0"/>
        <pt x="288" y="960" on="0"/>
        <pt x="333" y="960" on="1"/>
        <pt x="369" y="960" on="0"/>
        <pt x="424" y="914" on="0"/>
        <pt x="424" y="873" on="1"/>
        <pt x="424" y="835" on="0"/>
        <pt x="371" y="781" on="0"/>
        <pt x="326" y="781" on="1"/>
        <pt x="290" y="781" on="0"/>
        <pt x="238" y="823" on="0"/>
      </contour>
      <contour>
        <pt x="292" y="868" on="1"/>
        <pt x="292" y="852" on="0"/>
        <pt x="314" y="835" on="0"/>
        <pt x="328" y="835" on="1"/>
        <pt x="347" y="835" on="0"/>
        <pt x="367" y="856" on="0"/>
        <pt x="367" y="872" on="1"/>
        <pt x="367" y="888" on="0"/>
        <pt x="348" y="907" on="0"/>
        <pt x="332" y="907" on="1"/>
        <pt x="314" y="907" on="0"/>
        <pt x="292" y="885" on="0"/>
      </contour>
    </TTGlyph>
    <TTGlyph name="Aringacute" xMin="12" yMin="-12" xMax="639" yMax="996">
      <contour>
        <pt x="12" y="-12" on="1"/>
        <pt x="40" y="82" on="0"/>
        <pt x="97" y="253" on="0"/>
        <pt x="158" y="415" on="0"/>
        <pt x="225" y="571" on="0"/>
        <pt x="263" y="650" on="1"/>
        <pt x="388" y="662" on="1"/>
        <pt x="426" y="585" on="0"/>
        <pt x="492" y="430" on="0"/>
        <pt x="553" y="267" on="0"/>
        <pt x="610" y="94" on="0"/>
        <pt x="639" y="0" on="1"/>
        <pt x="503" y="-12" on="1"/>
        <pt x="490" y="31" on="0"/>
        <pt x="466" y="117" on="0"/>
        <pt x="453" y="162" on="1"/>
        <pt x="193" y="162" on="1"/>
        <pt x="182" y="122" on="0"/>
        <pt x="160" y="42" on="0"/>
        <pt x="149" y="0" on="1"/>
      </contour>
      <contour>
        <pt x="326" y="537" on="1"/>
        <pt x="295" y="468" on="0"/>
        <pt x="244" y="327" on="0"/>
        <pt x="221" y="254" on="1"/>
        <pt x="426" y="254" on="1"/>
        <pt x="404" y="327" on="0"/>
        <pt x="355" y="469" on="0"/>
      </contour>
      <contour>
        <pt x="250" y="764" on="1"/>
        <pt x="250" y="803" on="0"/>
        <pt x="300" y="860" on="0"/>
        <pt x="345" y="860" on="1"/>
        <pt x="381" y="860" on="0"/>
        <pt x="436" y="814" on="0"/>
        <pt x="436" y="773" on="1"/>
        <pt x="436" y="735" on="0"/>
        <pt x="383" y="681" on="0"/>
        <pt x="338" y="681" on="1"/>
        <pt x="302" y="681" on="0"/>
        <pt x="250" y="723" on="0"/>
      </contour>
      <contour>
        <pt x="547" y="984" on="1"/>
        <pt x="401" y="877" on="1"/>
        <pt x="322" y="889" on="1"/>
        <pt x="415" y="996" on="1"/>
      </contour>
      <contour>
        <pt x="304" y="768" on="1"/>
        <pt x="304" y="752" on="0"/>
        <pt x="326" y="735" on="0"/>
        <pt x="340" y="735" on="1"/>
        <pt x="359" y="735" on="0"/>
        <pt x="379" y="756" on="0"/>
        <pt x="379" y="772" on="1"/>
        <pt x="379" y="788" on="0"/>
        <pt x="360" y="807" on="0"/>
        <pt x="344" y="807" on="1"/>
        <pt x="326" y="807" on="0"/>
        <pt x="304" y="785" on="0"/>
      </contour>
    </TTGlyph>
    <TTGlyph name="Atilde" xMin="12" yMin="-12" xMax="639" yMax="912">
      <contour>
        <pt x="12" y="-12" on="1"/>
        <pt x="39" y="89" on="0"/>
        <pt x="94" y="274" on="0"/>
        <pt x="154" y="448" on="0"/>
        <pt x="223" y="616" on="0"/>
        <pt x="263" y="700" on="1"/>
        <pt x="388" y="712" on="1"/>
        <pt x="428" y="629" on="0"/>
        <pt x="496" y="463" on="0"/>
        <pt x="557" y="288" on="0"/>
        <pt x="612" y="102" on="0"/>
        <pt x="639" y="0" on="1"/>
        <pt x="503" y="-12" on="1"/>
        <pt x="489" y="41" on="0"/>
        <pt x="461" y="148" on="0"/>
        <pt x="447" y="202" on="1"/>
        <pt x="200" y="202" on="1"/>
        <pt x="186" y="153" on="0"/>
        <pt x="160" y="53" on="0"/>
        <pt x="149" y="0" on="1"/>
      </contour>
      <contour>
        <pt x="326" y="587" on="1"/>
        <pt x="268" y="445" on="0"/>
        <pt x="225" y="294" on="1"/>
        <pt x="422" y="294" on="1"/>
        <pt x="400" y="369" on="0"/>
        <pt x="353" y="517" on="0"/>
      </contour>
      <contour>
        <pt x="508" y="876" on="1"/>
        <pt x="452" y="769" on="0"/>
        <pt x="393" y="769" on="1"/>
        <pt x="373" y="769" on="0"/>
        <pt x="338" y="786" on="0"/>
        <pt x="305" y="805" on="0"/>
        <pt x="275" y="822" on="0"/>
        <pt x="260" y="822" on="1"/>
        <pt x="224" y="822" on="0"/>
        <pt x="199" y="773" on="1"/>
        <pt x="145" y="805" on="1"/>
        <pt x="201" y="912" on="0"/>
        <pt x="260" y="912" on="1"/>
        <pt x="280" y="912" on="0"/>
        <pt x="315" y="895" on="0"/>
        <pt x="348" y="876" on="0"/>
        <pt x="378" y="859" on="0"/>
        <pt x="393" y="859" on="1"/>
        <pt x="429" y="859" on="0"/>
        <pt x="454" y="908" on="1"/>
      </contour>
    </TTGlyph>
    <TTGlyph name="B" xMin="71" yMin="-11" xMax="565" yMax="711">
      <contour>
        <pt x="74" y="690" on="1"/>
        <pt x="95" y="694" on="0"/>
        <pt x="145" y="702" on="0"/>
        <pt x="198" y="708" on="0"/>
        <pt x="252" y="711" on="0"/>
        <pt x="277" y="711" on="1"/>
        <pt x="352" y="711" on="0"/>
        <pt x="450" y="680" on="0"/>
        <pt x="507" y="631" on="0"/>
        <pt x="529" y="570" on="0"/>
        <pt x="529" y="540" on="1"/>
        <pt x="529" y="513" on="0"/>
        <pt x="513" y="459" on="0"/>
        <pt x="479" y="413" on="0"/>
        <pt x="425" y="380" on="0"/>
        <pt x="388" y="374" on="1"/>
        <pt x="434" y="370" on="0"/>
        <pt x="501" y="338" on="0"/>
        <pt x="545" y="290" on="0"/>
        <pt x="565" y="230" on="0"/>
        <pt x="565" y="197" on="1"/>
        <pt x="565" y="157" on="0"/>
        <pt x="534" y="82" on="0"/>
        <pt x="460" y="24" on="0"/>
        <pt x="337" y="-11" on="0"/>
        <pt x="246" y="-11" on="1"/>
        <pt x="228" y="-11" on="0"/>
        <pt x="183" y="-10" on="0"/>
        <pt x="136" y="-7" on="0"/>
        <pt x="90" y="-3" on="0"/>
        <pt x="71" y="0" on="1"/>
        <pt x="73" y="48" on="0"/>
        <pt x="76" y="120" on="0"/>
        <pt x="78" y="201" on="0"/>
        <pt x="79" y="304" on="0"/>
        <pt x="79" y="384" on="1"/>
        <pt x="79" y="456" on="0"/>
        <pt x="77" y="609" on="0"/>
      </contour>
      <contour>
        <pt x="209" y="321" on="1"/>
        <pt x="209" y="249" on="0"/>
        <pt x="209" y="134" on="0"/>
        <pt x="210" y="83" on="1"/>
        <pt x="229" y="77" on="0"/>
        <pt x="268" y="70" on="0"/>
        <pt x="288" y="70" on="1"/>
        <pt x="351" y="70" on="0"/>
        <pt x="430" y="144" on="0"/>
        <pt x="430" y="211" on="1"/>
        <pt x="430" y="237" on="0"/>
        <pt x="415" y="281" on="0"/>
        <pt x="382" y="313" on="0"/>
        <pt x="330" y="331" on="0"/>
        <pt x="292" y="331" on="1"/>
        <pt x="253" y="331" on="0"/>
      </contour>
      <contour>
        <pt x="211" y="610" on="1"/>
        <pt x="209" y="569" on="0"/>
        <pt x="209" y="470" on="0"/>
        <pt x="209" y="404" on="1"/>
        <pt x="224" y="402" on="0"/>
        <pt x="251" y="400" on="0"/>
        <pt x="264" y="400" on="1"/>
        <pt x="338" y="400" on="0"/>
        <pt x="404" y="462" on="0"/>
        <pt x="404" y="514" on="1"/>
        <pt x="404" y="535" on="0"/>
        <pt x="393" y="574" on="0"/>
        <pt x="367" y="604" on="0"/>
        <pt x="324" y="622" on="0"/>
        <pt x="291" y="622" on="1"/>
        <pt x="271" y="622" on="0"/>
        <pt x="232" y="615" on="0"/>
      </contour>
    </TTGlyph>
    <TTGlyph name="C" xMin="42" yMin="-12" xMax="560" yMax="712">
      <contour>
        <pt x="42" y="321" on="1"/>
        <pt x="42" y="519" on="0"/>
        <pt x="203" y="712" on="0"/>
        <pt x="350" y="712" on="1"/>
        <pt x="395" y="712" on="0"/>
        <pt x="454" y="700" on="0"/>
        <pt x="479" y="700" on="1"/>
        <pt x="496" y="700" on="0"/>
        <pt x="530" y="706" on="0"/>
        <pt x="549" y="711" on="1"/>
        <pt x="560" y="457" on="1"/>
        <pt x="448" y="444" on="1"/>
        <pt x="449" y="459" on="0"/>
        <pt x="450" y="486" on="0"/>
        <pt x="450" y="498" on="1"/>
        <pt x="450" y="560" on="0"/>
        <pt x="406" y="628" on="0"/>
        <pt x="349" y="628" on="1"/>
        <pt x="173" y="628" on="0"/>
        <pt x="173" y="347" on="1"/>
        <pt x="173" y="280" on="0"/>
        <pt x="196" y="186" on="0"/>
        <pt x="242" y="127" on="0"/>
        <pt x="311" y="100" on="0"/>
        <pt x="356" y="100" on="1"/>
        <pt x="405" y="100" on="0"/>
        <pt x="501" y="129" on="0"/>
        <pt x="546" y="146" on="1"/>
        <pt x="546" y="40" on="1"/>
        <pt x="501" y="11" on="0"/>
        <pt x="381" y="-12" on="0"/>
        <pt x="325" y="-12" on="1"/>
        <pt x="269" y="-12" on="0"/>
        <pt x="166" y="13" on="0"/>
        <pt x="88" y="86" on="0"/>
        <pt x="42" y="216" on="0"/>
      </contour>
    </TTGlyph>
    <TTGlyph name="Cacute" xMin="42" yMin="-12" xMax="567" yMax="920">
      <contour>
        <pt x="42" y="321" on="1"/>
        <pt x="42" y="519" on="0"/>
        <pt x="203" y="712" on="0"/>
        <pt x="350" y="712" on="1"/>
        <pt x="395" y="712" on="0"/>
        <pt x="454" y="700" on="0"/>
        <pt x="479" y="700" on="1"/>
        <pt x="496" y="700" on="0"/>
        <pt x="530" y="706" on="0"/>
        <pt x="549" y="711" on="1"/>
        <pt x="560" y="457" on="1"/>
        <pt x="448" y="444" on="1"/>
        <pt x="449" y="459" on="0"/>
        <pt x="450" y="486" on="0"/>
        <pt x="450" y="498" on="1"/>
        <pt x="450" y="560" on="0"/>
        <pt x="406" y="628" on="0"/>
        <pt x="349" y="628" on="1"/>
        <pt x="173" y="628" on="0"/>
        <pt x="173" y="347" on="1"/>
        <pt x="173" y="280" on="0"/>
        <pt x="196" y="186" on="0"/>
        <pt x="242" y="127" on="0"/>
        <pt x="311" y="100" on="0"/>
        <pt x="356" y="100" on="1"/>
        <pt x="405" y="100" on="0"/>
        <pt x="501" y="129" on="0"/>
        <pt x="546" y="146" on="1"/>
        <pt x="546" y="40" on="1"/>
        <pt x="501" y="11" on="0"/>
        <pt x="381" y="-12" on="0"/>
        <pt x="325" y="-12" on="1"/>
        <pt x="269" y="-12" on="0"/>
        <pt x="166" y="13" on="0"/>
        <pt x="88" y="86" on="0"/>
        <pt x="42" y="216" on="0"/>
      </contour>
      <contour>
        <pt x="567" y="908" on="1"/>
        <pt x="395" y="781" on="1"/>
        <pt x="316" y="793" on="1"/>
        <pt x="435" y="920" on="1"/>
      </contour>
    </TTGlyph>
    <TTGlyph name="Ccaron" xMin="42" yMin="-12" xMax="560" yMax="930">
      <contour>
        <pt x="42" y="321" on="1"/>
        <pt x="42" y="519" on="0"/>
        <pt x="203" y="712" on="0"/>
        <pt x="350" y="712" on="1"/>
        <pt x="395" y="712" on="0"/>
        <pt x="454" y="700" on="0"/>
        <pt x="479" y="700" on="1"/>
        <pt x="496" y="700" on="0"/>
        <pt x="530" y="706" on="0"/>
        <pt x="549" y="711" on="1"/>
        <pt x="560" y="457" on="1"/>
        <pt x="448" y="444" on="1"/>
        <pt x="449" y="459" on="0"/>
        <pt x="450" y="486" on="0"/>
        <pt x="450" y="498" on="1"/>
        <pt x="450" y="560" on="0"/>
        <pt x="406" y="628" on="0"/>
        <pt x="349" y="628" on="1"/>
        <pt x="173" y="628" on="0"/>
        <pt x="173" y="347" on="1"/>
        <pt x="173" y="280" on="0"/>
        <pt x="196" y="186" on="0"/>
        <pt x="242" y="127" on="0"/>
        <pt x="311" y="100" on="0"/>
        <pt x="356" y="100" on="1"/>
        <pt x="405" y="100" on="0"/>
        <pt x="501" y="129" on="0"/>
        <pt x="546" y="146" on="1"/>
        <pt x="546" y="40" on="1"/>
        <pt x="501" y="11" on="0"/>
        <pt x="381" y="-12" on="0"/>
        <pt x="325" y="-12" on="1"/>
        <pt x="269" y="-12" on="0"/>
        <pt x="166" y="13" on="0"/>
        <pt x="88" y="86" on="0"/>
        <pt x="42" y="216" on="0"/>
      </contour>
      <contour>
        <pt x="161" y="908" on="1"/>
        <pt x="225" y="930" on="1"/>
        <pt x="348" y="857" on="1"/>
        <pt x="471" y="930" on="1"/>
        <pt x="535" y="908" on="1"/>
        <pt x="421" y="781" on="1"/>
        <pt x="410" y="783" on="0"/>
        <pt x="366" y="788" on="0"/>
        <pt x="348" y="788" on="1"/>
        <pt x="330" y="788" on="0"/>
        <pt x="286" y="783" on="0"/>
        <pt x="275" y="781" on="1"/>
      </contour>
    </TTGlyph>
    <TTGlyph name="Ccedilla" xMin="42" yMin="-230" xMax="560" yMax="712">
      <contour>
        <pt x="42" y="321" on="1"/>
        <pt x="42" y="519" on="0"/>
        <pt x="203" y="712" on="0"/>
        <pt x="350" y="712" on="1"/>
        <pt x="395" y="712" on="0"/>
        <pt x="454" y="700" on="0"/>
        <pt x="479" y="700" on="1"/>
        <pt x="496" y="700" on="0"/>
        <pt x="530" y="706" on="0"/>
        <pt x="549" y="711" on="1"/>
        <pt x="560" y="457" on="1"/>
        <pt x="448" y="444" on="1"/>
        <pt x="449" y="459" on="0"/>
        <pt x="450" y="486" on="0"/>
        <pt x="450" y="498" on="1"/>
        <pt x="450" y="560" on="0"/>
        <pt x="406" y="628" on="0"/>
        <pt x="349" y="628" on="1"/>
        <pt x="173" y="628" on="0"/>
        <pt x="173" y="347" on="1"/>
        <pt x="173" y="280" on="0"/>
        <pt x="196" y="186" on="0"/>
        <pt x="242" y="127" on="0"/>
        <pt x="311" y="100" on="0"/>
        <pt x="356" y="100" on="1"/>
        <pt x="405" y="100" on="0"/>
        <pt x="501" y="129" on="0"/>
        <pt x="546" y="146" on="1"/>
        <pt x="546" y="40" on="1"/>
        <pt x="509" y="16" on="0"/>
        <pt x="412" y="-7" on="0"/>
        <pt x="364" y="-10" on="1"/>
        <pt x="359" y="-47" on="1"/>
        <pt x="395" y="-49" on="0"/>
        <pt x="424" y="-59" on="1"/>
        <pt x="448" y="-67" on="0"/>
        <pt x="489" y="-101" on="0"/>
        <pt x="489" y="-131" on="1"/>
        <pt x="489" y="-161" on="0"/>
        <pt x="438" y="-199" on="0"/>
        <pt x="369" y="-221" on="0"/>
        <pt x="299" y="-230" on="0"/>
        <pt x="280" y="-230" on="1"/>
        <pt x="265" y="-171" on="1"/>
        <pt x="277" y="-171" on="0"/>
        <pt x="320" y="-168" on="0"/>
        <pt x="362" y="-161" on="0"/>
        <pt x="393" y="-149" on="0"/>
        <pt x="393" y="-140" on="1"/>
        <pt x="393" y="-120" on="0"/>
        <pt x="354" y="-107" on="0"/>
        <pt x="328" y="-107" on="1"/>
        <pt x="303" y="-107" on="0"/>
        <pt x="281" y="-110" on="1"/>
        <pt x="297" y="-11" on="1"/>
        <pt x="245" y="-9" on="0"/>
        <pt x="153" y="22" on="0"/>
        <pt x="83" y="96" on="0"/>
        <pt x="42" y="222" on="0"/>
      </contour>
    </TTGlyph>
    <TTGlyph name="Ccircumflex" xMin="42" yMin="-12" xMax="560" yMax="930">
      <contour>
        <pt x="42" y="321" on="1"/>
        <pt x="42" y="519" on="0"/>
        <pt x="203" y="712" on="0"/>
        <pt x="350" y="712" on="1"/>
        <pt x="395" y="712" on="0"/>
        <pt x="454" y="700" on="0"/>
        <pt x="479" y="700" on="1"/>
        <pt x="496" y="700" on="0"/>
        <pt x="530" y="706" on="0"/>
        <pt x="549" y="711" on="1"/>
        <pt x="560" y="457" on="1"/>
        <pt x="448" y="444" on="1"/>
        <pt x="449" y="459" on="0"/>
        <pt x="450" y="486" on="0"/>
        <pt x="450" y="498" on="1"/>
        <pt x="450" y="560" on="0"/>
        <pt x="406" y="628" on="0"/>
        <pt x="349" y="628" on="1"/>
        <pt x="173" y="628" on="0"/>
        <pt x="173" y="347" on="1"/>
        <pt x="173" y="280" on="0"/>
        <pt x="196" y="186" on="0"/>
        <pt x="242" y="127" on="0"/>
        <pt x="311" y="100" on="0"/>
        <pt x="356" y="100" on="1"/>
        <pt x="405" y="100" on="0"/>
        <pt x="501" y="129" on="0"/>
        <pt x="546" y="146" on="1"/>
        <pt x="546" y="40" on="1"/>
        <pt x="501" y="11" on="0"/>
        <pt x="381" y="-12" on="0"/>
        <pt x="325" y="-12" on="1"/>
        <pt x="269" y="-12" on="0"/>
        <pt x="166" y="13" on="0"/>
        <pt x="88" y="86" on="0"/>
        <pt x="42" y="216" on="0"/>
      </contour>
      <contour>
        <pt x="275" y="930" on="1"/>
        <pt x="286" y="928" on="0"/>
        <pt x="330" y="923" on="0"/>
        <pt x="348" y="923" on="1"/>
        <pt x="366" y="923" on="0"/>
        <pt x="410" y="928" on="0"/>
        <pt x="421" y="930" on="1"/>
        <pt x="535" y="803" on="1"/>
        <pt x="471" y="781" on="1"/>
        <pt x="348" y="854" on="1"/>
        <pt x="225" y="781" on="1"/>
        <pt x="161" y="803" on="1"/>
      </contour>
    </TTGlyph>
    <TTGlyph name="Cdotaccent" xMin="42" yMin="-12" xMax="560" yMax="906">
      <contour>
        <pt x="42" y="321" on="1"/>
        <pt x="42" y="519" on="0"/>
        <pt x="203" y="712" on="0"/>
        <pt x="350" y="712" on="1"/>
        <pt x="395" y="712" on="0"/>
        <pt x="454" y="700" on="0"/>
        <pt x="479" y="700" on="1"/>
        <pt x="496" y="700" on="0"/>
        <pt x="530" y="706" on="0"/>
        <pt x="549" y="711" on="1"/>
        <pt x="560" y="457" on="1"/>
        <pt x="448" y="444" on="1"/>
        <pt x="449" y="459" on="0"/>
        <pt x="450" y="486" on="0"/>
        <pt x="450" y="498" on="1"/>
        <pt x="450" y="560" on="0"/>
        <pt x="406" y="628" on="0"/>
        <pt x="349" y="628" on="1"/>
        <pt x="173" y="628" on="0"/>
        <pt x="173" y="347" on="1"/>
        <pt x="173" y="280" on="0"/>
        <pt x="196" y="186" on="0"/>
        <pt x="242" y="127" on="0"/>
        <pt x="311" y="100" on="0"/>
        <pt x="356" y="100" on="1"/>
        <pt x="405" y="100" on="0"/>
        <pt x="501" y="129" on="0"/>
        <pt x="546" y="146" on="1"/>
        <pt x="546" y="40" on="1"/>
        <pt x="501" y="11" on="0"/>
        <pt x="381" y="-12" on="0"/>
        <pt x="325" y="-12" on="1"/>
        <pt x="269" y="-12" on="0"/>
        <pt x="166" y="13" on="0"/>
        <pt x="88" y="86" on="0"/>
        <pt x="42" y="216" on="0"/>
      </contour>
      <contour>
        <pt x="280" y="838" on="1"/>
        <pt x="280" y="866" on="0"/>
        <pt x="318" y="906" on="0"/>
        <pt x="351" y="906" on="1"/>
        <pt x="380" y="906" on="0"/>
        <pt x="420" y="873" on="0"/>
        <pt x="420" y="846" on="1"/>
        <pt x="420" y="819" on="0"/>
        <pt x="381" y="781" on="0"/>
        <pt x="348" y="781" on="1"/>
        <pt x="319" y="781" on="0"/>
        <pt x="280" y="810" on="0"/>
      </contour>
    </TTGlyph>
    <TTGlyph name="D" xMin="71" yMin="-12" xMax="634" yMax="712">
      <contour>
        <pt x="74" y="690" on="1"/>
        <pt x="114" y="698" on="0"/>
        <pt x="231" y="712" on="0"/>
        <pt x="301" y="712" on="1"/>
        <pt x="380" y="712" on="0"/>
        <pt x="503" y="663" on="0"/>
        <pt x="589" y="573" on="0"/>
        <pt x="634" y="445" on="0"/>
        <pt x="634" y="367" on="1"/>
        <pt x="634" y="285" on="0"/>
        <pt x="583" y="146" on="0"/>
        <pt x="490" y="45" on="0"/>
        <pt x="360" y="-12" on="0"/>
        <pt x="280" y="-12" on="1"/>
        <pt x="211" y="-12" on="0"/>
        <pt x="104" y="-5" on="0"/>
        <pt x="71" y="0" on="1"/>
        <pt x="72" y="48" on="0"/>
        <pt x="75" y="121" on="0"/>
        <pt x="77" y="200" on="0"/>
        <pt x="79" y="302" on="0"/>
        <pt x="79" y="379" on="1"/>
        <pt x="79" y="456" on="0"/>
        <pt x="77" y="609" on="0"/>
      </contour>
      <contour>
        <pt x="287" y="622" on="1"/>
        <pt x="270" y="622" on="0"/>
        <pt x="231" y="615" on="0"/>
        <pt x="211" y="610" on="1"/>
        <pt x="209" y="562" on="0"/>
        <pt x="209" y="442" on="0"/>
        <pt x="209" y="356" on="1"/>
        <pt x="209" y="267" on="0"/>
        <pt x="209" y="137" on="0"/>
        <pt x="210" y="80" on="1"/>
        <pt x="231" y="70" on="0"/>
        <pt x="256" y="70" on="1"/>
        <pt x="307" y="70" on="0"/>
        <pt x="396" y="102" on="0"/>
        <pt x="462" y="172" on="0"/>
        <pt x="500" y="281" on="0"/>
        <pt x="500" y="359" on="1"/>
        <pt x="500" y="435" on="0"/>
        <pt x="471" y="536" on="0"/>
        <pt x="415" y="597" on="0"/>
        <pt x="336" y="622" on="0"/>
      </contour>
    </TTGlyph>
    <TTGlyph name="Dcaron" xMin="71" yMin="-12" xMax="634" yMax="930">
      <contour>
        <pt x="74" y="690" on="1"/>
        <pt x="114" y="698" on="0"/>
        <pt x="231" y="712" on="0"/>
        <pt x="301" y="712" on="1"/>
        <pt x="380" y="712" on="0"/>
        <pt x="503" y="663" on="0"/>
        <pt x="589" y="573" on="0"/>
        <pt x="634" y="445" on="0"/>
        <pt x="634" y="367" on="1"/>
        <pt x="634" y="285" on="0"/>
        <pt x="583" y="146" on="0"/>
        <pt x="490" y="45" on="0"/>
        <pt x="360" y="-12" on="0"/>
        <pt x="280" y="-12" on="1"/>
        <pt x="211" y="-12" on="0"/>
        <pt x="104" y="-5" on="0"/>
        <pt x="71" y="0" on="1"/>
        <pt x="72" y="48" on="0"/>
        <pt x="75" y="121" on="0"/>
        <pt x="77" y="200" on="0"/>
        <pt x="79" y="302" on="0"/>
        <pt x="79" y="379" on="1"/>
        <pt x="79" y="456" on="0"/>
        <pt x="77" y="609" on="0"/>
      </contour>
      <contour>
        <pt x="287" y="622" on="1"/>
        <pt x="270" y="622" on="0"/>
        <pt x="231" y="615" on="0"/>
        <pt x="211" y="610" on="1"/>
        <pt x="209" y="562" on="0"/>
        <pt x="209" y="442" on="0"/>
        <pt x="209" y="356" on="1"/>
        <pt x="209" y="267" on="0"/>
        <pt x="209" y="137" on="0"/>
        <pt x="210" y="80" on="1"/>
        <pt x="231" y="70" on="0"/>
        <pt x="256" y="70" on="1"/>
        <pt x="307" y="70" on="0"/>
        <pt x="396" y="102" on="0"/>
        <pt x="462" y="172" on="0"/>
        <pt x="500" y="281" on="0"/>
        <pt x="500" y="359" on="1"/>
        <pt x="500" y="435" on="0"/>
        <pt x="471" y="536" on="0"/>
        <pt x="415" y="597" on="0"/>
        <pt x="336" y="622" on="0"/>
      </contour>
      <contour>
        <pt x="146" y="908" on="1"/>
        <pt x="210" y="930" on="1"/>
        <pt x="333" y="857" on="1"/>
        <pt x="456" y="930" on="1"/>
        <pt x="520" y="908" on="1"/>
        <pt x="406" y="781" on="1"/>
        <pt x="395" y="783" on="0"/>
        <pt x="351" y="788" on="0"/>
        <pt x="333" y="788" on="1"/>
        <pt x="315" y="788" on="0"/>
        <pt x="271" y="783" on="0"/>
        <pt x="260" y="781" on="1"/>
      </contour>
    </TTGlyph>
    <TTGlyph name="Dcroat" xMin="19" yMin="-12" xMax="640" yMax="712">
      <contour>
        <pt x="80" y="690" on="1"/>
        <pt x="120" y="698" on="0"/>
        <pt x="237" y="712" on="0"/>
        <pt x="307" y="712" on="1"/>
        <pt x="386" y="712" on="0"/>
        <pt x="509" y="663" on="0"/>
        <pt x="595" y="573" on="0"/>
        <pt x="640" y="445" on="0"/>
        <pt x="640" y="367" on="1"/>
        <pt x="640" y="285" on="0"/>
        <pt x="589" y="146" on="0"/>
        <pt x="496" y="45" on="0"/>
        <pt x="366" y="-12" on="0"/>
        <pt x="286" y="-12" on="1"/>
        <pt x="217" y="-12" on="0"/>
        <pt x="110" y="-5" on="0"/>
        <pt x="77" y="0" on="1"/>
        <pt x="78" y="42" on="0"/>
        <pt x="80" y="107" on="0"/>
        <pt x="83" y="175" on="0"/>
        <pt x="85" y="254" on="0"/>
        <pt x="85" y="310" on="1"/>
        <pt x="19" y="307" on="1"/>
        <pt x="22" y="389" on="1"/>
        <pt x="85" y="386" on="1"/>
        <pt x="85" y="461" on="0"/>
        <pt x="83" y="610" on="0"/>
      </contour>
      <contour>
        <pt x="359" y="307" on="1"/>
        <pt x="317" y="308" on="0"/>
        <pt x="252" y="310" on="0"/>
        <pt x="215" y="311" on="1"/>
        <pt x="215" y="242" on="0"/>
        <pt x="215" y="128" on="0"/>
        <pt x="216" y="80" on="1"/>
        <pt x="237" y="70" on="0"/>
        <pt x="262" y="70" on="1"/>
        <pt x="313" y="70" on="0"/>
        <pt x="402" y="102" on="0"/>
        <pt x="468" y="172" on="0"/>
        <pt x="506" y="281" on="0"/>
        <pt x="506" y="359" on="1"/>
        <pt x="506" y="435" on="0"/>
        <pt x="477" y="536" on="0"/>
        <pt x="421" y="597" on="0"/>
        <pt x="342" y="622" on="0"/>
        <pt x="293" y="622" on="1"/>
        <pt x="276" y="622" on="0"/>
        <pt x="237" y="615" on="0"/>
        <pt x="217" y="610" on="1"/>
        <pt x="215" y="566" on="0"/>
        <pt x="215" y="457" on="0"/>
        <pt x="215" y="385" on="1"/>
        <pt x="253" y="385" on="0"/>
        <pt x="321" y="387" on="0"/>
        <pt x="363" y="389" on="1"/>
      </contour>
    </TTGlyph>
    <TTGlyph name="Ddotbelow" xMin="71" yMin="-197" xMax="634" yMax="712">
      <contour>
        <pt x="74" y="690" on="1"/>
        <pt x="114" y="698" on="0"/>
        <pt x="231" y="712" on="0"/>
        <pt x="301" y="712" on="1"/>
        <pt x="380" y="712" on="0"/>
        <pt x="503" y="663" on="0"/>
        <pt x="589" y="573" on="0"/>
        <pt x="634" y="445" on="0"/>
        <pt x="634" y="367" on="1"/>
        <pt x="634" y="285" on="0"/>
        <pt x="583" y="146" on="0"/>
        <pt x="490" y="45" on="0"/>
        <pt x="360" y="-12" on="0"/>
        <pt x="280" y="-12" on="1"/>
        <pt x="211" y="-12" on="0"/>
        <pt x="104" y="-5" on="0"/>
        <pt x="71" y="0" on="1"/>
        <pt x="72" y="48" on="0"/>
        <pt x="75" y="121" on="0"/>
        <pt x="77" y="200" on="0"/>
        <pt x="79" y="302" on="0"/>
        <pt x="79" y="379" on="1"/>
        <pt x="79" y="456" on="0"/>
        <pt x="77" y="609" on="0"/>
      </contour>
      <contour>
        <pt x="287" y="622" on="1"/>
        <pt x="270" y="622" on="0"/>
        <pt x="231" y="615" on="0"/>
        <pt x="211" y="610" on="1"/>
        <pt x="209" y="562" on="0"/>
        <pt x="209" y="442" on="0"/>
        <pt x="209" y="356" on="1"/>
        <pt x="209" y="267" on="0"/>
        <pt x="209" y="137" on="0"/>
        <pt x="210" y="80" on="1"/>
        <pt x="231" y="70" on="0"/>
        <pt x="256" y="70" on="1"/>
        <pt x="307" y="70" on="0"/>
        <pt x="396" y="102" on="0"/>
        <pt x="462" y="172" on="0"/>
        <pt x="500" y="281" on="0"/>
        <pt x="500" y="359" on="1"/>
        <pt x="500" y="435" on="0"/>
        <pt x="471" y="536" on="0"/>
        <pt x="415" y="597" on="0"/>
        <pt x="336" y="622" on="0"/>
      </contour>
      <contour>
        <pt x="282" y="-143" on="1"/>
        <pt x="282" y="-117" on="0"/>
        <pt x="317" y="-80" on="0"/>
        <pt x="348" y="-80" on="1"/>
        <pt x="374" y="-80" on="0"/>
        <pt x="413" y="-111" on="0"/>
        <pt x="413" y="-137" on="1"/>
        <pt x="413" y="-162" on="0"/>
        <pt x="379" y="-197" on="0"/>
        <pt x="348" y="-197" on="1"/>
        <pt x="322" y="-197" on="0"/>
        <pt x="282" y="-169" on="0"/>
      </contour>
    </TTGlyph>
    <TTGlyph name="E" xMin="71" yMin="0" xMax="519" yMax="700">
      <contour>
        <pt x="469" y="309" on="1"/>
        <pt x="209" y="309" on="1"/>
        <pt x="209" y="246" on="0"/>
        <pt x="209" y="143" on="0"/>
        <pt x="210" y="98" on="1"/>
        <pt x="519" y="98" on="1"/>
        <pt x="519" y="0" on="1"/>
        <pt x="71" y="0" on="1"/>
        <pt x="72" y="48" on="0"/>
        <pt x="75" y="121" on="0"/>
        <pt x="77" y="200" on="0"/>
        <pt x="79" y="302" on="0"/>
        <pt x="79" y="379" on="1"/>
        <pt x="79" y="456" on="0"/>
        <pt x="77" y="619" on="0"/>
        <pt x="74" y="700" on="1"/>
        <pt x="500" y="700" on="1"/>
        <pt x="500" y="602" on="1"/>
        <pt x="211" y="602" on="1"/>
        <pt x="209" y="563" on="0"/>
        <pt x="209" y="464" on="0"/>
        <pt x="209" y="401" on="1"/>
        <pt x="469" y="401" on="1"/>
      </contour>
    </TTGlyph>
    <TTGlyph name="Eacute" xMin="71" yMin="0" xMax="519" yMax="921">
      <contour>
        <pt x="469" y="309" on="1"/>
        <pt x="209" y="309" on="1"/>
        <pt x="209" y="246" on="0"/>
        <pt x="209" y="143" on="0"/>
        <pt x="210" y="98" on="1"/>
        <pt x="519" y="98" on="1"/>
        <pt x="519" y="0" on="1"/>
        <pt x="71" y="0" on="1"/>
        <pt x="72" y="48" on="0"/>
        <pt x="75" y="121" on="0"/>
        <pt x="77" y="200" on="0"/>
        <pt x="79" y="302" on="0"/>
        <pt x="79" y="379" on="1"/>
        <pt x="79" y="456" on="0"/>
        <pt x="77" y="619" on="0"/>
        <pt x="74" y="700" on="1"/>
        <pt x="500" y="700" on="1"/>
        <pt x="500" y="602" on="1"/>
        <pt x="211" y="602" on="1"/>
        <pt x="209" y="563" on="0"/>
        <pt x="209" y="464" on="0"/>
        <pt x="209" y="401" on="1"/>
        <pt x="469" y="401" on="1"/>
      </contour>
      <contour>
        <pt x="495" y="909" on="1"/>
        <pt x="323" y="782" on="1"/>
        <pt x="244" y="794" on="1"/>
        <pt x="363" y="921" on="1"/>
      </contour>
    </TTGlyph>
    <TTGlyph name="Ebreve" xMin="71" yMin="0" xMax="519" yMax="929">
      <contour>
        <pt x="469" y="309" on="1"/>
        <pt x="209" y="309" on="1"/>
        <pt x="209" y="246" on="0"/>
        <pt x="209" y="143" on="0"/>
        <pt x="210" y="98" on="1"/>
        <pt x="519" y="98" on="1"/>
        <pt x="519" y="0" on="1"/>
        <pt x="71" y="0" on="1"/>
        <pt x="72" y="48" on="0"/>
        <pt x="75" y="121" on="0"/>
        <pt x="77" y="200" on="0"/>
        <pt x="79" y="302" on="0"/>
        <pt x="79" y="379" on="1"/>
        <pt x="79" y="456" on="0"/>
        <pt x="77" y="619" on="0"/>
        <pt x="74" y="700" on="1"/>
        <pt x="500" y="700" on="1"/>
        <pt x="500" y="602" on="1"/>
        <pt x="211" y="602" on="1"/>
        <pt x="209" y="563" on="0"/>
        <pt x="209" y="464" on="0"/>
        <pt x="209" y="401" on="1"/>
        <pt x="469" y="401" on="1"/>
      </contour>
      <contour>
        <pt x="467" y="929" on="1"/>
        <pt x="467" y="893" on="0"/>
        <pt x="441" y="838" on="0"/>
        <pt x="395" y="801" on="0"/>
        <pt x="333" y="782" on="0"/>
        <pt x="296" y="782" on="1"/>
        <pt x="218" y="782" on="0"/>
        <pt x="135" y="862" on="0"/>
        <pt x="135" y="929" on="1"/>
        <pt x="226" y="929" on="1"/>
        <pt x="226" y="899" on="0"/>
        <pt x="269" y="857" on="0"/>
        <pt x="301" y="857" on="1"/>
        <pt x="332" y="857" on="0"/>
        <pt x="377" y="899" on="0"/>
        <pt x="377" y="929" on="1"/>
      </contour>
    </TTGlyph>
    <TTGlyph name="Ecaron" xMin="71" yMin="0" xMax="519" yMax="931">
      <contour>
        <pt x="469" y="309" on="1"/>
        <pt x="209" y="309" on="1"/>
        <pt x="209" y="246" on="0"/>
        <pt x="209" y="143" on="0"/>
        <pt x="210" y="98" on="1"/>
        <pt x="519" y="98" on="1"/>
        <pt x="519" y="0" on="1"/>
        <pt x="71" y="0" on="1"/>
        <pt x="72" y="48" on="0"/>
        <pt x="75" y="121" on="0"/>
        <pt x="77" y="200" on="0"/>
        <pt x="79" y="302" on="0"/>
        <pt x="79" y="379" on="1"/>
        <pt x="79" y="456" on="0"/>
        <pt x="77" y="619" on="0"/>
        <pt x="74" y="700" on="1"/>
        <pt x="500" y="700" on="1"/>
        <pt x="500" y="602" on="1"/>
        <pt x="211" y="602" on="1"/>
        <pt x="209" y="563" on="0"/>
        <pt x="209" y="464" on="0"/>
        <pt x="209" y="401" on="1"/>
        <pt x="469" y="401" on="1"/>
      </contour>
      <contour>
        <pt x="109" y="909" on="1"/>
        <pt x="173" y="931" on="1"/>
        <pt x="296" y="858" on="1"/>
        <pt x="419" y="931" on="1"/>
        <pt x="483" y="909" on="1"/>
        <pt x="369" y="782" on="1"/>
        <pt x="358" y="784" on="0"/>
        <pt x="314" y="789" on="0"/>
        <pt x="296" y="789" on="1"/>
        <pt x="278" y="789" on="0"/>
        <pt x="234" y="784" on="0"/>
        <pt x="223" y="782" on="1"/>
      </contour>
    </TTGlyph>
    <TTGlyph name="Ecircumflex" xMin="71" yMin="0" xMax="519" yMax="931">
      <contour>
        <pt x="469" y="309" on="1"/>
        <pt x="209" y="309" on="1"/>
        <pt x="209" y="246" on="0"/>
        <pt x="209" y="143" on="0"/>
        <pt x="210" y="98" on="1"/>
        <pt x="519" y="98" on="1"/>
        <pt x="519" y="0" on="1"/>
        <pt x="71" y="0" on="1"/>
        <pt x="72" y="48" on="0"/>
        <pt x="75" y="121" on="0"/>
        <pt x="77" y="200" on="0"/>
        <pt x="79" y="302" on="0"/>
        <pt x="79" y="379" on="1"/>
        <pt x="79" y="456" on="0"/>
        <pt x="77" y="619" on="0"/>
        <pt x="74" y="700" on="1"/>
        <pt x="500" y="700" on="1"/>
        <pt x="500" y="602" on="1"/>
        <pt x="211" y="602" on="1"/>
        <pt x="209" y="563" on="0"/>
        <pt x="209" y="464" on="0"/>
        <pt x="209" y="401" on="1"/>
        <pt x="469" y="401" on="1"/>
      </contour>
      <contour>
        <pt x="223" y="931" on="1"/>
        <pt x="234" y="929" on="0"/>
        <pt x="278" y="924" on="0"/>
        <pt x="296" y="924" on="1"/>
        <pt x="314" y="924" on="0"/>
        <pt x="358" y="929" on="0"/>
        <pt x="369" y="931" on="1"/>
        <pt x="483" y="804" on="1"/>
        <pt x="419" y="782" on="1"/>
        <pt x="296" y="855" on="1"/>
        <pt x="173" y="782" on="1"/>
        <pt x="109" y="804" on="1"/>
      </contour>
    </TTGlyph>
    <TTGlyph name="Edieresis" xMin="71" yMin="0" xMax="519" yMax="901">
      <contour>
        <pt x="469" y="309" on="1"/>
        <pt x="209" y="309" on="1"/>
        <pt x="209" y="246" on="0"/>
        <pt x="209" y="143" on="0"/>
        <pt x="210" y="98" on="1"/>
        <pt x="519" y="98" on="1"/>
        <pt x="519" y="0" on="1"/>
        <pt x="71" y="0" on="1"/>
        <pt x="72" y="48" on="0"/>
        <pt x="75" y="121" on="0"/>
        <pt x="77" y="200" on="0"/>
        <pt x="79" y="302" on="0"/>
        <pt x="79" y="379" on="1"/>
        <pt x="79" y="456" on="0"/>
        <pt x="77" y="619" on="0"/>
        <pt x="74" y="700" on="1"/>
        <pt x="500" y="700" on="1"/>
        <pt x="500" y="602" on="1"/>
        <pt x="211" y="602" on="1"/>
        <pt x="209" y="563" on="0"/>
        <pt x="209" y="464" on="0"/>
        <pt x="209" y="401" on="1"/>
        <pt x="469" y="401" on="1"/>
      </contour>
      <contour>
        <pt x="135" y="838" on="1"/>
        <pt x="135" y="863" on="0"/>
        <pt x="168" y="901" on="0"/>
        <pt x="194" y="901" on="1"/>
        <pt x="218" y="901" on="0"/>
        <pt x="253" y="869" on="0"/>
        <pt x="253" y="843" on="1"/>
        <pt x="253" y="817" on="0"/>
        <pt x="219" y="782" on="0"/>
        <pt x="191" y="782" on="1"/>
        <pt x="168" y="782" on="0"/>
        <pt x="135" y="811" on="0"/>
      </contour>
      <contour>
        <pt x="337" y="838" on="1"/>
        <pt x="337" y="863" on="0"/>
        <pt x="369" y="901" on="0"/>
        <pt x="397" y="901" on="1"/>
        <pt x="420" y="901" on="0"/>
        <pt x="455" y="869" on="0"/>
        <pt x="455" y="843" on="1"/>
        <pt x="455" y="817" on="0"/>
        <pt x="421" y="782" on="0"/>
        <pt x="393" y="782" on="1"/>
        <pt x="370" y="782" on="0"/>
        <pt x="337" y="811" on="0"/>
      </contour>
    </TTGlyph>
    <TTGlyph name="Edotaccent" xMin="71" yMin="0" xMax="519" yMax="907">
      <contour>
        <pt x="469" y="309" on="1"/>
        <pt x="209" y="309" on="1"/>
        <pt x="209" y="246" on="0"/>
        <pt x="209" y="143" on="0"/>
        <pt x="210" y="98" on="1"/>
        <pt x="519" y="98" on="1"/>
        <pt x="519" y="0" on="1"/>
        <pt x="71" y="0" on="1"/>
        <pt x="72" y="48" on="0"/>
        <pt x="75" y="121" on="0"/>
        <pt x="77" y="200" on="0"/>
        <pt x="79" y="302" on="0"/>
        <pt x="79" y="379" on="1"/>
        <pt x="79" y="456" on="0"/>
        <pt x="77" y="619" on="0"/>
        <pt x="74" y="700" on="1"/>
        <pt x="500" y="700" on="1"/>
        <pt x="500" y="602" on="1"/>
        <pt x="211" y="602" on="1"/>
        <pt x="209" y="563" on="0"/>
        <pt x="209" y="464" on="0"/>
        <pt x="209" y="401" on="1"/>
        <pt x="469" y="401" on="1"/>
      </contour>
      <contour>
        <pt x="228" y="839" on="1"/>
        <pt x="228" y="867" on="0"/>
        <pt x="266" y="907" on="0"/>
        <pt x="299" y="907" on="1"/>
        <pt x="328" y="907" on="0"/>
        <pt x="368" y="874" on="0"/>
        <pt x="368" y="847" on="1"/>
        <pt x="368" y="820" on="0"/>
        <pt x="329" y="782" on="0"/>
        <pt x="296" y="782" on="1"/>
        <pt x="267" y="782" on="0"/>
        <pt x="228" y="811" on="0"/>
      </contour>
    </TTGlyph>
    <TTGlyph name="Edotbelow" xMin="71" yMin="-197" xMax="519" yMax="700">
      <contour>
        <pt x="469" y="309" on="1"/>
        <pt x="209" y="309" on="1"/>
        <pt x="209" y="246" on="0"/>
        <pt x="209" y="143" on="0"/>
        <pt x="210" y="98" on="1"/>
        <pt x="519" y="98" on="1"/>
        <pt x="519" y="0" on="1"/>
        <pt x="71" y="0" on="1"/>
        <pt x="72" y="48" on="0"/>
        <pt x="75" y="121" on="0"/>
        <pt x="77" y="200" on="0"/>
        <pt x="79" y="302" on="0"/>
        <pt x="79" y="379" on="1"/>
        <pt x="79" y="456" on="0"/>
        <pt x="77" y="619" on="0"/>
        <pt x="74" y="700" on="1"/>
        <pt x="500" y="700" on="1"/>
        <pt x="500" y="602" on="1"/>
        <pt x="211" y="602" on="1"/>
        <pt x="209" y="563" on="0"/>
        <pt x="209" y="464" on="0"/>
        <pt x="209" y="401" on="1"/>
        <pt x="469" y="401" on="1"/>
      </contour>
      <contour>
        <pt x="245" y="-143" on="1"/>
        <pt x="245" y="-117" on="0"/>
        <pt x="280" y="-80" on="0"/>
        <pt x="311" y="-80" on="1"/>
        <pt x="337" y="-80" on="0"/>
        <pt x="376" y="-111" on="0"/>
        <pt x="376" y="-137" on="1"/>
        <pt x="376" y="-162" on="0"/>
        <pt x="342" y="-197" on="0"/>
        <pt x="311" y="-197" on="1"/>
        <pt x="285" y="-197" on="0"/>
        <pt x="245" y="-169" on="0"/>
      </contour>
    </TTGlyph>
    <TTGlyph name="Egrave" xMin="71" yMin="0" xMax="519" yMax="921">
      <contour>
        <pt x="469" y="309" on="1"/>
        <pt x="209" y="309" on="1"/>
        <pt x="209" y="246" on="0"/>
        <pt x="209" y="143" on="0"/>
        <pt x="210" y="98" on="1"/>
        <pt x="519" y="98" on="1"/>
        <pt x="519" y="0" on="1"/>
        <pt x="71" y="0" on="1"/>
        <pt x="72" y="48" on="0"/>
        <pt x="75" y="121" on="0"/>
        <pt x="77" y="200" on="0"/>
        <pt x="79" y="302" on="0"/>
        <pt x="79" y="379" on="1"/>
        <pt x="79" y="456" on="0"/>
        <pt x="77" y="619" on="0"/>
        <pt x="74" y="700" on="1"/>
        <pt x="500" y="700" on="1"/>
        <pt x="500" y="602" on="1"/>
        <pt x="211" y="602" on="1"/>
        <pt x="209" y="563" on="0"/>
        <pt x="209" y="464" on="0"/>
        <pt x="209" y="401" on="1"/>
        <pt x="469" y="401" on="1"/>
      </contour>
      <contour>
        <pt x="254" y="921" on="1"/>
        <pt x="373" y="793" on="1"/>
        <pt x="294" y="781" on="1"/>
        <pt x="122" y="909" on="1"/>
      </contour>
    </TTGlyph>
    <TTGlyph name="Emacron" xMin="71" yMin="0" xMax="519" yMax="864">
      <contour>
        <pt x="469" y="309" on="1"/>
        <pt x="209" y="309" on="1"/>
        <pt x="209" y="246" on="0"/>
        <pt x="209" y="143" on="0"/>
        <pt x="210" y="98" on="1"/>
        <pt x="519" y="98" on="1"/>
        <pt x="519" y="0" on="1"/>
        <pt x="71" y="0" on="1"/>
        <pt x="72" y="48" on="0"/>
        <pt x="75" y="121" on="0"/>
        <pt x="77" y="200" on="0"/>
        <pt x="79" y="302" on="0"/>
        <pt x="79" y="379" on="1"/>
        <pt x="79" y="456" on="0"/>
        <pt x="77" y="619" on="0"/>
        <pt x="74" y="700" on="1"/>
        <pt x="500" y="700" on="1"/>
        <pt x="500" y="602" on="1"/>
        <pt x="211" y="602" on="1"/>
        <pt x="209" y="563" on="0"/>
        <pt x="209" y="464" on="0"/>
        <pt x="209" y="401" on="1"/>
        <pt x="469" y="401" on="1"/>
      </contour>
      <contour>
        <pt x="464" y="782" on="1"/>
        <pt x="416" y="783" on="0"/>
        <pt x="341" y="786" on="0"/>
        <pt x="294" y="786" on="1"/>
        <pt x="247" y="786" on="0"/>
        <pt x="171" y="785" on="0"/>
        <pt x="124" y="782" on="1"/>
        <pt x="127" y="864" on="1"/>
        <pt x="174" y="862" on="0"/>
        <pt x="249" y="860" on="0"/>
        <pt x="297" y="860" on="1"/>
        <pt x="344" y="860" on="0"/>
        <pt x="420" y="862" on="0"/>
        <pt x="468" y="864" on="1"/>
      </contour>
    </TTGlyph>
    <TTGlyph name="Eng" xMin="71" yMin="-230" xMax="646" yMax="712">
      <contour>
        <pt x="646" y="700" on="1"/>
        <pt x="643" y="668" on="0"/>
        <pt x="640" y="601" on="0"/>
        <pt x="639" y="520" on="0"/>
        <pt x="638" y="420" on="0"/>
        <pt x="638" y="356" on="1"/>
        <pt x="638" y="296" on="0"/>
        <pt x="638" y="213" on="0"/>
        <pt x="639" y="146" on="0"/>
        <pt x="639" y="84" on="0"/>
        <pt x="639" y="45" on="1"/>
        <pt x="639" y="6" on="0"/>
        <pt x="633" y="-52" on="0"/>
        <pt x="624" y="-95" on="0"/>
        <pt x="613" y="-126" on="0"/>
        <pt x="607" y="-138" on="1"/>
        <pt x="587" y="-179" on="0"/>
        <pt x="520" y="-217" on="0"/>
        <pt x="480" y="-230" on="1"/>
        <pt x="404" y="-133" on="1"/>
        <pt x="429" y="-130" on="0"/>
        <pt x="468" y="-115" on="0"/>
        <pt x="497" y="-83" on="0"/>
        <pt x="514" y="-30" on="0"/>
        <pt x="517" y="10" on="1"/>
        <pt x="440" y="-12" on="1"/>
        <pt x="373" y="122" on="0"/>
        <pt x="248" y="425" on="0"/>
        <pt x="200" y="580" on="1"/>
        <pt x="200" y="561" on="0"/>
        <pt x="199" y="508" on="0"/>
        <pt x="199" y="448" on="0"/>
        <pt x="199" y="385" on="0"/>
        <pt x="199" y="356" on="1"/>
        <pt x="199" y="296" on="0"/>
        <pt x="201" y="199" on="0"/>
        <pt x="203" y="115" on="0"/>
        <pt x="206" y="39" on="0"/>
        <pt x="207" y="0" on="1"/>
        <pt x="71" y="0" on="1"/>
        <pt x="72" y="48" on="0"/>
        <pt x="75" y="121" on="0"/>
        <pt x="77" y="200" on="0"/>
        <pt x="79" y="302" on="0"/>
        <pt x="79" y="379" on="1"/>
        <pt x="79" y="456" on="0"/>
        <pt x="77" y="609" on="0"/>
        <pt x="74" y="690" on="1"/>
        <pt x="295" y="712" on="1"/>
        <pt x="326" y="581" on="0"/>
        <pt x="433" y="269" on="0"/>
        <pt x="514" y="89" on="1"/>
        <pt x="516" y="137" on="0"/>
        <pt x="518" y="281" on="0"/>
        <pt x="518" y="379" on="1"/>
        <pt x="518" y="456" on="0"/>
        <pt x="511" y="609" on="0"/>
        <pt x="508" y="690" on="1"/>
      </contour>
    </TTGlyph>
    <TTGlyph name="Eogonek" xMin="71" yMin="-230" xMax="519" yMax="700">
      <contour>
        <pt x="469" y="309" on="1"/>
        <pt x="209" y="309" on="1"/>
        <pt x="209" y="246" on="0"/>
        <pt x="209" y="143" on="0"/>
        <pt x="210" y="98" on="1"/>
        <pt x="519" y="98" on="1"/>
        <pt x="519" y="0" on="1"/>
        <pt x="363" y="0" on="1"/>
        <pt x="346" y="-22" on="0"/>
        <pt x="316" y="-87" on="0"/>
        <pt x="316" y="-121" on="1"/>
        <pt x="316" y="-143" on="0"/>
        <pt x="334" y="-167" on="0"/>
        <pt x="355" y="-167" on="1"/>
        <pt x="372" y="-167" on="0"/>
        <pt x="409" y="-150" on="0"/>
        <pt x="421" y="-134" on="1"/>
        <pt x="436" y="-179" on="1"/>
        <pt x="420" y="-202" on="0"/>
        <pt x="371" y="-230" on="0"/>
        <pt x="329" y="-230" on="1"/>
        <pt x="299" y="-230" on="0"/>
        <pt x="258" y="-215" on="0"/>
        <pt x="233" y="-190" on="0"/>
        <pt x="222" y="-157" on="0"/>
        <pt x="222" y="-140" on="1"/>
        <pt x="222" y="-117" on="0"/>
        <pt x="238" y="-75" on="0"/>
        <pt x="262" y="-39" on="0"/>
        <pt x="290" y="-10" on="0"/>
        <pt x="302" y="0" on="1"/>
        <pt x="71" y="0" on="1"/>
        <pt x="72" y="48" on="0"/>
        <pt x="75" y="121" on="0"/>
        <pt x="77" y="200" on="0"/>
        <pt x="79" y="302" on="0"/>
        <pt x="79" y="379" on="1"/>
        <pt x="79" y="456" on="0"/>
        <pt x="77" y="619" on="0"/>
        <pt x="74" y="700" on="1"/>
        <pt x="500" y="700" on="1"/>
        <pt x="500" y="602" on="1"/>
        <pt x="211" y="602" on="1"/>
        <pt x="209" y="563" on="0"/>
        <pt x="209" y="464" on="0"/>
        <pt x="209" y="401" on="1"/>
        <pt x="469" y="401" on="1"/>
      </contour>
    </TTGlyph>
    <TTGlyph name="Eth" xMin="19" yMin="-12" xMax="640" yMax="712">
      <contour>
        <pt x="80" y="690" on="1"/>
        <pt x="120" y="698" on="0"/>
        <pt x="237" y="712" on="0"/>
        <pt x="307" y="712" on="1"/>
        <pt x="386" y="712" on="0"/>
        <pt x="509" y="663" on="0"/>
        <pt x="595" y="573" on="0"/>
        <pt x="640" y="445" on="0"/>
        <pt x="640" y="367" on="1"/>
        <pt x="640" y="285" on="0"/>
        <pt x="589" y="146" on="0"/>
        <pt x="496" y="45" on="0"/>
        <pt x="366" y="-12" on="0"/>
        <pt x="286" y="-12" on="1"/>
        <pt x="217" y="-12" on="0"/>
        <pt x="110" y="-5" on="0"/>
        <pt x="77" y="0" on="1"/>
        <pt x="78" y="42" on="0"/>
        <pt x="80" y="107" on="0"/>
        <pt x="83" y="175" on="0"/>
        <pt x="85" y="254" on="0"/>
        <pt x="85" y="310" on="1"/>
        <pt x="19" y="307" on="1"/>
        <pt x="22" y="389" on="1"/>
        <pt x="85" y="386" on="1"/>
        <pt x="85" y="461" on="0"/>
        <pt x="83" y="610" on="0"/>
      </contour>
      <contour>
        <pt x="359" y="307" on="1"/>
        <pt x="317" y="308" on="0"/>
        <pt x="252" y="310" on="0"/>
        <pt x="215" y="311" on="1"/>
        <pt x="215" y="242" on="0"/>
        <pt x="215" y="128" on="0"/>
        <pt x="216" y="80" on="1"/>
        <pt x="237" y="70" on="0"/>
        <pt x="262" y="70" on="1"/>
        <pt x="313" y="70" on="0"/>
        <pt x="402" y="102" on="0"/>
        <pt x="468" y="172" on="0"/>
        <pt x="506" y="281" on="0"/>
        <pt x="506" y="359" on="1"/>
        <pt x="506" y="435" on="0"/>
        <pt x="477" y="536" on="0"/>
        <pt x="421" y="597" on="0"/>
        <pt x="342" y="622" on="0"/>
        <pt x="293" y="622" on="1"/>
        <pt x="276" y="622" on="0"/>
        <pt x="237" y="615" on="0"/>
        <pt x="217" y="610" on="1"/>
        <pt x="215" y="566" on="0"/>
        <pt x="215" y="457" on="0"/>
        <pt x="215" y="385" on="1"/>
        <pt x="253" y="385" on="0"/>
        <pt x="321" y="387" on="0"/>
        <pt x="363" y="389" on="1"/>
      </contour>
    </TTGlyph>
    <TTGlyph name="Etilde" xMin="71" yMin="0" xMax="519" yMax="913">
      <contour>
        <pt x="469" y="309" on="1"/>
        <pt x="209" y="309" on="1"/>
        <pt x="209" y="246" on="0"/>
        <pt x="209" y="143" on="0"/>
        <pt x="210" y="98" on="1"/>
        <pt x="519" y="98" on="1"/>
        <pt x="519" y="0" on="1"/>
        <pt x="71" y="0" on="1"/>
        <pt x="72" y="48" on="0"/>
        <pt x="75" y="121" on="0"/>
        <pt x="77" y="200" on="0"/>
        <pt x="79" y="302" on="0"/>
        <pt x="79" y="379" on="1"/>
        <pt x="79" y="456" on="0"/>
        <pt x="77" y="619" on="0"/>
        <pt x="74" y="700" on="1"/>
        <pt x="500" y="700" on="1"/>
        <pt x="500" y="602" on="1"/>
        <pt x="211" y="602" on="1"/>
        <pt x="209" y="563" on="0"/>
        <pt x="209" y="464" on="0"/>
        <pt x="209" y="401" on="1"/>
        <pt x="469" y="401" on="1"/>
      </contour>
      <contour>
        <pt x="478" y="877" on="1"/>
        <pt x="422" y="770" on="0"/>
        <pt x="363" y="770" on="1"/>
        <pt x="343" y="770" on="0"/>
        <pt x="308" y="787" on="0"/>
        <pt x="275" y="806" on="0"/>
        <pt x="245" y="823" on="0"/>
        <pt x="230" y="823" on="1"/>
        <pt x="194" y="823" on="0"/>
        <pt x="169" y="774" on="1"/>
        <pt x="115" y="806" on="1"/>
        <pt x="171" y="913" on="0"/>
        <pt x="230" y="913" on="1"/>
        <pt x="250" y="913" on="0"/>
        <pt x="285" y="896" on="0"/>
        <pt x="318" y="877" on="0"/>
        <pt x="348" y="860" on="0"/>
        <pt x="363" y="860" on="1"/>
        <pt x="399" y="860" on="0"/>
        <pt x="424" y="909" on="1"/>
      </contour>
    </TTGlyph>
    <TTGlyph name="Euro" xMin="36" yMin="-12" xMax="575" yMax="712">
      <contour>
        <pt x="406" y="218" on="1"/>
        <pt x="373" y="219" on="0"/>
        <pt x="292" y="221" on="0"/>
        <pt x="253" y="221" on="1"/>
        <pt x="268" y="144" on="0"/>
        <pt x="342" y="75" on="0"/>
        <pt x="401" y="75" on="1"/>
        <pt x="410" y="75" on="0"/>
        <pt x="432" y="78" on="0"/>
        <pt x="458" y="89" on="0"/>
        <pt x="487" y="112" on="0"/>
        <pt x="503" y="132" on="1"/>
        <pt x="568" y="78" on="1"/>
        <pt x="561" y="68" on="0"/>
        <pt x="532" y="37" on="0"/>
        <pt x="487" y="9" on="0"/>
        <pt x="425" y="-12" on="0"/>
        <pt x="385" y="-12" on="1"/>
        <pt x="340" y="-12" on="0"/>
        <pt x="258" y="17" on="0"/>
        <pt x="190" y="76" on="0"/>
        <pt x="138" y="163" on="0"/>
        <pt x="125" y="221" on="1"/>
        <pt x="78" y="221" on="0"/>
        <pt x="36" y="218" on="1"/>
        <pt x="41" y="310" on="1"/>
        <pt x="75" y="307" on="0"/>
        <pt x="113" y="307" on="1"/>
        <pt x="112" y="316" on="0"/>
        <pt x="112" y="335" on="0"/>
        <pt x="112" y="345" on="1"/>
        <pt x="112" y="357" on="0"/>
        <pt x="112" y="381" on="0"/>
        <pt x="113" y="392" on="1"/>
        <pt x="93" y="392" on="0"/>
        <pt x="55" y="390" on="0"/>
        <pt x="36" y="389" on="1"/>
        <pt x="41" y="481" on="1"/>
        <pt x="61" y="479" on="0"/>
        <pt x="104" y="478" on="0"/>
        <pt x="127" y="477" on="1"/>
        <pt x="142" y="535" on="0"/>
        <pt x="197" y="624" on="0"/>
        <pt x="270" y="682" on="0"/>
        <pt x="360" y="712" on="0"/>
        <pt x="409" y="712" on="1"/>
        <pt x="458" y="712" on="0"/>
        <pt x="537" y="674" on="0"/>
        <pt x="575" y="620" on="1"/>
        <pt x="556" y="604" on="0"/>
        <pt x="542" y="593" on="1"/>
        <pt x="530" y="582" on="0"/>
        <pt x="509" y="566" on="0"/>
        <pt x="510" y="566" on="1"/>
        <pt x="489" y="602" on="0"/>
        <pt x="439" y="624" on="0"/>
        <pt x="413" y="624" on="1"/>
        <pt x="359" y="624" on="0"/>
        <pt x="278" y="558" on="0"/>
        <pt x="258" y="477" on="1"/>
        <pt x="296" y="477" on="0"/>
        <pt x="380" y="479" on="0"/>
        <pt x="412" y="481" on="1"/>
        <pt x="406" y="389" on="1"/>
        <pt x="371" y="390" on="0"/>
        <pt x="286" y="392" on="0"/>
        <pt x="245" y="392" on="1"/>
        <pt x="244" y="379" on="0"/>
        <pt x="244" y="344" on="0"/>
        <pt x="244" y="306" on="1"/>
        <pt x="285" y="306" on="0"/>
        <pt x="377" y="308" on="0"/>
        <pt x="412" y="310" on="1"/>
      </contour>
    </TTGlyph>
    <TTGlyph name="F" xMin="71" yMin="0" xMax="499" yMax="700">
      <contour>
        <pt x="457" y="299" on="1"/>
        <pt x="209" y="299" on="1"/>
        <pt x="209" y="207" on="0"/>
        <pt x="210" y="66" on="0"/>
        <pt x="212" y="0" on="1"/>
        <pt x="71" y="0" on="1"/>
        <pt x="72" y="48" on="0"/>
        <pt x="75" y="121" on="0"/>
        <pt x="77" y="200" on="0"/>
        <pt x="79" y="302" on="0"/>
        <pt x="79" y="379" on="1"/>
        <pt x="79" y="456" on="0"/>
        <pt x="77" y="619" on="0"/>
        <pt x="74" y="700" on="1"/>
        <pt x="499" y="700" on="1"/>
        <pt x="499" y="602" on="1"/>
        <pt x="211" y="602" on="1"/>
        <pt x="209" y="560" on="0"/>
        <pt x="209" y="458" on="0"/>
        <pt x="209" y="391" on="1"/>
        <pt x="457" y="391" on="1"/>
      </contour>
    </TTGlyph>
    <TTGlyph name="G" xMin="41" yMin="-12" xMax="614" yMax="712">
      <contour>
        <pt x="614" y="322" on="1"/>
        <pt x="611" y="308" on="0"/>
        <pt x="608" y="278" on="0"/>
        <pt x="607" y="243" on="0"/>
        <pt x="606" y="199" on="0"/>
        <pt x="606" y="171" on="1"/>
        <pt x="606" y="113" on="0"/>
        <pt x="607" y="37" on="0"/>
        <pt x="609" y="0" on="1"/>
        <pt x="563" y="-12" on="1"/>
        <pt x="527" y="48" on="1"/>
        <pt x="487" y="22" on="0"/>
        <pt x="373" y="-12" on="0"/>
        <pt x="315" y="-12" on="1"/>
        <pt x="262" y="-12" on="0"/>
        <pt x="163" y="14" on="0"/>
        <pt x="87" y="87" on="0"/>
        <pt x="41" y="217" on="0"/>
        <pt x="41" y="321" on="1"/>
        <pt x="41" y="519" on="0"/>
        <pt x="207" y="712" on="0"/>
        <pt x="362" y="712" on="1"/>
        <pt x="386" y="712" on="0"/>
        <pt x="426" y="708" on="0"/>
        <pt x="460" y="704" on="0"/>
        <pt x="492" y="700" on="0"/>
        <pt x="508" y="700" on="1"/>
        <pt x="524" y="700" on="0"/>
        <pt x="558" y="705" on="0"/>
        <pt x="578" y="711" on="1"/>
        <pt x="589" y="481" on="1"/>
        <pt x="478" y="468" on="1"/>
        <pt x="479" y="475" on="0"/>
        <pt x="479" y="488" on="0"/>
        <pt x="479" y="495" on="1"/>
        <pt x="479" y="521" on="0"/>
        <pt x="469" y="569" on="0"/>
        <pt x="443" y="606" on="0"/>
        <pt x="397" y="628" on="0"/>
        <pt x="362" y="628" on="1"/>
        <pt x="172" y="628" on="0"/>
        <pt x="172" y="349" on="1"/>
        <pt x="172" y="282" on="0"/>
        <pt x="195" y="188" on="0"/>
        <pt x="240" y="128" on="0"/>
        <pt x="307" y="100" on="0"/>
        <pt x="350" y="100" on="1"/>
        <pt x="386" y="100" on="0"/>
        <pt x="451" y="120" on="0"/>
        <pt x="483" y="137" on="1"/>
        <pt x="483" y="237" on="1"/>
        <pt x="361" y="231" on="1"/>
        <pt x="352" y="322" on="1"/>
        <pt x="614" y="322" on="1"/>
      </contour>
    </TTGlyph>
    <TTGlyph name="Gbreve" xMin="41" yMin="-12" xMax="614" yMax="928">
      <contour>
        <pt x="614" y="322" on="1"/>
        <pt x="611" y="308" on="0"/>
        <pt x="608" y="278" on="0"/>
        <pt x="607" y="243" on="0"/>
        <pt x="606" y="199" on="0"/>
        <pt x="606" y="171" on="1"/>
        <pt x="606" y="113" on="0"/>
        <pt x="607" y="37" on="0"/>
        <pt x="609" y="0" on="1"/>
        <pt x="563" y="-12" on="1"/>
        <pt x="527" y="48" on="1"/>
        <pt x="487" y="22" on="0"/>
        <pt x="373" y="-12" on="0"/>
        <pt x="315" y="-12" on="1"/>
        <pt x="262" y="-12" on="0"/>
        <pt x="163" y="14" on="0"/>
        <pt x="87" y="87" on="0"/>
        <pt x="41" y="217" on="0"/>
        <pt x="41" y="321" on="1"/>
        <pt x="41" y="519" on="0"/>
        <pt x="207" y="712" on="0"/>
        <pt x="362" y="712" on="1"/>
        <pt x="386" y="712" on="0"/>
        <pt x="426" y="708" on="0"/>
        <pt x="460" y="704" on="0"/>
        <pt x="492" y="700" on="0"/>
        <pt x="508" y="700" on="1"/>
        <pt x="524" y="700" on="0"/>
        <pt x="558" y="705" on="0"/>
        <pt x="578" y="711" on="1"/>
        <pt x="589" y="481" on="1"/>
        <pt x="478" y="468" on="1"/>
        <pt x="479" y="475" on="0"/>
        <pt x="479" y="488" on="0"/>
        <pt x="479" y="495" on="1"/>
        <pt x="479" y="521" on="0"/>
        <pt x="469" y="569" on="0"/>
        <pt x="443" y="606" on="0"/>
        <pt x="397" y="628" on="0"/>
        <pt x="362" y="628" on="1"/>
        <pt x="172" y="628" on="0"/>
        <pt x="172" y="349" on="1"/>
        <pt x="172" y="282" on="0"/>
        <pt x="195" y="188" on="0"/>
        <pt x="240" y="128" on="0"/>
        <pt x="307" y="100" on="0"/>
        <pt x="350" y="100" on="1"/>
        <pt x="386" y="100" on="0"/>
        <pt x="451" y="120" on="0"/>
        <pt x="483" y="137" on="1"/>
        <pt x="483" y="237" on="1"/>
        <pt x="361" y="231" on="1"/>
        <pt x="352" y="322" on="1"/>
      </contour>
      <contour>
        <pt x="528" y="928" on="1"/>
        <pt x="528" y="892" on="0"/>
        <pt x="502" y="837" on="0"/>
        <pt x="456" y="800" on="0"/>
        <pt x="394" y="781" on="0"/>
        <pt x="357" y="781" on="1"/>
        <pt x="279" y="781" on="0"/>
        <pt x="196" y="861" on="0"/>
        <pt x="196" y="928" on="1"/>
        <pt x="287" y="928" on="1"/>
        <pt x="287" y="898" on="0"/>
        <pt x="330" y="856" on="0"/>
        <pt x="362" y="856" on="1"/>
        <pt x="393" y="856" on="0"/>
        <pt x="438" y="898" on="0"/>
        <pt x="438" y="928" on="1"/>
      </contour>
    </TTGlyph>
    <TTGlyph name="Gcircumflex" xMin="41" yMin="-12" xMax="614" yMax="930">
      <contour>
        <pt x="614" y="322" on="1"/>
        <pt x="611" y="308" on="0"/>
        <pt x="608" y="278" on="0"/>
        <pt x="607" y="243" on="0"/>
        <pt x="606" y="199" on="0"/>
        <pt x="606" y="171" on="1"/>
        <pt x="606" y="113" on="0"/>
        <pt x="607" y="37" on="0"/>
        <pt x="609" y="0" on="1"/>
        <pt x="563" y="-12" on="1"/>
        <pt x="527" y="48" on="1"/>
        <pt x="487" y="22" on="0"/>
        <pt x="373" y="-12" on="0"/>
        <pt x="315" y="-12" on="1"/>
        <pt x="262" y="-12" on="0"/>
        <pt x="163" y="14" on="0"/>
        <pt x="87" y="87" on="0"/>
        <pt x="41" y="217" on="0"/>
        <pt x="41" y="321" on="1"/>
        <pt x="41" y="519" on="0"/>
        <pt x="207" y="712" on="0"/>
        <pt x="362" y="712" on="1"/>
        <pt x="386" y="712" on="0"/>
        <pt x="426" y="708" on="0"/>
        <pt x="460" y="704" on="0"/>
        <pt x="492" y="700" on="0"/>
        <pt x="508" y="700" on="1"/>
        <pt x="524" y="700" on="0"/>
        <pt x="558" y="705" on="0"/>
        <pt x="578" y="711" on="1"/>
        <pt x="589" y="481" on="1"/>
        <pt x="478" y="468" on="1"/>
        <pt x="479" y="475" on="0"/>
        <pt x="479" y="488" on="0"/>
        <pt x="479" y="495" on="1"/>
        <pt x="479" y="521" on="0"/>
        <pt x="469" y="569" on="0"/>
        <pt x="443" y="606" on="0"/>
        <pt x="397" y="628" on="0"/>
        <pt x="362" y="628" on="1"/>
        <pt x="172" y="628" on="0"/>
        <pt x="172" y="349" on="1"/>
        <pt x="172" y="282" on="0"/>
        <pt x="195" y="188" on="0"/>
        <pt x="240" y="128" on="0"/>
        <pt x="307" y="100" on="0"/>
        <pt x="350" y="100" on="1"/>
        <pt x="386" y="100" on="0"/>
        <pt x="451" y="120" on="0"/>
        <pt x="483" y="137" on="1"/>
        <pt x="483" y="237" on="1"/>
        <pt x="361" y="231" on="1"/>
        <pt x="352" y="322" on="1"/>
      </contour>
      <contour>
        <pt x="284" y="930" on="1"/>
        <pt x="295" y="928" on="0"/>
        <pt x="339" y="923" on="0"/>
        <pt x="357" y="923" on="1"/>
        <pt x="375" y="923" on="0"/>
        <pt x="419" y="928" on="0"/>
        <pt x="430" y="930" on="1"/>
        <pt x="544" y="803" on="1"/>
        <pt x="480" y="781" on="1"/>
        <pt x="357" y="854" on="1"/>
        <pt x="234" y="781" on="1"/>
        <pt x="170" y="803" on="1"/>
      </contour>
    </TTGlyph>
    <TTGlyph name="Gcommaaccent" xMin="41" yMin="-250" xMax="614" yMax="712">
      <contour>
        <pt x="614" y="322" on="1"/>
        <pt x="611" y="308" on="0"/>
        <pt x="608" y="278" on="0"/>
        <pt x="607" y="243" on="0"/>
        <pt x="606" y="199" on="0"/>
        <pt x="606" y="171" on="1"/>
        <pt x="606" y="113" on="0"/>
        <pt x="607" y="37" on="0"/>
        <pt x="609" y="0" on="1"/>
        <pt x="563" y="-12" on="1"/>
        <pt x="527" y="48" on="1"/>
        <pt x="487" y="22" on="0"/>
        <pt x="373" y="-12" on="0"/>
        <pt x="315" y="-12" on="1"/>
        <pt x="262" y="-12" on="0"/>
        <pt x="163" y="14" on="0"/>
        <pt x="87" y="87" on="0"/>
        <pt x="41" y="217" on="0"/>
        <pt x="41" y="321" on="1"/>
        <pt x="41" y="519" on="0"/>
        <pt x="207" y="712" on="0"/>
        <pt x="362" y="712" on="1"/>
        <pt x="386" y="712" on="0"/>
        <pt x="426" y="708" on="0"/>
        <pt x="460" y="704" on="0"/>
        <pt x="492" y="700" on="0"/>
        <pt x="508" y="700" on="1"/>
        <pt x="524" y="700" on="0"/>
        <pt x="558" y="705" on="0"/>
        <pt x="578" y="711" on="1"/>
        <pt x="589" y="481" on="1"/>
        <pt x="478" y="468" on="1"/>
        <pt x="479" y="475" on="0"/>
        <pt x="479" y="488" on="0"/>
        <pt x="479" y="495" on="1"/>
        <pt x="479" y="521" on="0"/>
        <pt x="469" y="569" on="0"/>
        <pt x="443" y="606" on="0"/>
        <pt x="397" y="628" on="0"/>
        <pt x="362" y="628" on="1"/>
        <pt x="172" y="628" on="0"/>
        <pt x="172" y="349" on="1"/>
        <pt x="172" y="282" on="0"/>
        <pt x="195" y="188" on="0"/>
        <pt x="240" y="128" on="0"/>
        <pt x="307" y="100" on="0"/>
        <pt x="350" y="100" on="1"/>
        <pt x="386" y="100" on="0"/>
        <pt x="451" y="120" on="0"/>
        <pt x="483" y="137" on="1"/>
        <pt x="483" y="237" on="1"/>
        <pt x="361" y="231" on="1"/>
        <pt x="352" y="322" on="1"/>
      </contour>
      <contour>
        <pt x="295" y="-105" on="1"/>
        <pt x="297" y="-78" on="0"/>
        <pt x="338" y="-51" on="0"/>
        <pt x="361" y="-51" on="1"/>
        <pt x="390" y="-51" on="0"/>
        <pt x="421" y="-87" on="0"/>
        <pt x="421" y="-110" on="1"/>
        <pt x="421" y="-126" on="0"/>
        <pt x="407" y="-161" on="0"/>
        <pt x="384" y="-198" on="0"/>
        <pt x="356" y="-234" on="0"/>
        <pt x="342" y="-250" on="1"/>
        <pt x="297" y="-224" on="1"/>
        <pt x="310" y="-208" on="0"/>
        <pt x="334" y="-168" on="0"/>
        <pt x="334" y="-148" on="1"/>
        <pt x="334" y="-134" on="0"/>
        <pt x="316" y="-112" on="0"/>
      </contour>
    </TTGlyph>
    <TTGlyph name="Gdotaccent" xMin="41" yMin="-12" xMax="614" yMax="906">
      <contour>
        <pt x="614" y="322" on="1"/>
        <pt x="611" y="308" on="0"/>
        <pt x="608" y="278" on="0"/>
        <pt x="607" y="243" on="0"/>
        <pt x="606" y="199" on="0"/>
        <pt x="606" y="171" on="1"/>
        <pt x="606" y="113" on="0"/>
        <pt x="607" y="37" on="0"/>
        <pt x="609" y="0" on="1"/>
        <pt x="563" y="-12" on="1"/>
        <pt x="527" y="48" on="1"/>
        <pt x="487" y="22" on="0"/>
        <pt x="373" y="-12" on="0"/>
        <pt x="315" y="-12" on="1"/>
        <pt x="262" y="-12" on="0"/>
        <pt x="163" y="14" on="0"/>
        <pt x="87" y="87" on="0"/>
        <pt x="41" y="217" on="0"/>
        <pt x="41" y="321" on="1"/>
        <pt x="41" y="519" on="0"/>
        <pt x="207" y="712" on="0"/>
        <pt x="362" y="712" on="1"/>
        <pt x="386" y="712" on="0"/>
        <pt x="426" y="708" on="0"/>
        <pt x="460" y="704" on="0"/>
        <pt x="492" y="700" on="0"/>
        <pt x="508" y="700" on="1"/>
        <pt x="524" y="700" on="0"/>
        <pt x="558" y="705" on="0"/>
        <pt x="578" y="711" on="1"/>
        <pt x="589" y="481" on="1"/>
        <pt x="478" y="468" on="1"/>
        <pt x="479" y="475" on="0"/>
        <pt x="479" y="488" on="0"/>
        <pt x="479" y="495" on="1"/>
        <pt x="479" y="521" on="0"/>
        <pt x="469" y="569" on="0"/>
        <pt x="443" y="606" on="0"/>
        <pt x="397" y="628" on="0"/>
        <pt x="362" y="628" on="1"/>
        <pt x="172" y="628" on="0"/>
        <pt x="172" y="349" on="1"/>
        <pt x="172" y="282" on="0"/>
        <pt x="195" y="188" on="0"/>
        <pt x="240" y="128" on="0"/>
        <pt x="307" y="100" on="0"/>
        <pt x="350" y="100" on="1"/>
        <pt x="386" y="100" on="0"/>
        <pt x="451" y="120" on="0"/>
        <pt x="483" y="137" on="1"/>
        <pt x="483" y="237" on="1"/>
        <pt x="361" y="231" on="1"/>
        <pt x="352" y="322" on="1"/>
      </contour>
      <contour>
        <pt x="289" y="838" on="1"/>
        <pt x="289" y="866" on="0"/>
        <pt x="327" y="906" on="0"/>
        <pt x="360" y="906" on="1"/>
        <pt x="389" y="906" on="0"/>
        <pt x="429" y="873" on="0"/>
        <pt x="429" y="846" on="1"/>
        <pt x="429" y="819" on="0"/>
        <pt x="390" y="781" on="0"/>
        <pt x="357" y="781" on="1"/>
        <pt x="328" y="781" on="0"/>
        <pt x="289" y="810" on="0"/>
      </contour>
    </TTGlyph>
    <TTGlyph name="H" xMin="71" yMin="0" xMax="641" yMax="700">
      <contour>
        <pt x="641" y="700" on="1"/>
        <pt x="638" y="668" on="0"/>
        <pt x="635" y="601" on="0"/>
        <pt x="634" y="520" on="0"/>
        <pt x="633" y="420" on="0"/>
        <pt x="633" y="356" on="1"/>
        <pt x="633" y="296" on="0"/>
        <pt x="633" y="199" on="0"/>
        <pt x="634" y="115" on="0"/>
        <pt x="635" y="39" on="0"/>
        <pt x="636" y="0" on="1"/>
        <pt x="495" y="0" on="1"/>
        <pt x="496" y="42" on="0"/>
        <pt x="498" y="107" on="0"/>
        <pt x="501" y="175" on="0"/>
        <pt x="503" y="253" on="0"/>
        <pt x="503" y="309" on="1"/>
        <pt x="209" y="309" on="1"/>
        <pt x="209" y="261" on="0"/>
        <pt x="209" y="178" on="0"/>
        <pt x="210" y="103" on="0"/>
        <pt x="211" y="34" on="0"/>
        <pt x="212" y="0" on="1"/>
        <pt x="71" y="0" on="1"/>
        <pt x="72" y="48" on="0"/>
        <pt x="75" y="121" on="0"/>
        <pt x="77" y="200" on="0"/>
        <pt x="79" y="302" on="0"/>
        <pt x="79" y="379" on="1"/>
        <pt x="79" y="456" on="0"/>
        <pt x="77" y="609" on="0"/>
        <pt x="74" y="690" on="1"/>
        <pt x="217" y="700" on="1"/>
        <pt x="214" y="671" on="0"/>
        <pt x="211" y="610" on="0"/>
        <pt x="210" y="539" on="0"/>
        <pt x="209" y="454" on="0"/>
        <pt x="209" y="401" on="1"/>
        <pt x="503" y="401" on="1"/>
        <pt x="503" y="472" on="0"/>
        <pt x="500" y="615" on="0"/>
        <pt x="498" y="690" on="1"/>
      </contour>
    </TTGlyph>
    <TTGlyph name="Hbar" xMin="38" yMin="0" xMax="682" yMax="700">
      <contour>
        <pt x="646" y="700" on="1"/>
        <pt x="644" y="674" on="0"/>
        <pt x="641" y="623" on="0"/>
        <pt x="640" y="594" on="1"/>
        <pt x="650" y="594" on="0"/>
        <pt x="671" y="594" on="0"/>
        <pt x="682" y="595" on="1"/>
        <pt x="678" y="527" on="1"/>
        <pt x="638" y="527" on="1"/>
        <pt x="638" y="356" on="1"/>
        <pt x="638" y="296" on="0"/>
        <pt x="638" y="199" on="0"/>
        <pt x="639" y="115" on="0"/>
        <pt x="640" y="39" on="0"/>
        <pt x="641" y="0" on="1"/>
        <pt x="500" y="0" on="1"/>
        <pt x="501" y="42" on="0"/>
        <pt x="503" y="107" on="0"/>
        <pt x="506" y="175" on="0"/>
        <pt x="508" y="253" on="0"/>
        <pt x="508" y="309" on="1"/>
        <pt x="214" y="309" on="1"/>
        <pt x="214" y="261" on="0"/>
        <pt x="214" y="178" on="0"/>
        <pt x="215" y="103" on="0"/>
        <pt x="216" y="34" on="0"/>
        <pt x="217" y="0" on="1"/>
        <pt x="76" y="0" on="1"/>
        <pt x="77" y="48" on="0"/>
        <pt x="80" y="121" on="0"/>
        <pt x="82" y="200" on="0"/>
        <pt x="84" y="302" on="0"/>
        <pt x="84" y="379" on="1"/>
        <pt x="84" y="417" on="0"/>
        <pt x="83" y="490" on="0"/>
        <pt x="83" y="528" on="1"/>
        <pt x="72" y="528" on="0"/>
        <pt x="49" y="527" on="0"/>
        <pt x="38" y="527" on="1"/>
        <pt x="41" y="595" on="1"/>
        <pt x="52" y="594" on="0"/>
        <pt x="71" y="594" on="0"/>
        <pt x="82" y="594" on="1"/>
        <pt x="78" y="690" on="1"/>
        <pt x="222" y="700" on="1"/>
        <pt x="220" y="674" on="0"/>
        <pt x="216" y="621" on="0"/>
        <pt x="215" y="591" on="1"/>
        <pt x="505" y="591" on="1"/>
        <pt x="505" y="616" on="0"/>
        <pt x="505" y="664" on="0"/>
        <pt x="503" y="690" on="1"/>
      </contour>
      <contour>
        <pt x="214" y="531" on="1"/>
        <pt x="214" y="401" on="1"/>
        <pt x="508" y="401" on="1"/>
        <pt x="508" y="433" on="0"/>
        <pt x="507" y="497" on="0"/>
        <pt x="507" y="530" on="1"/>
        <pt x="472" y="530" on="0"/>
        <pt x="400" y="531" on="0"/>
        <pt x="358" y="531" on="1"/>
      </contour>
    </TTGlyph>
    <TTGlyph name="Hcircumflex" xMin="71" yMin="0" xMax="641" yMax="930">
      <contour>
        <pt x="641" y="700" on="1"/>
        <pt x="638" y="668" on="0"/>
        <pt x="635" y="601" on="0"/>
        <pt x="634" y="520" on="0"/>
        <pt x="633" y="420" on="0"/>
        <pt x="633" y="356" on="1"/>
        <pt x="633" y="296" on="0"/>
        <pt x="633" y="199" on="0"/>
        <pt x="634" y="115" on="0"/>
        <pt x="635" y="39" on="0"/>
        <pt x="636" y="0" on="1"/>
        <pt x="495" y="0" on="1"/>
        <pt x="496" y="42" on="0"/>
        <pt x="498" y="107" on="0"/>
        <pt x="501" y="175" on="0"/>
        <pt x="503" y="253" on="0"/>
        <pt x="503" y="309" on="1"/>
        <pt x="209" y="309" on="1"/>
        <pt x="209" y="261" on="0"/>
        <pt x="209" y="178" on="0"/>
        <pt x="210" y="103" on="0"/>
        <pt x="211" y="34" on="0"/>
        <pt x="212" y="0" on="1"/>
        <pt x="71" y="0" on="1"/>
        <pt x="72" y="48" on="0"/>
        <pt x="75" y="121" on="0"/>
        <pt x="77" y="200" on="0"/>
        <pt x="79" y="302" on="0"/>
        <pt x="79" y="379" on="1"/>
        <pt x="79" y="456" on="0"/>
        <pt x="77" y="609" on="0"/>
        <pt x="74" y="690" on="1"/>
        <pt x="217" y="700" on="1"/>
        <pt x="214" y="671" on="0"/>
        <pt x="211" y="610" on="0"/>
        <pt x="210" y="539" on="0"/>
        <pt x="209" y="454" on="0"/>
        <pt x="209" y="401" on="1"/>
        <pt x="503" y="401" on="1"/>
        <pt x="503" y="472" on="0"/>
        <pt x="500" y="615" on="0"/>
        <pt x="498" y="690" on="1"/>
      </contour>
      <contour>
        <pt x="285" y="930" on="1"/>
        <pt x="296" y="928" on="0"/>
        <pt x="340" y="923" on="0"/>
        <pt x="358" y="923" on="1"/>
        <pt x="376" y="923" on="0"/>
        <pt x="420" y="928" on="0"/>
        <pt x="431" y="930" on="1"/>
        <pt x="545" y="803" on="1"/>
        <pt x="481" y="781" on="1"/>
        <pt x="358" y="854" on="1"/>
        <pt x="235" y="781" on="1"/>
        <pt x="171" y="803" on="1"/>
      </contour>
    </TTGlyph>
    <TTGlyph name="Hdotbelow" xMin="71" yMin="-197" xMax="641" yMax="700">
      <contour>
        <pt x="641" y="700" on="1"/>
        <pt x="638" y="668" on="0"/>
        <pt x="635" y="601" on="0"/>
        <pt x="634" y="520" on="0"/>
        <pt x="633" y="420" on="0"/>
        <pt x="633" y="356" on="1"/>
        <pt x="633" y="296" on="0"/>
        <pt x="633" y="199" on="0"/>
        <pt x="634" y="115" on="0"/>
        <pt x="635" y="39" on="0"/>
        <pt x="636" y="0" on="1"/>
        <pt x="495" y="0" on="1"/>
        <pt x="496" y="42" on="0"/>
        <pt x="498" y="107" on="0"/>
        <pt x="501" y="175" on="0"/>
        <pt x="503" y="253" on="0"/>
        <pt x="503" y="309" on="1"/>
        <pt x="209" y="309" on="1"/>
        <pt x="209" y="261" on="0"/>
        <pt x="209" y="178" on="0"/>
        <pt x="210" y="103" on="0"/>
        <pt x="211" y="34" on="0"/>
        <pt x="212" y="0" on="1"/>
        <pt x="71" y="0" on="1"/>
        <pt x="72" y="48" on="0"/>
        <pt x="75" y="121" on="0"/>
        <pt x="77" y="200" on="0"/>
        <pt x="79" y="302" on="0"/>
        <pt x="79" y="379" on="1"/>
        <pt x="79" y="456" on="0"/>
        <pt x="77" y="609" on="0"/>
        <pt x="74" y="690" on="1"/>
        <pt x="217" y="700" on="1"/>
        <pt x="214" y="671" on="0"/>
        <pt x="211" y="610" on="0"/>
        <pt x="210" y="539" on="0"/>
        <pt x="209" y="454" on="0"/>
        <pt x="209" y="401" on="1"/>
        <pt x="503" y="401" on="1"/>
        <pt x="503" y="472" on="0"/>
        <pt x="500" y="615" on="0"/>
        <pt x="498" y="690" on="1"/>
      </contour>
      <contour>
        <pt x="292" y="-143" on="1"/>
        <pt x="292" y="-117" on="0"/>
        <pt x="327" y="-80" on="0"/>
        <pt x="358" y="-80" on="1"/>
        <pt x="384" y="-80" on="0"/>
        <pt x="423" y="-111" on="0"/>
        <pt x="423" y="-137" on="1"/>
        <pt x="423" y="-162" on="0"/>
        <pt x="389" y="-197" on="0"/>
        <pt x="358" y="-197" on="1"/>
        <pt x="332" y="-197" on="0"/>
        <pt x="292" y="-169" on="0"/>
      </contour>
    </TTGlyph>
    <TTGlyph name="I" xMin="71" yMin="0" xMax="217" yMax="700">
      <contour>
        <pt x="217" y="700" on="1"/>
        <pt x="214" y="668" on="0"/>
        <pt x="211" y="601" on="0"/>
        <pt x="210" y="520" on="0"/>
        <pt x="209" y="420" on="0"/>
        <pt x="209" y="356" on="1"/>
        <pt x="209" y="296" on="0"/>
        <pt x="209" y="199" on="0"/>
        <pt x="210" y="115" on="0"/>
        <pt x="211" y="39" on="0"/>
        <pt x="212" y="0" on="1"/>
        <pt x="71" y="0" on="1"/>
        <pt x="72" y="48" on="0"/>
        <pt x="75" y="121" on="0"/>
        <pt x="77" y="200" on="0"/>
        <pt x="79" y="302" on="0"/>
        <pt x="79" y="379" on="1"/>
        <pt x="79" y="456" on="0"/>
        <pt x="77" y="609" on="0"/>
        <pt x="74" y="690" on="1"/>
      </contour>
    </TTGlyph>
    <TTGlyph name="IJ" xMin="71" yMin="-147" xMax="504" yMax="700">
      <contour>
        <pt x="217" y="700" on="1"/>
        <pt x="214" y="668" on="0"/>
        <pt x="211" y="601" on="0"/>
        <pt x="210" y="520" on="0"/>
        <pt x="209" y="420" on="0"/>
        <pt x="209" y="356" on="1"/>
        <pt x="209" y="296" on="0"/>
        <pt x="209" y="199" on="0"/>
        <pt x="210" y="115" on="0"/>
        <pt x="211" y="39" on="0"/>
        <pt x="212" y="0" on="1"/>
        <pt x="71" y="0" on="1"/>
        <pt x="72" y="48" on="0"/>
        <pt x="75" y="121" on="0"/>
        <pt x="77" y="200" on="0"/>
        <pt x="79" y="302" on="0"/>
        <pt x="79" y="379" on="1"/>
        <pt x="79" y="456" on="0"/>
        <pt x="77" y="609" on="0"/>
        <pt x="74" y="690" on="1"/>
      </contour>
      <contour>
        <pt x="366" y="505" on="1"/>
        <pt x="366" y="555" on="0"/>
        <pt x="363" y="639" on="0"/>
        <pt x="361" y="690" on="1"/>
        <pt x="504" y="700" on="1"/>
        <pt x="500" y="655" on="0"/>
        <pt x="497" y="574" on="0"/>
        <pt x="497" y="542" on="1"/>
        <pt x="497" y="491" on="0"/>
        <pt x="495" y="384" on="0"/>
        <pt x="493" y="280" on="0"/>
        <pt x="489" y="182" on="0"/>
        <pt x="487" y="140" on="1"/>
        <pt x="485" y="101" on="0"/>
        <pt x="479" y="43" on="0"/>
        <pt x="471" y="0" on="0"/>
        <pt x="461" y="-31" on="0"/>
        <pt x="455" y="-43" on="1"/>
        <pt x="435" y="-85" on="0"/>
        <pt x="368" y="-134" on="0"/>
        <pt x="328" y="-147" on="1"/>
        <pt x="252" y="-50" on="1"/>
        <pt x="279" y="-47" on="0"/>
        <pt x="322" y="-24" on="0"/>
        <pt x="351" y="21" on="0"/>
        <pt x="366" y="91" on="0"/>
        <pt x="366" y="142" on="1"/>
      </contour>
    </TTGlyph>
    <TTGlyph name="Iacute" xMin="71" yMin="0" xMax="363" yMax="920">
      <contour>
        <pt x="217" y="700" on="1"/>
        <pt x="214" y="668" on="0"/>
        <pt x="211" y="601" on="0"/>
        <pt x="210" y="520" on="0"/>
        <pt x="209" y="420" on="0"/>
        <pt x="209" y="356" on="1"/>
        <pt x="209" y="296" on="0"/>
        <pt x="209" y="199" on="0"/>
        <pt x="210" y="115" on="0"/>
        <pt x="211" y="39" on="0"/>
        <pt x="212" y="0" on="1"/>
        <pt x="71" y="0" on="1"/>
        <pt x="72" y="48" on="0"/>
        <pt x="75" y="121" on="0"/>
        <pt x="77" y="200" on="0"/>
        <pt x="79" y="302" on="0"/>
        <pt x="79" y="379" on="1"/>
        <pt x="79" y="456" on="0"/>
        <pt x="77" y="609" on="0"/>
        <pt x="74" y="690" on="1"/>
      </contour>
      <contour>
        <pt x="363" y="908" on="1"/>
        <pt x="191" y="781" on="1"/>
        <pt x="112" y="793" on="1"/>
        <pt x="231" y="920" on="1"/>
      </contour>
    </TTGlyph>
    <TTGlyph name="Ibreve" xMin="-17" yMin="0" xMax="315" yMax="928">
      <contour>
        <pt x="217" y="700" on="1"/>
        <pt x="214" y="668" on="0"/>
        <pt x="211" y="601" on="0"/>
        <pt x="210" y="520" on="0"/>
        <pt x="209" y="420" on="0"/>
        <pt x="209" y="356" on="1"/>
        <pt x="209" y="296" on="0"/>
        <pt x="209" y="199" on="0"/>
        <pt x="210" y="115" on="0"/>
        <pt x="211" y="39" on="0"/>
        <pt x="212" y="0" on="1"/>
        <pt x="71" y="0" on="1"/>
        <pt x="72" y="48" on="0"/>
        <pt x="75" y="121" on="0"/>
        <pt x="77" y="200" on="0"/>
        <pt x="79" y="302" on="0"/>
        <pt x="79" y="379" on="1"/>
        <pt x="79" y="456" on="0"/>
        <pt x="77" y="609" on="0"/>
        <pt x="74" y="690" on="1"/>
      </contour>
      <contour>
        <pt x="315" y="928" on="1"/>
        <pt x="315" y="892" on="0"/>
        <pt x="289" y="837" on="0"/>
        <pt x="243" y="800" on="0"/>
        <pt x="181" y="781" on="0"/>
        <pt x="144" y="781" on="1"/>
        <pt x="66" y="781" on="0"/>
        <pt x="-17" y="861" on="0"/>
        <pt x="-17" y="928" on="1"/>
        <pt x="74" y="928" on="1"/>
        <pt x="74" y="898" on="0"/>
        <pt x="117" y="856" on="0"/>
        <pt x="149" y="856" on="1"/>
        <pt x="180" y="856" on="0"/>
        <pt x="225" y="898" on="0"/>
        <pt x="225" y="928" on="1"/>
      </contour>
    </TTGlyph>
    <TTGlyph name="Icircumflex" xMin="-43" yMin="0" xMax="331" yMax="930">
      <contour>
        <pt x="217" y="700" on="1"/>
        <pt x="214" y="668" on="0"/>
        <pt x="211" y="601" on="0"/>
        <pt x="210" y="520" on="0"/>
        <pt x="209" y="420" on="0"/>
        <pt x="209" y="356" on="1"/>
        <pt x="209" y="296" on="0"/>
        <pt x="209" y="199" on="0"/>
        <pt x="210" y="115" on="0"/>
        <pt x="211" y="39" on="0"/>
        <pt x="212" y="0" on="1"/>
        <pt x="71" y="0" on="1"/>
        <pt x="72" y="48" on="0"/>
        <pt x="75" y="121" on="0"/>
        <pt x="77" y="200" on="0"/>
        <pt x="79" y="302" on="0"/>
        <pt x="79" y="379" on="1"/>
        <pt x="79" y="456" on="0"/>
        <pt x="77" y="609" on="0"/>
        <pt x="74" y="690" on="1"/>
      </contour>
      <contour>
        <pt x="71" y="930" on="1"/>
        <pt x="82" y="928" on="0"/>
        <pt x="126" y="923" on="0"/>
        <pt x="144" y="923" on="1"/>
        <pt x="162" y="923" on="0"/>
        <pt x="206" y="928" on="0"/>
        <pt x="217" y="930" on="1"/>
        <pt x="331" y="803" on="1"/>
        <pt x="267" y="781" on="1"/>
        <pt x="144" y="854" on="1"/>
        <pt x="21" y="781" on="1"/>
        <pt x="-43" y="803" on="1"/>
      </contour>
    </TTGlyph>
    <TTGlyph name="Idieresis" xMin="-17" yMin="0" xMax="303" yMax="900">
      <contour>
        <pt x="217" y="700" on="1"/>
        <pt x="214" y="668" on="0"/>
        <pt x="211" y="601" on="0"/>
        <pt x="210" y="520" on="0"/>
        <pt x="209" y="420" on="0"/>
        <pt x="209" y="356" on="1"/>
        <pt x="209" y="296" on="0"/>
        <pt x="209" y="199" on="0"/>
        <pt x="210" y="115" on="0"/>
        <pt x="211" y="39" on="0"/>
        <pt x="212" y="0" on="1"/>
        <pt x="71" y="0" on="1"/>
        <pt x="72" y="48" on="0"/>
        <pt x="75" y="121" on="0"/>
        <pt x="77" y="200" on="0"/>
        <pt x="79" y="302" on="0"/>
        <pt x="79" y="379" on="1"/>
        <pt x="79" y="456" on="0"/>
        <pt x="77" y="609" on="0"/>
        <pt x="74" y="690" on="1"/>
      </contour>
      <contour>
        <pt x="-17" y="837" on="1"/>
        <pt x="-17" y="862" on="0"/>
        <pt x="16" y="900" on="0"/>
        <pt x="42" y="900" on="1"/>
        <pt x="66" y="900" on="0"/>
        <pt x="101" y="868" on="0"/>
        <pt x="101" y="842" on="1"/>
        <pt x="101" y="816" on="0"/>
        <pt x="67" y="781" on="0"/>
        <pt x="39" y="781" on="1"/>
        <pt x="16" y="781" on="0"/>
        <pt x="-17" y="810" on="0"/>
      </contour>
      <contour>
        <pt x="185" y="837" on="1"/>
        <pt x="185" y="862" on="0"/>
        <pt x="217" y="900" on="0"/>
        <pt x="245" y="900" on="1"/>
        <pt x="268" y="900" on="0"/>
        <pt x="303" y="868" on="0"/>
        <pt x="303" y="842" on="1"/>
        <pt x="303" y="816" on="0"/>
        <pt x="269" y="781" on="0"/>
        <pt x="241" y="781" on="1"/>
        <pt x="218" y="781" on="0"/>
        <pt x="185" y="810" on="0"/>
      </contour>
    </TTGlyph>
    <TTGlyph name="Idotaccent" xMin="71" yMin="0" xMax="217" yMax="906">
      <contour>
        <pt x="217" y="700" on="1"/>
        <pt x="214" y="668" on="0"/>
        <pt x="211" y="601" on="0"/>
        <pt x="210" y="520" on="0"/>
        <pt x="209" y="420" on="0"/>
        <pt x="209" y="356" on="1"/>
        <pt x="209" y="296" on="0"/>
        <pt x="209" y="199" on="0"/>
        <pt x="210" y="115" on="0"/>
        <pt x="211" y="39" on="0"/>
        <pt x="212" y="0" on="1"/>
        <pt x="71" y="0" on="1"/>
        <pt x="72" y="48" on="0"/>
        <pt x="75" y="121" on="0"/>
        <pt x="77" y="200" on="0"/>
        <pt x="79" y="302" on="0"/>
        <pt x="79" y="379" on="1"/>
        <pt x="79" y="456" on="0"/>
        <pt x="77" y="609" on="0"/>
        <pt x="74" y="690" on="1"/>
      </contour>
      <contour>
        <pt x="76" y="838" on="1"/>
        <pt x="76" y="866" on="0"/>
        <pt x="114" y="906" on="0"/>
        <pt x="147" y="906" on="1"/>
        <pt x="176" y="906" on="0"/>
        <pt x="216" y="873" on="0"/>
        <pt x="216" y="846" on="1"/>
        <pt x="216" y="819" on="0"/>
        <pt x="177" y="781" on="0"/>
        <pt x="144" y="781" on="1"/>
        <pt x="115" y="781" on="0"/>
        <pt x="76" y="810" on="0"/>
      </contour>
    </TTGlyph>
    <TTGlyph name="Idotbelow" xMin="71" yMin="-197" xMax="217" yMax="700">
      <contour>
        <pt x="217" y="700" on="1"/>
        <pt x="214" y="668" on="0"/>
        <pt x="211" y="601" on="0"/>
        <pt x="210" y="520" on="0"/>
        <pt x="209" y="420" on="0"/>
        <pt x="209" y="356" on="1"/>
        <pt x="209" y="296" on="0"/>
        <pt x="209" y="199" on="0"/>
        <pt x="210" y="115" on="0"/>
        <pt x="211" y="39" on="0"/>
        <pt x="212" y="0" on="1"/>
        <pt x="71" y="0" on="1"/>
        <pt x="72" y="48" on="0"/>
        <pt x="75" y="121" on="0"/>
        <pt x="77" y="200" on="0"/>
        <pt x="79" y="302" on="0"/>
        <pt x="79" y="379" on="1"/>
        <pt x="79" y="456" on="0"/>
        <pt x="77" y="609" on="0"/>
        <pt x="74" y="690" on="1"/>
      </contour>
      <contour>
        <pt x="78" y="-143" on="1"/>
        <pt x="78" y="-117" on="0"/>
        <pt x="113" y="-80" on="0"/>
        <pt x="144" y="-80" on="1"/>
        <pt x="170" y="-80" on="0"/>
        <pt x="209" y="-111" on="0"/>
        <pt x="209" y="-137" on="1"/>
        <pt x="209" y="-162" on="0"/>
        <pt x="175" y="-197" on="0"/>
        <pt x="144" y="-197" on="1"/>
        <pt x="118" y="-197" on="0"/>
        <pt x="78" y="-169" on="0"/>
      </contour>
    </TTGlyph>
    <TTGlyph name="Igrave" xMin="-69" yMin="0" xMax="217" yMax="920">
      <contour>
        <pt x="217" y="700" on="1"/>
        <pt x="214" y="668" on="0"/>
        <pt x="211" y="601" on="0"/>
        <pt x="210" y="520" on="0"/>
        <pt x="209" y="420" on="0"/>
        <pt x="209" y="356" on="1"/>
        <pt x="209" y="296" on="0"/>
        <pt x="209" y="199" on="0"/>
        <pt x="210" y="115" on="0"/>
        <pt x="211" y="39" on="0"/>
        <pt x="212" y="0" on="1"/>
        <pt x="71" y="0" on="1"/>
        <pt x="72" y="48" on="0"/>
        <pt x="75" y="121" on="0"/>
        <pt x="77" y="200" on="0"/>
        <pt x="79" y="302" on="0"/>
        <pt x="79" y="379" on="1"/>
        <pt x="79" y="456" on="0"/>
        <pt x="77" y="609" on="0"/>
        <pt x="74" y="690" on="1"/>
      </contour>
      <contour>
        <pt x="63" y="920" on="1"/>
        <pt x="182" y="792" on="1"/>
        <pt x="103" y="780" on="1"/>
        <pt x="-69" y="908" on="1"/>
      </contour>
    </TTGlyph>
    <TTGlyph name="Imacron" xMin="-28" yMin="0" xMax="316" yMax="863">
      <contour>
        <pt x="217" y="700" on="1"/>
        <pt x="214" y="668" on="0"/>
        <pt x="211" y="601" on="0"/>
        <pt x="210" y="520" on="0"/>
        <pt x="209" y="420" on="0"/>
        <pt x="209" y="356" on="1"/>
        <pt x="209" y="296" on="0"/>
        <pt x="209" y="199" on="0"/>
        <pt x="210" y="115" on="0"/>
        <pt x="211" y="39" on="0"/>
        <pt x="212" y="0" on="1"/>
        <pt x="71" y="0" on="1"/>
        <pt x="72" y="48" on="0"/>
        <pt x="75" y="121" on="0"/>
        <pt x="77" y="200" on="0"/>
        <pt x="79" y="302" on="0"/>
        <pt x="79" y="379" on="1"/>
        <pt x="79" y="456" on="0"/>
        <pt x="77" y="609" on="0"/>
        <pt x="74" y="690" on="1"/>
      </contour>
      <contour>
        <pt x="312" y="781" on="1"/>
        <pt x="264" y="782" on="0"/>
        <pt x="189" y="785" on="0"/>
        <pt x="142" y="785" on="1"/>
        <pt x="95" y="785" on="0"/>
        <pt x="19" y="784" on="0"/>
        <pt x="-28" y="781" on="1"/>
        <pt x="-25" y="863" on="1"/>
        <pt x="22" y="861" on="0"/>
        <pt x="97" y="859" on="0"/>
        <pt x="145" y="859" on="1"/>
        <pt x="192" y="859" on="0"/>
        <pt x="268" y="861" on="0"/>
        <pt x="316" y="863" on="1"/>
      </contour>
    </TTGlyph>
    <TTGlyph name="Iogonek" xMin="21" yMin="-230" xMax="235" yMax="700">
      <contour>
        <pt x="217" y="700" on="1"/>
        <pt x="214" y="668" on="0"/>
        <pt x="211" y="601" on="0"/>
        <pt x="210" y="520" on="0"/>
        <pt x="209" y="420" on="0"/>
        <pt x="209" y="356" on="1"/>
        <pt x="209" y="296" on="0"/>
        <pt x="209" y="199" on="0"/>
        <pt x="210" y="115" on="0"/>
        <pt x="211" y="39" on="0"/>
        <pt x="212" y="0" on="1"/>
        <pt x="162" y="0" on="1"/>
        <pt x="145" y="-22" on="0"/>
        <pt x="115" y="-87" on="0"/>
        <pt x="115" y="-121" on="1"/>
        <pt x="115" y="-143" on="0"/>
        <pt x="133" y="-167" on="0"/>
        <pt x="154" y="-167" on="1"/>
        <pt x="171" y="-167" on="0"/>
        <pt x="208" y="-150" on="0"/>
        <pt x="220" y="-134" on="1"/>
        <pt x="235" y="-179" on="1"/>
        <pt x="219" y="-202" on="0"/>
        <pt x="170" y="-230" on="0"/>
        <pt x="128" y="-230" on="1"/>
        <pt x="98" y="-230" on="0"/>
        <pt x="57" y="-215" on="0"/>
        <pt x="32" y="-190" on="0"/>
        <pt x="21" y="-157" on="0"/>
        <pt x="21" y="-140" on="1"/>
        <pt x="21" y="-117" on="0"/>
        <pt x="37" y="-75" on="0"/>
        <pt x="61" y="-39" on="0"/>
        <pt x="89" y="-10" on="0"/>
        <pt x="101" y="0" on="1"/>
        <pt x="71" y="0" on="1"/>
        <pt x="72" y="48" on="0"/>
        <pt x="75" y="121" on="0"/>
        <pt x="77" y="200" on="0"/>
        <pt x="79" y="302" on="0"/>
        <pt x="79" y="379" on="1"/>
        <pt x="79" y="456" on="0"/>
        <pt x="77" y="609" on="0"/>
        <pt x="74" y="690" on="1"/>
      </contour>
    </TTGlyph>
    <TTGlyph name="Itilde" xMin="-37" yMin="0" xMax="326" yMax="912">
      <contour>
        <pt x="217" y="700" on="1"/>
        <pt x="214" y="668" on="0"/>
        <pt x="211" y="601" on="0"/>
        <pt x="210" y="520" on="0"/>
        <pt x="209" y="420" on="0"/>
        <pt x="209" y="356" on="1"/>
        <pt x="209" y="296" on="0"/>
        <pt x="209" y="199" on="0"/>
        <pt x="210" y="115" on="0"/>
        <pt x="211" y="39" on="0"/>
        <pt x="212" y="0" on="1"/>
        <pt x="71" y="0" on="1"/>
        <pt x="72" y="48" on="0"/>
        <pt x="75" y="121" on="0"/>
        <pt x="77" y="200" on="0"/>
        <pt x="79" y="302" on="0"/>
        <pt x="79" y="379" on="1"/>
        <pt x="79" y="456" on="0"/>
        <pt x="77" y="609" on="0"/>
        <pt x="74" y="690" on="1"/>
      </contour>
      <contour>
        <pt x="326" y="876" on="1"/>
        <pt x="270" y="769" on="0"/>
        <pt x="211" y="769" on="1"/>
        <pt x="191" y="769" on="0"/>
        <pt x="156" y="786" on="0"/>
        <pt x="123" y="805" on="0"/>
        <pt x="93" y="822" on="0"/>
        <pt x="78" y="822" on="1"/>
        <pt x="42" y="822" on="0"/>
        <pt x="17" y="773" on="1"/>
        <pt x="-37" y="805" on="1"/>
        <pt x="19" y="912" on="0"/>
        <pt x="78" y="912" on="1"/>
        <pt x="98" y="912" on="0"/>
        <pt x="133" y="895" on="0"/>
        <pt x="166" y="876" on="0"/>
        <pt x="196" y="859" on="0"/>
        <pt x="211" y="859" on="1"/>
        <pt x="247" y="859" on="0"/>
        <pt x="272" y="908" on="1"/>
      </contour>
    </TTGlyph>
    <TTGlyph name="J" xMin="-35" yMin="-147" xMax="217" yMax="700">
      <contour>
        <pt x="79" y="505" on="1"/>
        <pt x="79" y="555" on="0"/>
        <pt x="76" y="639" on="0"/>
        <pt x="74" y="690" on="1"/>
        <pt x="217" y="700" on="1"/>
        <pt x="213" y="655" on="0"/>
        <pt x="210" y="574" on="0"/>
        <pt x="210" y="542" on="1"/>
        <pt x="210" y="491" on="0"/>
        <pt x="208" y="384" on="0"/>
        <pt x="206" y="280" on="0"/>
        <pt x="202" y="182" on="0"/>
        <pt x="200" y="140" on="1"/>
        <pt x="198" y="101" on="0"/>
        <pt x="192" y="43" on="0"/>
        <pt x="184" y="0" on="0"/>
        <pt x="174" y="-31" on="0"/>
        <pt x="168" y="-43" on="1"/>
        <pt x="148" y="-85" on="0"/>
        <pt x="81" y="-134" on="0"/>
        <pt x="41" y="-147" on="1"/>
        <pt x="-35" y="-50" on="1"/>
        <pt x="-8" y="-47" on="0"/>
        <pt x="35" y="-24" on="0"/>
        <pt x="64" y="21" on="0"/>
        <pt x="79" y="91" on="0"/>
        <pt x="79" y="142" on="1"/>
      </contour>
    </TTGlyph>
    <TTGlyph name="Jcircumflex" xMin="-42" yMin="-147" xMax="332" yMax="931">
      <contour>
        <pt x="79" y="505" on="1"/>
        <pt x="79" y="555" on="0"/>
        <pt x="76" y="639" on="0"/>
        <pt x="74" y="690" on="1"/>
        <pt x="217" y="700" on="1"/>
        <pt x="213" y="655" on="0"/>
        <pt x="210" y="574" on="0"/>
        <pt x="210" y="542" on="1"/>
        <pt x="210" y="491" on="0"/>
        <pt x="208" y="384" on="0"/>
        <pt x="206" y="280" on="0"/>
        <pt x="202" y="182" on="0"/>
        <pt x="200" y="140" on="1"/>
        <pt x="198" y="101" on="0"/>
        <pt x="192" y="43" on="0"/>
        <pt x="184" y="0" on="0"/>
        <pt x="174" y="-31" on="0"/>
        <pt x="168" y="-43" on="1"/>
        <pt x="148" y="-85" on="0"/>
        <pt x="81" y="-134" on="0"/>
        <pt x="41" y="-147" on="1"/>
        <pt x="-35" y="-50" on="1"/>
        <pt x="-8" y="-47" on="0"/>
        <pt x="35" y="-24" on="0"/>
        <pt x="64" y="21" on="0"/>
        <pt x="79" y="91" on="0"/>
        <pt x="79" y="142" on="1"/>
      </contour>
      <contour>
        <pt x="72" y="931" on="1"/>
        <pt x="83" y="929" on="0"/>
        <pt x="127" y="924" on="0"/>
        <pt x="145" y="924" on="1"/>
        <pt x="163" y="924" on="0"/>
        <pt x="207" y="929" on="0"/>
        <pt x="218" y="931" on="1"/>
        <pt x="332" y="804" on="1"/>
        <pt x="268" y="782" on="1"/>
        <pt x="145" y="855" on="1"/>
        <pt x="22" y="782" on="1"/>
        <pt x="-42" y="804" on="1"/>
      </contour>
    </TTGlyph>
    <TTGlyph name="K" xMin="71" yMin="-12" xMax="584" yMax="712">
      <contour>
        <pt x="217" y="700" on="1"/>
        <pt x="214" y="671" on="0"/>
        <pt x="211" y="614" on="0"/>
        <pt x="210" y="540" on="0"/>
        <pt x="209" y="443" on="0"/>
        <pt x="209" y="375" on="1"/>
        <pt x="216" y="376" on="1"/>
        <pt x="244" y="410" on="0"/>
        <pt x="305" y="491" on="0"/>
        <pt x="366" y="578" on="0"/>
        <pt x="426" y="668" on="0"/>
        <pt x="454" y="712" on="1"/>
        <pt x="584" y="700" on="1"/>
        <pt x="574" y="688" on="0"/>
        <pt x="527" y="625" on="0"/>
        <pt x="463" y="538" on="0"/>
        <pt x="388" y="434" on="0"/>
        <pt x="350" y="380" on="1"/>
        <pt x="407" y="375" on="0"/>
        <pt x="487" y="339" on="0"/>
        <pt x="537" y="268" on="0"/>
        <pt x="560" y="162" on="0"/>
        <pt x="560" y="88" on="1"/>
        <pt x="560" y="48" on="0"/>
        <pt x="557" y="0" on="1"/>
        <pt x="418" y="-12" on="1"/>
        <pt x="422" y="26" on="0"/>
        <pt x="425" y="84" on="0"/>
        <pt x="425" y="105" on="1"/>
        <pt x="425" y="205" on="0"/>
        <pt x="353" y="299" on="0"/>
        <pt x="277" y="299" on="1"/>
        <pt x="249" y="299" on="0"/>
        <pt x="209" y="291" on="1"/>
        <pt x="209" y="195" on="0"/>
        <pt x="210" y="60" on="0"/>
        <pt x="212" y="0" on="1"/>
        <pt x="71" y="0" on="1"/>
        <pt x="74" y="68" on="0"/>
        <pt x="77" y="160" on="0"/>
        <pt x="78" y="236" on="0"/>
        <pt x="79" y="311" on="0"/>
        <pt x="79" y="364" on="1"/>
        <pt x="79" y="416" on="0"/>
        <pt x="79" y="504" on="0"/>
        <pt x="77" y="583" on="0"/>
        <pt x="75" y="654" on="0"/>
        <pt x="74" y="690" on="1"/>
      </contour>
    </TTGlyph>
    <TTGlyph name="Kcommaaccent" xMin="71" yMin="-250" xMax="584" yMax="712">
      <contour>
        <pt x="217" y="700" on="1"/>
        <pt x="214" y="671" on="0"/>
        <pt x="211" y="614" on="0"/>
        <pt x="210" y="540" on="0"/>
        <pt x="209" y="443" on="0"/>
        <pt x="209" y="375" on="1"/>
        <pt x="216" y="376" on="1"/>
        <pt x="244" y="410" on="0"/>
        <pt x="305" y="491" on="0"/>
        <pt x="366" y="578" on="0"/>
        <pt x="426" y="668" on="0"/>
        <pt x="454" y="712" on="1"/>
        <pt x="584" y="700" on="1"/>
        <pt x="574" y="688" on="0"/>
        <pt x="527" y="625" on="0"/>
        <pt x="463" y="538" on="0"/>
        <pt x="388" y="434" on="0"/>
        <pt x="350" y="380" on="1"/>
        <pt x="407" y="375" on="0"/>
        <pt x="487" y="339" on="0"/>
        <pt x="537" y="268" on="0"/>
        <pt x="560" y="162" on="0"/>
        <pt x="560" y="88" on="1"/>
        <pt x="560" y="48" on="0"/>
        <pt x="557" y="0" on="1"/>
        <pt x="418" y="-12" on="1"/>
        <pt x="422" y="26" on="0"/>
        <pt x="425" y="84" on="0"/>
        <pt x="425" y="105" on="1"/>
        <pt x="425" y="205" on="0"/>
        <pt x="353" y="299" on="0"/>
        <pt x="277" y="299" on="1"/>
        <pt x="249" y="299" on="0"/>
        <pt x="209" y="291" on="1"/>
        <pt x="209" y="195" on="0"/>
        <pt x="210" y="60" on="0"/>
        <pt x="212" y="0" on="1"/>
        <pt x="71" y="0" on="1"/>
        <pt x="74" y="68" on="0"/>
        <pt x="77" y="160" on="0"/>
        <pt x="78" y="236" on="0"/>
        <pt x="79" y="311" on="0"/>
        <pt x="79" y="364" on="1"/>
        <pt x="79" y="416" on="0"/>
        <pt x="79" y="504" on="0"/>
        <pt x="77" y="583" on="0"/>
        <pt x="75" y="654" on="0"/>
        <pt x="74" y="690" on="1"/>
      </contour>
      <contour>
        <pt x="240" y="-105" on="1"/>
        <pt x="242" y="-78" on="0"/>
        <pt x="283" y="-51" on="0"/>
        <pt x="306" y="-51" on="1"/>
        <pt x="335" y="-51" on="0"/>
        <pt x="366" y="-87" on="0"/>
        <pt x="366" y="-110" on="1"/>
        <pt x="366" y="-126" on="0"/>
        <pt x="352" y="-161" on="0"/>
        <pt x="329" y="-198" on="0"/>
        <pt x="301" y="-234" on="0"/>
        <pt x="287" y="-250" on="1"/>
        <pt x="242" y="-224" on="1"/>
        <pt x="255" y="-208" on="0"/>
        <pt x="279" y="-168" on="0"/>
        <pt x="279" y="-148" on="1"/>
        <pt x="279" y="-134" on="0"/>
        <pt x="261" y="-112" on="0"/>
      </contour>
    </TTGlyph>
    <TTGlyph name="L" xMin="71" yMin="0" xMax="471" yMax="700">
      <contour>
        <pt x="471" y="0" on="1"/>
        <pt x="71" y="0" on="1"/>
        <pt x="72" y="48" on="0"/>
        <pt x="75" y="121" on="0"/>
        <pt x="77" y="200" on="0"/>
        <pt x="79" y="302" on="0"/>
        <pt x="79" y="379" on="1"/>
        <pt x="79" y="456" on="0"/>
        <pt x="77" y="609" on="0"/>
        <pt x="74" y="690" on="1"/>
        <pt x="217" y="700" on="1"/>
        <pt x="214" y="668" on="0"/>
        <pt x="211" y="601" on="0"/>
        <pt x="210" y="520" on="0"/>
        <pt x="209" y="420" on="0"/>
        <pt x="209" y="356" on="1"/>
        <pt x="209" y="274" on="0"/>
        <pt x="209" y="152" on="0"/>
        <pt x="210" y="98" on="1"/>
        <pt x="471" y="98" on="1"/>
      </contour>
    </TTGlyph>
    <TTGlyph name="Lacute" xMin="71" yMin="0" xMax="471" yMax="920">
      <contour>
        <pt x="471" y="0" on="1"/>
        <pt x="71" y="0" on="1"/>
        <pt x="72" y="48" on="0"/>
        <pt x="75" y="121" on="0"/>
        <pt x="77" y="200" on="0"/>
        <pt x="79" y="302" on="0"/>
        <pt x="79" y="379" on="1"/>
        <pt x="79" y="456" on="0"/>
        <pt x="77" y="609" on="0"/>
        <pt x="74" y="690" on="1"/>
        <pt x="217" y="700" on="1"/>
        <pt x="214" y="668" on="0"/>
        <pt x="211" y="601" on="0"/>
        <pt x="210" y="520" on="0"/>
        <pt x="209" y="420" on="0"/>
        <pt x="209" y="356" on="1"/>
        <pt x="209" y="274" on="0"/>
        <pt x="209" y="152" on="0"/>
        <pt x="210" y="98" on="1"/>
        <pt x="471" y="98" on="1"/>
      </contour>
      <contour>
        <pt x="364" y="908" on="1"/>
        <pt x="192" y="781" on="1"/>
        <pt x="113" y="793" on="1"/>
        <pt x="232" y="920" on="1"/>
      </contour>
    </TTGlyph>
    <TTGlyph name="Lcaron" xMin="71" yMin="0" xMax="471" yMax="770">
      <contour>
        <pt x="471" y="0" on="1"/>
        <pt x="71" y="0" on="1"/>
        <pt x="72" y="48" on="0"/>
        <pt x="75" y="121" on="0"/>
        <pt x="77" y="200" on="0"/>
        <pt x="79" y="302" on="0"/>
        <pt x="79" y="379" on="1"/>
        <pt x="79" y="456" on="0"/>
        <pt x="77" y="609" on="0"/>
        <pt x="74" y="690" on="1"/>
        <pt x="217" y="700" on="1"/>
        <pt x="214" y="668" on="0"/>
        <pt x="211" y="601" on="0"/>
        <pt x="210" y="520" on="0"/>
        <pt x="209" y="420" on="0"/>
        <pt x="209" y="356" on="1"/>
        <pt x="209" y="274" on="0"/>
        <pt x="209" y="152" on="0"/>
        <pt x="210" y="98" on="1"/>
        <pt x="471" y="98" on="1"/>
      </contour>
      <contour>
        <pt x="326" y="715" on="1"/>
        <pt x="331" y="737" on="0"/>
        <pt x="360" y="770" on="0"/>
        <pt x="392" y="770" on="1"/>
        <pt x="409" y="770" on="0"/>
        <pt x="430" y="760" on="0"/>
        <pt x="441" y="745" on="0"/>
        <pt x="445" y="726" on="0"/>
        <pt x="445" y="716" on="1"/>
        <pt x="445" y="681" on="0"/>
        <pt x="408" y="612" on="0"/>
        <pt x="370" y="568" on="1"/>
        <pt x="328" y="593" on="1"/>
        <pt x="345" y="622" on="0"/>
        <pt x="360" y="655" on="0"/>
        <pt x="360" y="671" on="1"/>
        <pt x="360" y="705" on="0"/>
      </contour>
    </TTGlyph>
    <TTGlyph name="Lcommaaccent" xMin="71" yMin="-250" xMax="471" yMax="700">
      <contour>
        <pt x="471" y="0" on="1"/>
        <pt x="71" y="0" on="1"/>
        <pt x="72" y="48" on="0"/>
        <pt x="75" y="121" on="0"/>
        <pt x="77" y="200" on="0"/>
        <pt x="79" y="302" on="0"/>
        <pt x="79" y="379" on="1"/>
        <pt x="79" y="456" on="0"/>
        <pt x="77" y="609" on="0"/>
        <pt x="74" y="690" on="1"/>
        <pt x="217" y="700" on="1"/>
        <pt x="214" y="668" on="0"/>
        <pt x="211" y="601" on="0"/>
        <pt x="210" y="520" on="0"/>
        <pt x="209" y="420" on="0"/>
        <pt x="209" y="356" on="1"/>
        <pt x="209" y="274" on="0"/>
        <pt x="209" y="152" on="0"/>
        <pt x="210" y="98" on="1"/>
        <pt x="471" y="98" on="1"/>
      </contour>
      <contour>
        <pt x="208" y="-105" on="1"/>
        <pt x="210" y="-78" on="0"/>
        <pt x="251" y="-51" on="0"/>
        <pt x="274" y="-51" on="1"/>
        <pt x="303" y="-51" on="0"/>
        <pt x="334" y="-87" on="0"/>
        <pt x="334" y="-110" on="1"/>
        <pt x="334" y="-126" on="0"/>
        <pt x="320" y="-161" on="0"/>
        <pt x="297" y="-198" on="0"/>
        <pt x="269" y="-234" on="0"/>
        <pt x="255" y="-250" on="1"/>
        <pt x="210" y="-224" on="1"/>
        <pt x="223" y="-208" on="0"/>
        <pt x="247" y="-168" on="0"/>
        <pt x="247" y="-148" on="1"/>
        <pt x="247" y="-134" on="0"/>
        <pt x="229" y="-112" on="0"/>
      </contour>
    </TTGlyph>
    <TTGlyph name="Ldot" xMin="71" yMin="0" xMax="471" yMax="700">
      <contour>
        <pt x="471" y="0" on="1"/>
        <pt x="71" y="0" on="1"/>
        <pt x="72" y="48" on="0"/>
        <pt x="75" y="121" on="0"/>
        <pt x="77" y="200" on="0"/>
        <pt x="79" y="302" on="0"/>
        <pt x="79" y="379" on="1"/>
        <pt x="79" y="456" on="0"/>
        <pt x="77" y="609" on="0"/>
        <pt x="74" y="690" on="1"/>
        <pt x="217" y="700" on="1"/>
        <pt x="214" y="668" on="0"/>
        <pt x="211" y="601" on="0"/>
        <pt x="210" y="520" on="0"/>
        <pt x="209" y="420" on="0"/>
        <pt x="209" y="356" on="1"/>
        <pt x="209" y="274" on="0"/>
        <pt x="209" y="152" on="0"/>
        <pt x="210" y="98" on="1"/>
        <pt x="471" y="98" on="1"/>
      </contour>
      <contour>
        <pt x="287" y="363" on="1"/>
        <pt x="287" y="393" on="0"/>
        <pt x="330" y="438" on="0"/>
        <pt x="367" y="438" on="1"/>
        <pt x="399" y="438" on="0"/>
        <pt x="446" y="401" on="0"/>
        <pt x="446" y="369" on="1"/>
        <pt x="446" y="338" on="0"/>
        <pt x="401" y="297" on="0"/>
        <pt x="364" y="297" on="1"/>
        <pt x="332" y="297" on="0"/>
        <pt x="287" y="331" on="0"/>
      </contour>
    </TTGlyph>
    <TTGlyph name="Lslash" xMin="7" yMin="0" xMax="481" yMax="700">
      <contour>
        <pt x="481" y="0" on="1"/>
        <pt x="81" y="0" on="1"/>
        <pt x="82" y="41" on="0"/>
        <pt x="84" y="106" on="0"/>
        <pt x="87" y="171" on="0"/>
        <pt x="89" y="248" on="0"/>
        <pt x="89" y="301" on="1"/>
        <pt x="23" y="283" on="1"/>
        <pt x="7" y="374" on="1"/>
        <pt x="42" y="379" on="0"/>
        <pt x="75" y="386" on="0"/>
        <pt x="89" y="388" on="1"/>
        <pt x="89" y="463" on="0"/>
        <pt x="87" y="611" on="0"/>
        <pt x="84" y="690" on="1"/>
        <pt x="227" y="700" on="1"/>
        <pt x="225" y="672" on="0"/>
        <pt x="222" y="613" on="0"/>
        <pt x="220" y="546" on="0"/>
        <pt x="219" y="467" on="0"/>
        <pt x="219" y="418" on="1"/>
        <pt x="241" y="423" on="0"/>
        <pt x="284" y="435" on="0"/>
        <pt x="322" y="445" on="1"/>
        <pt x="337" y="354" on="1"/>
        <pt x="297" y="346" on="0"/>
        <pt x="242" y="336" on="0"/>
        <pt x="219" y="331" on="1"/>
        <pt x="219" y="259" on="0"/>
        <pt x="219" y="146" on="0"/>
        <pt x="220" y="98" on="1"/>
        <pt x="481" y="98" on="1"/>
      </contour>
    </TTGlyph>
    <TTGlyph name="M" xMin="72" yMin="-12" xMax="779" yMax="712">
      <contour>
        <pt x="777" y="712" on="1"/>
        <pt x="772" y="646" on="0"/>
        <pt x="769" y="497" on="0"/>
        <pt x="769" y="403" on="1"/>
        <pt x="769" y="322" on="0"/>
        <pt x="770" y="205" on="0"/>
        <pt x="773" y="114" on="0"/>
        <pt x="776" y="39" on="0"/>
        <pt x="779" y="0" on="1"/>
        <pt x="645" y="0" on="1"/>
        <pt x="646" y="40" on="0"/>
        <pt x="649" y="120" on="0"/>
        <pt x="651" y="213" on="0"/>
        <pt x="652" y="326" on="0"/>
        <pt x="652" y="399" on="1"/>
        <pt x="652" y="474" on="1"/>
        <pt x="660" y="537" on="1"/>
        <pt x="643" y="474" on="1"/>
        <pt x="611" y="356" on="0"/>
        <pt x="536" y="116" on="0"/>
        <pt x="489" y="0" on="1"/>
        <pt x="364" y="-12" on="1"/>
        <pt x="312" y="108" on="0"/>
        <pt x="234" y="361" on="0"/>
        <pt x="201" y="482" on="1"/>
        <pt x="188" y="529" on="1"/>
        <pt x="196" y="482" on="1"/>
        <pt x="196" y="386" on="1"/>
        <pt x="196" y="265" on="0"/>
        <pt x="200" y="78" on="0"/>
        <pt x="202" y="0" on="1"/>
        <pt x="72" y="0" on="1"/>
        <pt x="74" y="48" on="0"/>
        <pt x="77" y="123" on="0"/>
        <pt x="78" y="197" on="0"/>
        <pt x="79" y="281" on="0"/>
        <pt x="79" y="339" on="1"/>
        <pt x="79" y="397" on="0"/>
        <pt x="79" y="490" on="0"/>
        <pt x="77" y="573" on="0"/>
        <pt x="75" y="649" on="0"/>
        <pt x="74" y="690" on="1"/>
        <pt x="249" y="712" on="1"/>
        <pt x="284" y="563" on="0"/>
        <pt x="374" y="266" on="0"/>
        <pt x="424" y="124" on="1"/>
        <pt x="448" y="193" on="0"/>
        <pt x="493" y="329" on="0"/>
        <pt x="534" y="470" on="0"/>
        <pt x="572" y="619" on="0"/>
        <pt x="589" y="700" on="1"/>
      </contour>
    </TTGlyph>
    <TTGlyph name="N" xMin="71" yMin="-12" xMax="646" yMax="712">
      <contour>
        <pt x="646" y="700" on="1"/>
        <pt x="643" y="668" on="0"/>
        <pt x="640" y="601" on="0"/>
        <pt x="639" y="520" on="0"/>
        <pt x="638" y="420" on="0"/>
        <pt x="638" y="356" on="1"/>
        <pt x="638" y="296" on="0"/>
        <pt x="638" y="199" on="0"/>
        <pt x="639" y="115" on="0"/>
        <pt x="640" y="39" on="0"/>
        <pt x="641" y="0" on="1"/>
        <pt x="440" y="-12" on="1"/>
        <pt x="373" y="122" on="0"/>
        <pt x="248" y="425" on="0"/>
        <pt x="200" y="580" on="1"/>
        <pt x="200" y="561" on="0"/>
        <pt x="199" y="508" on="0"/>
        <pt x="199" y="448" on="0"/>
        <pt x="199" y="385" on="0"/>
        <pt x="199" y="356" on="1"/>
        <pt x="199" y="296" on="0"/>
        <pt x="201" y="199" on="0"/>
        <pt x="203" y="115" on="0"/>
        <pt x="206" y="39" on="0"/>
        <pt x="207" y="0" on="1"/>
        <pt x="71" y="0" on="1"/>
        <pt x="72" y="48" on="0"/>
        <pt x="75" y="121" on="0"/>
        <pt x="77" y="200" on="0"/>
        <pt x="79" y="302" on="0"/>
        <pt x="79" y="379" on="1"/>
        <pt x="79" y="456" on="0"/>
        <pt x="77" y="609" on="0"/>
        <pt x="74" y="690" on="1"/>
        <pt x="295" y="712" on="1"/>
        <pt x="326" y="581" on="0"/>
        <pt x="433" y="269" on="0"/>
        <pt x="514" y="89" on="1"/>
        <pt x="516" y="137" on="0"/>
        <pt x="518" y="281" on="0"/>
        <pt x="518" y="379" on="1"/>
        <pt x="518" y="456" on="0"/>
        <pt x="511" y="609" on="0"/>
        <pt x="508" y="690" on="1"/>
      </contour>
    </TTGlyph>
    <TTGlyph name="Nacute" xMin="71" yMin="-12" xMax="646" yMax="922">
      <contour>
        <pt x="646" y="700" on="1"/>
        <pt x="643" y="668" on="0"/>
        <pt x="640" y="601" on="0"/>
        <pt x="639" y="520" on="0"/>
        <pt x="638" y="420" on="0"/>
        <pt x="638" y="356" on="1"/>
        <pt x="638" y="296" on="0"/>
        <pt x="638" y="199" on="0"/>
        <pt x="639" y="115" on="0"/>
        <pt x="640" y="39" on="0"/>
        <pt x="641" y="0" on="1"/>
        <pt x="440" y="-12" on="1"/>
        <pt x="373" y="122" on="0"/>
        <pt x="248" y="425" on="0"/>
        <pt x="200" y="580" on="1"/>
        <pt x="200" y="561" on="0"/>
        <pt x="199" y="508" on="0"/>
        <pt x="199" y="448" on="0"/>
        <pt x="199" y="385" on="0"/>
        <pt x="199" y="356" on="1"/>
        <pt x="199" y="296" on="0"/>
        <pt x="201" y="199" on="0"/>
        <pt x="203" y="115" on="0"/>
        <pt x="206" y="39" on="0"/>
        <pt x="207" y="0" on="1"/>
        <pt x="71" y="0" on="1"/>
        <pt x="72" y="48" on="0"/>
        <pt x="75" y="121" on="0"/>
        <pt x="77" y="200" on="0"/>
        <pt x="79" y="302" on="0"/>
        <pt x="79" y="379" on="1"/>
        <pt x="79" y="456" on="0"/>
        <pt x="77" y="609" on="0"/>
        <pt x="74" y="690" on="1"/>
        <pt x="295" y="712" on="1"/>
        <pt x="326" y="581" on="0"/>
        <pt x="433" y="269" on="0"/>
        <pt x="514" y="89" on="1"/>
        <pt x="516" y="137" on="0"/>
        <pt x="518" y="281" on="0"/>
        <pt x="518" y="379" on="1"/>
        <pt x="518" y="456" on="0"/>
        <pt x="511" y="609" on="0"/>
        <pt x="508" y="690" on="1"/>
      </contour>
      <contour>
        <pt x="566" y="910" on="1"/>
        <pt x="394" y="783" on="1"/>
        <pt x="315" y="795" on="1"/>
        <pt x="434" y="922" on="1"/>
      </contour>
    </TTGlyph>
    <TTGlyph name="Ncaron" xMin="71" yMin="-12" xMax="646" yMax="932">
      <contour>
        <pt x="646" y="700" on="1"/>
        <pt x="643" y="668" on="0"/>
        <pt x="640" y="601" on="0"/>
        <pt x="639" y="520" on="0"/>
        <pt x="638" y="420" on="0"/>
        <pt x="638" y="356" on="1"/>
        <pt x="638" y="296" on="0"/>
        <pt x="638" y="199" on="0"/>
        <pt x="639" y="115" on="0"/>
        <pt x="640" y="39" on="0"/>
        <pt x="641" y="0" on="1"/>
        <pt x="440" y="-12" on="1"/>
        <pt x="373" y="122" on="0"/>
        <pt x="248" y="425" on="0"/>
        <pt x="200" y="580" on="1"/>
        <pt x="200" y="561" on="0"/>
        <pt x="199" y="508" on="0"/>
        <pt x="199" y="448" on="0"/>
        <pt x="199" y="385" on="0"/>
        <pt x="199" y="356" on="1"/>
        <pt x="199" y="296" on="0"/>
        <pt x="201" y="199" on="0"/>
        <pt x="203" y="115" on="0"/>
        <pt x="206" y="39" on="0"/>
        <pt x="207" y="0" on="1"/>
        <pt x="71" y="0" on="1"/>
        <pt x="72" y="48" on="0"/>
        <pt x="75" y="121" on="0"/>
        <pt x="77" y="200" on="0"/>
        <pt x="79" y="302" on="0"/>
        <pt x="79" y="379" on="1"/>
        <pt x="79" y="456" on="0"/>
        <pt x="77" y="609" on="0"/>
        <pt x="74" y="690" on="1"/>
        <pt x="295" y="712" on="1"/>
        <pt x="326" y="581" on="0"/>
        <pt x="433" y="269" on="0"/>
        <pt x="514" y="89" on="1"/>
        <pt x="516" y="137" on="0"/>
        <pt x="518" y="281" on="0"/>
        <pt x="518" y="379" on="1"/>
        <pt x="518" y="456" on="0"/>
        <pt x="511" y="609" on="0"/>
        <pt x="508" y="690" on="1"/>
      </contour>
      <contour>
        <pt x="180" y="910" on="1"/>
        <pt x="244" y="932" on="1"/>
        <pt x="367" y="859" on="1"/>
        <pt x="490" y="932" on="1"/>
        <pt x="554" y="910" on="1"/>
        <pt x="440" y="783" on="1"/>
        <pt x="429" y="785" on="0"/>
        <pt x="385" y="790" on="0"/>
        <pt x="367" y="790" on="1"/>
        <pt x="349" y="790" on="0"/>
        <pt x="305" y="785" on="0"/>
        <pt x="294" y="783" on="1"/>
      </contour>
    </TTGlyph>
    <TTGlyph name="Ncommaaccent" xMin="71" yMin="-250" xMax="646" yMax="712">
      <contour>
        <pt x="646" y="700" on="1"/>
        <pt x="643" y="668" on="0"/>
        <pt x="640" y="601" on="0"/>
        <pt x="639" y="520" on="0"/>
        <pt x="638" y="420" on="0"/>
        <pt x="638" y="356" on="1"/>
        <pt x="638" y="296" on="0"/>
        <pt x="638" y="199" on="0"/>
        <pt x="639" y="115" on="0"/>
        <pt x="640" y="39" on="0"/>
        <pt x="641" y="0" on="1"/>
        <pt x="440" y="-12" on="1"/>
        <pt x="373" y="122" on="0"/>
        <pt x="248" y="425" on="0"/>
        <pt x="200" y="580" on="1"/>
        <pt x="200" y="561" on="0"/>
        <pt x="199" y="508" on="0"/>
        <pt x="199" y="448" on="0"/>
        <pt x="199" y="385" on="0"/>
        <pt x="199" y="356" on="1"/>
        <pt x="199" y="296" on="0"/>
        <pt x="201" y="199" on="0"/>
        <pt x="203" y="115" on="0"/>
        <pt x="206" y="39" on="0"/>
        <pt x="207" y="0" on="1"/>
        <pt x="71" y="0" on="1"/>
        <pt x="72" y="48" on="0"/>
        <pt x="75" y="121" on="0"/>
        <pt x="77" y="200" on="0"/>
        <pt x="79" y="302" on="0"/>
        <pt x="79" y="379" on="1"/>
        <pt x="79" y="456" on="0"/>
        <pt x="77" y="609" on="0"/>
        <pt x="74" y="690" on="1"/>
        <pt x="295" y="712" on="1"/>
        <pt x="326" y="581" on="0"/>
        <pt x="433" y="269" on="0"/>
        <pt x="514" y="89" on="1"/>
        <pt x="516" y="137" on="0"/>
        <pt x="518" y="281" on="0"/>
        <pt x="518" y="379" on="1"/>
        <pt x="518" y="456" on="0"/>
        <pt x="511" y="609" on="0"/>
        <pt x="508" y="690" on="1"/>
      </contour>
      <contour>
        <pt x="310" y="-105" on="1"/>
        <pt x="312" y="-78" on="0"/>
        <pt x="353" y="-51" on="0"/>
        <pt x="376" y="-51" on="1"/>
        <pt x="405" y="-51" on="0"/>
        <pt x="436" y="-87" on="0"/>
        <pt x="436" y="-110" on="1"/>
        <pt x="436" y="-126" on="0"/>
        <pt x="422" y="-161" on="0"/>
        <pt x="399" y="-198" on="0"/>
        <pt x="371" y="-234" on="0"/>
        <pt x="357" y="-250" on="1"/>
        <pt x="312" y="-224" on="1"/>
        <pt x="325" y="-208" on="0"/>
        <pt x="349" y="-168" on="0"/>
        <pt x="349" y="-148" on="1"/>
        <pt x="349" y="-134" on="0"/>
        <pt x="331" y="-112" on="0"/>
      </contour>
    </TTGlyph>
    <TTGlyph name="Ndotaccent" xMin="71" yMin="-12" xMax="646" yMax="908">
      <contour>
        <pt x="646" y="700" on="1"/>
        <pt x="643" y="668" on="0"/>
        <pt x="640" y="601" on="0"/>
        <pt x="639" y="520" on="0"/>
        <pt x="638" y="420" on="0"/>
        <pt x="638" y="356" on="1"/>
        <pt x="638" y="296" on="0"/>
        <pt x="638" y="199" on="0"/>
        <pt x="639" y="115" on="0"/>
        <pt x="640" y="39" on="0"/>
        <pt x="641" y="0" on="1"/>
        <pt x="440" y="-12" on="1"/>
        <pt x="373" y="122" on="0"/>
        <pt x="248" y="425" on="0"/>
        <pt x="200" y="580" on="1"/>
        <pt x="200" y="561" on="0"/>
        <pt x="199" y="508" on="0"/>
        <pt x="199" y="448" on="0"/>
        <pt x="199" y="385" on="0"/>
        <pt x="199" y="356" on="1"/>
        <pt x="199" y="296" on="0"/>
        <pt x="201" y="199" on="0"/>
        <pt x="203" y="115" on="0"/>
        <pt x="206" y="39" on="0"/>
        <pt x="207" y="0" on="1"/>
        <pt x="71" y="0" on="1"/>
        <pt x="72" y="48" on="0"/>
        <pt x="75" y="121" on="0"/>
        <pt x="77" y="200" on="0"/>
        <pt x="79" y="302" on="0"/>
        <pt x="79" y="379" on="1"/>
        <pt x="79" y="456" on="0"/>
        <pt x="77" y="609" on="0"/>
        <pt x="74" y="690" on="1"/>
        <pt x="295" y="712" on="1"/>
        <pt x="326" y="581" on="0"/>
        <pt x="433" y="269" on="0"/>
        <pt x="514" y="89" on="1"/>
        <pt x="516" y="137" on="0"/>
        <pt x="518" y="281" on="0"/>
        <pt x="518" y="379" on="1"/>
        <pt x="518" y="456" on="0"/>
        <pt x="511" y="609" on="0"/>
        <pt x="508" y="690" on="1"/>
      </contour>
      <contour>
        <pt x="302" y="840" on="1"/>
        <pt x="302" y="868" on="0"/>
        <pt x="340" y="908" on="0"/>
        <pt x="373" y="908" on="1"/>
        <pt x="402" y="908" on="0"/>
        <pt x="442" y="875" on="0"/>
        <pt x="442" y="848" on="1"/>
        <pt x="442" y="821" on="0"/>
        <pt x="403" y="783" on="0"/>
        <pt x="370" y="783" on="1"/>
        <pt x="341" y="783" on="0"/>
        <pt x="302" y="812" on="0"/>
      </contour>
    </TTGlyph>
    <TTGlyph name="Ntilde" xMin="71" yMin="-12" xMax="646" yMax="914">
      <contour>
        <pt x="646" y="700" on="1"/>
        <pt x="643" y="668" on="0"/>
        <pt x="640" y="601" on="0"/>
        <pt x="639" y="520" on="0"/>
        <pt x="638" y="420" on="0"/>
        <pt x="638" y="356" on="1"/>
        <pt x="638" y="296" on="0"/>
        <pt x="638" y="199" on="0"/>
        <pt x="639" y="115" on="0"/>
        <pt x="640" y="39" on="0"/>
        <pt x="641" y="0" on="1"/>
        <pt x="440" y="-12" on="1"/>
        <pt x="373" y="122" on="0"/>
        <pt x="248" y="425" on="0"/>
        <pt x="200" y="580" on="1"/>
        <pt x="200" y="561" on="0"/>
        <pt x="199" y="508" on="0"/>
        <pt x="199" y="448" on="0"/>
        <pt x="199" y="385" on="0"/>
        <pt x="199" y="356" on="1"/>
        <pt x="199" y="296" on="0"/>
        <pt x="201" y="199" on="0"/>
        <pt x="203" y="115" on="0"/>
        <pt x="206" y="39" on="0"/>
        <pt x="207" y="0" on="1"/>
        <pt x="71" y="0" on="1"/>
        <pt x="72" y="48" on="0"/>
        <pt x="75" y="121" on="0"/>
        <pt x="77" y="200" on="0"/>
        <pt x="79" y="302" on="0"/>
        <pt x="79" y="379" on="1"/>
        <pt x="79" y="456" on="0"/>
        <pt x="77" y="609" on="0"/>
        <pt x="74" y="690" on="1"/>
        <pt x="295" y="712" on="1"/>
        <pt x="326" y="581" on="0"/>
        <pt x="433" y="269" on="0"/>
        <pt x="514" y="89" on="1"/>
        <pt x="516" y="137" on="0"/>
        <pt x="518" y="281" on="0"/>
        <pt x="518" y="379" on="1"/>
        <pt x="518" y="456" on="0"/>
        <pt x="511" y="609" on="0"/>
        <pt x="508" y="690" on="1"/>
      </contour>
      <contour>
        <pt x="551" y="878" on="1"/>
        <pt x="495" y="771" on="0"/>
        <pt x="436" y="771" on="1"/>
        <pt x="416" y="771" on="0"/>
        <pt x="381" y="788" on="0"/>
        <pt x="348" y="807" on="0"/>
        <pt x="318" y="824" on="0"/>
        <pt x="303" y="824" on="1"/>
        <pt x="267" y="824" on="0"/>
        <pt x="242" y="775" on="1"/>
        <pt x="188" y="807" on="1"/>
        <pt x="244" y="914" on="0"/>
        <pt x="303" y="914" on="1"/>
        <pt x="323" y="914" on="0"/>
        <pt x="358" y="897" on="0"/>
        <pt x="391" y="878" on="0"/>
        <pt x="421" y="861" on="0"/>
        <pt x="436" y="861" on="1"/>
        <pt x="472" y="861" on="0"/>
        <pt x="497" y="910" on="1"/>
      </contour>
    </TTGlyph>
    <TTGlyph name="O" xMin="39" yMin="-12" xMax="647" yMax="712">
      <contour>
        <pt x="345" y="622" on="1"/>
        <pt x="267" y="622" on="0"/>
        <pt x="176" y="480" on="0"/>
        <pt x="176" y="347" on="1"/>
        <pt x="176" y="215" on="0"/>
        <pt x="253" y="76" on="0"/>
        <pt x="340" y="76" on="1"/>
        <pt x="378" y="76" on="0"/>
        <pt x="441" y="115" on="0"/>
        <pt x="486" y="189" on="0"/>
        <pt x="511" y="293" on="0"/>
        <pt x="511" y="359" on="1"/>
        <pt x="511" y="422" on="0"/>
        <pt x="496" y="520" on="0"/>
        <pt x="458" y="587" on="0"/>
        <pt x="394" y="622" on="0"/>
      </contour>
      <contour>
        <pt x="39" y="344" on="1"/>
        <pt x="39" y="425" on="0"/>
        <pt x="83" y="561" on="0"/>
        <pt x="166" y="658" on="0"/>
        <pt x="282" y="712" on="0"/>
        <pt x="354" y="712" on="1"/>
        <pt x="423" y="712" on="0"/>
        <pt x="532" y="663" on="0"/>
        <pt x="607" y="573" on="0"/>
        <pt x="647" y="445" on="0"/>
        <pt x="647" y="367" on="1"/>
        <pt x="647" y="285" on="0"/>
        <pt x="602" y="146" on="0"/>
        <pt x="520" y="45" on="0"/>
        <pt x="404" y="-12" on="0"/>
        <pt x="333" y="-12" on="1"/>
        <pt x="264" y="-12" on="0"/>
        <pt x="155" y="41" on="0"/>
        <pt x="79" y="136" on="0"/>
        <pt x="39" y="266" on="0"/>
      </contour>
    </TTGlyph>
    <TTGlyph name="OE" xMin="39" yMin="-12" xMax="951" yMax="712">
      <contour>
        <pt x="901" y="309" on="1"/>
        <pt x="641" y="309" on="1"/>
        <pt x="641" y="246" on="0"/>
        <pt x="641" y="143" on="0"/>
        <pt x="642" y="98" on="1"/>
        <pt x="951" y="98" on="1"/>
        <pt x="951" y="0" on="1"/>
        <pt x="503" y="0" on="1"/>
        <pt x="503" y="14" on="0"/>
        <pt x="503" y="39" on="0"/>
        <pt x="504" y="50" on="1"/>
        <pt x="469" y="21" on="0"/>
        <pt x="383" y="-12" on="0"/>
        <pt x="333" y="-12" on="1"/>
        <pt x="264" y="-12" on="0"/>
        <pt x="155" y="41" on="0"/>
        <pt x="79" y="136" on="0"/>
        <pt x="39" y="266" on="0"/>
        <pt x="39" y="344" on="1"/>
        <pt x="39" y="425" on="0"/>
        <pt x="83" y="561" on="0"/>
        <pt x="166" y="658" on="0"/>
        <pt x="282" y="712" on="0"/>
        <pt x="354" y="712" on="1"/>
        <pt x="442" y="712" on="0"/>
        <pt x="507" y="664" on="1"/>
        <pt x="507" y="673" on="0"/>
        <pt x="506" y="691" on="0"/>
        <pt x="506" y="700" on="1"/>
        <pt x="932" y="700" on="1"/>
        <pt x="932" y="602" on="1"/>
        <pt x="643" y="602" on="1"/>
        <pt x="641" y="563" on="0"/>
        <pt x="641" y="464" on="0"/>
        <pt x="641" y="401" on="1"/>
        <pt x="901" y="401" on="1"/>
      </contour>
      <contour>
        <pt x="345" y="622" on="1"/>
        <pt x="267" y="622" on="0"/>
        <pt x="176" y="480" on="0"/>
        <pt x="176" y="347" on="1"/>
        <pt x="176" y="215" on="0"/>
        <pt x="253" y="76" on="0"/>
        <pt x="340" y="76" on="1"/>
        <pt x="377" y="76" on="0"/>
        <pt x="439" y="114" on="0"/>
        <pt x="485" y="186" on="0"/>
        <pt x="511" y="291" on="0"/>
        <pt x="511" y="359" on="1"/>
        <pt x="511" y="422" on="0"/>
        <pt x="496" y="520" on="0"/>
        <pt x="458" y="587" on="0"/>
        <pt x="394" y="622" on="0"/>
      </contour>
    </TTGlyph>
    <TTGlyph name="Oacute" xMin="39" yMin="-12" xMax="647" yMax="920">
      <contour>
        <pt x="345" y="622" on="1"/>
        <pt x="267" y="622" on="0"/>
        <pt x="176" y="480" on="0"/>
        <pt x="176" y="347" on="1"/>
        <pt x="176" y="215" on="0"/>
        <pt x="253" y="76" on="0"/>
        <pt x="340" y="76" on="1"/>
        <pt x="378" y="76" on="0"/>
        <pt x="441" y="115" on="0"/>
        <pt x="486" y="189" on="0"/>
        <pt x="511" y="293" on="0"/>
        <pt x="511" y="359" on="1"/>
        <pt x="511" y="422" on="0"/>
        <pt x="496" y="520" on="0"/>
        <pt x="458" y="587" on="0"/>
        <pt x="394" y="622" on="0"/>
      </contour>
      <contour>
        <pt x="39" y="344" on="1"/>
        <pt x="39" y="425" on="0"/>
        <pt x="83" y="561" on="0"/>
        <pt x="166" y="658" on="0"/>
        <pt x="282" y="712" on="0"/>
        <pt x="354" y="712" on="1"/>
        <pt x="423" y="712" on="0"/>
        <pt x="532" y="663" on="0"/>
        <pt x="607" y="573" on="0"/>
        <pt x="647" y="445" on="0"/>
        <pt x="647" y="367" on="1"/>
        <pt x="647" y="285" on="0"/>
        <pt x="602" y="146" on="0"/>
        <pt x="520" y="45" on="0"/>
        <pt x="404" y="-12" on="0"/>
        <pt x="333" y="-12" on="1"/>
        <pt x="264" y="-12" on="0"/>
        <pt x="155" y="41" on="0"/>
        <pt x="79" y="136" on="0"/>
        <pt x="39" y="266" on="0"/>
      </contour>
      <contour>
        <pt x="565" y="908" on="1"/>
        <pt x="393" y="781" on="1"/>
        <pt x="314" y="793" on="1"/>
        <pt x="433" y="920" on="1"/>
      </contour>
    </TTGlyph>
    <TTGlyph name="Obreve" xMin="39" yMin="-12" xMax="647" yMax="928">
      <contour>
        <pt x="345" y="622" on="1"/>
        <pt x="267" y="622" on="0"/>
        <pt x="176" y="480" on="0"/>
        <pt x="176" y="347" on="1"/>
        <pt x="176" y="215" on="0"/>
        <pt x="253" y="76" on="0"/>
        <pt x="340" y="76" on="1"/>
        <pt x="378" y="76" on="0"/>
        <pt x="441" y="115" on="0"/>
        <pt x="486" y="189" on="0"/>
        <pt x="511" y="293" on="0"/>
        <pt x="511" y="359" on="1"/>
        <pt x="511" y="422" on="0"/>
        <pt x="496" y="520" on="0"/>
        <pt x="458" y="587" on="0"/>
        <pt x="394" y="622" on="0"/>
      </contour>
      <contour>
        <pt x="39" y="344" on="1"/>
        <pt x="39" y="425" on="0"/>
        <pt x="83" y="561" on="0"/>
        <pt x="166" y="658" on="0"/>
        <pt x="282" y="712" on="0"/>
        <pt x="354" y="712" on="1"/>
        <pt x="423" y="712" on="0"/>
        <pt x="532" y="663" on="0"/>
        <pt x="607" y="573" on="0"/>
        <pt x="647" y="445" on="0"/>
        <pt x="647" y="367" on="1"/>
        <pt x="647" y="285" on="0"/>
        <pt x="602" y="146" on="0"/>
        <pt x="520" y="45" on="0"/>
        <pt x="404" y="-12" on="0"/>
        <pt x="333" y="-12" on="1"/>
        <pt x="264" y="-12" on="0"/>
        <pt x="155" y="41" on="0"/>
        <pt x="79" y="136" on="0"/>
        <pt x="39" y="266" on="0"/>
      </contour>
      <contour>
        <pt x="522" y="928" on="1"/>
        <pt x="522" y="892" on="0"/>
        <pt x="496" y="837" on="0"/>
        <pt x="450" y="800" on="0"/>
        <pt x="388" y="781" on="0"/>
        <pt x="351" y="781" on="1"/>
        <pt x="273" y="781" on="0"/>
        <pt x="190" y="861" on="0"/>
        <pt x="190" y="928" on="1"/>
        <pt x="281" y="928" on="1"/>
        <pt x="281" y="898" on="0"/>
        <pt x="324" y="856" on="0"/>
        <pt x="356" y="856" on="1"/>
        <pt x="387" y="856" on="0"/>
        <pt x="432" y="898" on="0"/>
        <pt x="432" y="928" on="1"/>
      </contour>
    </TTGlyph>
    <TTGlyph name="Ocircumflex" xMin="39" yMin="-12" xMax="647" yMax="930">
      <contour>
        <pt x="345" y="622" on="1"/>
        <pt x="267" y="622" on="0"/>
        <pt x="176" y="480" on="0"/>
        <pt x="176" y="347" on="1"/>
        <pt x="176" y="215" on="0"/>
        <pt x="253" y="76" on="0"/>
        <pt x="340" y="76" on="1"/>
        <pt x="378" y="76" on="0"/>
        <pt x="441" y="115" on="0"/>
        <pt x="486" y="189" on="0"/>
        <pt x="511" y="293" on="0"/>
        <pt x="511" y="359" on="1"/>
        <pt x="511" y="422" on="0"/>
        <pt x="496" y="520" on="0"/>
        <pt x="458" y="587" on="0"/>
        <pt x="394" y="622" on="0"/>
      </contour>
      <contour>
        <pt x="39" y="344" on="1"/>
        <pt x="39" y="425" on="0"/>
        <pt x="83" y="561" on="0"/>
        <pt x="166" y="658" on="0"/>
        <pt x="282" y="712" on="0"/>
        <pt x="354" y="712" on="1"/>
        <pt x="423" y="712" on="0"/>
        <pt x="532" y="663" on="0"/>
        <pt x="607" y="573" on="0"/>
        <pt x="647" y="445" on="0"/>
        <pt x="647" y="367" on="1"/>
        <pt x="647" y="285" on="0"/>
        <pt x="602" y="146" on="0"/>
        <pt x="520" y="45" on="0"/>
        <pt x="404" y="-12" on="0"/>
        <pt x="333" y="-12" on="1"/>
        <pt x="264" y="-12" on="0"/>
        <pt x="155" y="41" on="0"/>
        <pt x="79" y="136" on="0"/>
        <pt x="39" y="266" on="0"/>
      </contour>
      <contour>
        <pt x="278" y="930" on="1"/>
        <pt x="289" y="928" on="0"/>
        <pt x="333" y="923" on="0"/>
        <pt x="351" y="923" on="1"/>
        <pt x="369" y="923" on="0"/>
        <pt x="413" y="928" on="0"/>
        <pt x="424" y="930" on="1"/>
        <pt x="538" y="803" on="1"/>
        <pt x="474" y="781" on="1"/>
        <pt x="351" y="854" on="1"/>
        <pt x="228" y="781" on="1"/>
        <pt x="164" y="803" on="1"/>
      </contour>
    </TTGlyph>
    <TTGlyph name="Odieresis" xMin="39" yMin="-12" xMax="647" yMax="900">
      <contour>
        <pt x="345" y="622" on="1"/>
        <pt x="267" y="622" on="0"/>
        <pt x="176" y="480" on="0"/>
        <pt x="176" y="347" on="1"/>
        <pt x="176" y="215" on="0"/>
        <pt x="253" y="76" on="0"/>
        <pt x="340" y="76" on="1"/>
        <pt x="378" y="76" on="0"/>
        <pt x="441" y="115" on="0"/>
        <pt x="486" y="189" on="0"/>
        <pt x="511" y="293" on="0"/>
        <pt x="511" y="359" on="1"/>
        <pt x="511" y="422" on="0"/>
        <pt x="496" y="520" on="0"/>
        <pt x="458" y="587" on="0"/>
        <pt x="394" y="622" on="0"/>
      </contour>
      <contour>
        <pt x="39" y="344" on="1"/>
        <pt x="39" y="425" on="0"/>
        <pt x="83" y="561" on="0"/>
        <pt x="166" y="658" on="0"/>
        <pt x="282" y="712" on="0"/>
        <pt x="354" y="712" on="1"/>
        <pt x="423" y="712" on="0"/>
        <pt x="532" y="663" on="0"/>
        <pt x="607" y="573" on="0"/>
        <pt x="647" y="445" on="0"/>
        <pt x="647" y="367" on="1"/>
        <pt x="647" y="285" on="0"/>
        <pt x="602" y="146" on="0"/>
        <pt x="520" y="45" on="0"/>
        <pt x="404" y="-12" on="0"/>
        <pt x="333" y="-12" on="1"/>
        <pt x="264" y="-12" on="0"/>
        <pt x="155" y="41" on="0"/>
        <pt x="79" y="136" on="0"/>
        <pt x="39" y="266" on="0"/>
      </contour>
      <contour>
        <pt x="190" y="837" on="1"/>
        <pt x="190" y="862" on="0"/>
        <pt x="223" y="900" on="0"/>
        <pt x="249" y="900" on="1"/>
        <pt x="273" y="900" on="0"/>
        <pt x="308" y="868" on="0"/>
        <pt x="308" y="842" on="1"/>
        <pt x="308" y="816" on="0"/>
        <pt x="274" y="781" on="0"/>
        <pt x="246" y="781" on="1"/>
        <pt x="223" y="781" on="0"/>
        <pt x="190" y="810" on="0"/>
      </contour>
      <contour>
        <pt x="392" y="837" on="1"/>
        <pt x="392" y="862" on="0"/>
        <pt x="424" y="900" on="0"/>
        <pt x="452" y="900" on="1"/>
        <pt x="475" y="900" on="0"/>
        <pt x="510" y="868" on="0"/>
        <pt x="510" y="842" on="1"/>
        <pt x="510" y="816" on="0"/>
        <pt x="476" y="781" on="0"/>
        <pt x="448" y="781" on="1"/>
        <pt x="425" y="781" on="0"/>
        <pt x="392" y="810" on="0"/>
      </contour>
    </TTGlyph>
    <TTGlyph name="Odotbelow" xMin="39" yMin="-197" xMax="647" yMax="712">
      <contour>
        <pt x="345" y="622" on="1"/>
        <pt x="267" y="622" on="0"/>
        <pt x="176" y="480" on="0"/>
        <pt x="176" y="347" on="1"/>
        <pt x="176" y="215" on="0"/>
        <pt x="253" y="76" on="0"/>
        <pt x="340" y="76" on="1"/>
        <pt x="378" y="76" on="0"/>
        <pt x="441" y="115" on="0"/>
        <pt x="486" y="189" on="0"/>
        <pt x="511" y="293" on="0"/>
        <pt x="511" y="359" on="1"/>
        <pt x="511" y="422" on="0"/>
        <pt x="496" y="520" on="0"/>
        <pt x="458" y="587" on="0"/>
        <pt x="394" y="622" on="0"/>
      </contour>
      <contour>
        <pt x="39" y="344" on="1"/>
        <pt x="39" y="425" on="0"/>
        <pt x="83" y="561" on="0"/>
        <pt x="166" y="658" on="0"/>
        <pt x="282" y="712" on="0"/>
        <pt x="354" y="712" on="1"/>
        <pt x="423" y="712" on="0"/>
        <pt x="532" y="663" on="0"/>
        <pt x="607" y="573" on="0"/>
        <pt x="647" y="445" on="0"/>
        <pt x="647" y="367" on="1"/>
        <pt x="647" y="285" on="0"/>
        <pt x="602" y="146" on="0"/>
        <pt x="520" y="45" on="0"/>
        <pt x="404" y="-12" on="0"/>
        <pt x="333" y="-12" on="1"/>
        <pt x="264" y="-12" on="0"/>
        <pt x="155" y="41" on="0"/>
        <pt x="79" y="136" on="0"/>
        <pt x="39" y="266" on="0"/>
      </contour>
      <contour>
        <pt x="267" y="-143" on="1"/>
        <pt x="267" y="-117" on="0"/>
        <pt x="302" y="-80" on="0"/>
        <pt x="333" y="-80" on="1"/>
        <pt x="359" y="-80" on="0"/>
        <pt x="398" y="-111" on="0"/>
        <pt x="398" y="-137" on="1"/>
        <pt x="398" y="-162" on="0"/>
        <pt x="364" y="-197" on="0"/>
        <pt x="333" y="-197" on="1"/>
        <pt x="307" y="-197" on="0"/>
        <pt x="267" y="-169" on="0"/>
      </contour>
    </TTGlyph>
    <TTGlyph name="Ograve" xMin="39" yMin="-12" xMax="647" yMax="920">
      <contour>
        <pt x="345" y="622" on="1"/>
        <pt x="267" y="622" on="0"/>
        <pt x="176" y="480" on="0"/>
        <pt x="176" y="347" on="1"/>
        <pt x="176" y="215" on="0"/>
        <pt x="253" y="76" on="0"/>
        <pt x="340" y="76" on="1"/>
        <pt x="378" y="76" on="0"/>
        <pt x="441" y="115" on="0"/>
        <pt x="486" y="189" on="0"/>
        <pt x="511" y="293" on="0"/>
        <pt x="511" y="359" on="1"/>
        <pt x="511" y="422" on="0"/>
        <pt x="496" y="520" on="0"/>
        <pt x="458" y="587" on="0"/>
        <pt x="394" y="622" on="0"/>
      </contour>
      <contour>
        <pt x="39" y="344" on="1"/>
        <pt x="39" y="425" on="0"/>
        <pt x="83" y="561" on="0"/>
        <pt x="166" y="658" on="0"/>
        <pt x="282" y="712" on="0"/>
        <pt x="354" y="712" on="1"/>
        <pt x="423" y="712" on="0"/>
        <pt x="532" y="663" on="0"/>
        <pt x="607" y="573" on="0"/>
        <pt x="647" y="445" on="0"/>
        <pt x="647" y="367" on="1"/>
        <pt x="647" y="285" on="0"/>
        <pt x="602" y="146" on="0"/>
        <pt x="520" y="45" on="0"/>
        <pt x="404" y="-12" on="0"/>
        <pt x="333" y="-12" on="1"/>
        <pt x="264" y="-12" on="0"/>
        <pt x="155" y="41" on="0"/>
        <pt x="79" y="136" on="0"/>
        <pt x="39" y="266" on="0"/>
      </contour>
      <contour>
        <pt x="311" y="920" on="1"/>
        <pt x="430" y="792" on="1"/>
        <pt x="351" y="780" on="1"/>
        <pt x="179" y="908" on="1"/>
      </contour>
    </TTGlyph>
    <TTGlyph name="Ohungarumlaut" xMin="39" yMin="-12" xMax="647" yMax="930">
      <contour>
        <pt x="345" y="622" on="1"/>
        <pt x="267" y="622" on="0"/>
        <pt x="176" y="480" on="0"/>
        <pt x="176" y="347" on="1"/>
        <pt x="176" y="215" on="0"/>
        <pt x="253" y="76" on="0"/>
        <pt x="340" y="76" on="1"/>
        <pt x="378" y="76" on="0"/>
        <pt x="441" y="115" on="0"/>
        <pt x="486" y="189" on="0"/>
        <pt x="511" y="293" on="0"/>
        <pt x="511" y="359" on="1"/>
        <pt x="511" y="422" on="0"/>
        <pt x="496" y="520" on="0"/>
        <pt x="458" y="587" on="0"/>
        <pt x="394" y="622" on="0"/>
      </contour>
      <contour>
        <pt x="39" y="344" on="1"/>
        <pt x="39" y="425" on="0"/>
        <pt x="83" y="561" on="0"/>
        <pt x="166" y="658" on="0"/>
        <pt x="282" y="712" on="0"/>
        <pt x="354" y="712" on="1"/>
        <pt x="423" y="712" on="0"/>
        <pt x="532" y="663" on="0"/>
        <pt x="607" y="573" on="0"/>
        <pt x="647" y="445" on="0"/>
        <pt x="647" y="367" on="1"/>
        <pt x="647" y="285" on="0"/>
        <pt x="602" y="146" on="0"/>
        <pt x="520" y="45" on="0"/>
        <pt x="404" y="-12" on="0"/>
        <pt x="333" y="-12" on="1"/>
        <pt x="264" y="-12" on="0"/>
        <pt x="155" y="41" on="0"/>
        <pt x="79" y="136" on="0"/>
        <pt x="39" y="266" on="0"/>
      </contour>
      <contour>
        <pt x="424" y="918" on="1"/>
        <pt x="282" y="781" on="1"/>
        <pt x="208" y="793" on="1"/>
        <pt x="297" y="930" on="1"/>
      </contour>
      <contour>
        <pt x="623" y="918" on="1"/>
        <pt x="481" y="781" on="1"/>
        <pt x="407" y="793" on="1"/>
        <pt x="496" y="930" on="1"/>
      </contour>
    </TTGlyph>
    <TTGlyph name="Omacron" xMin="39" yMin="-12" xMax="647" yMax="863">
      <contour>
        <pt x="345" y="622" on="1"/>
        <pt x="267" y="622" on="0"/>
        <pt x="176" y="480" on="0"/>
        <pt x="176" y="347" on="1"/>
        <pt x="176" y="215" on="0"/>
        <pt x="253" y="76" on="0"/>
        <pt x="340" y="76" on="1"/>
        <pt x="378" y="76" on="0"/>
        <pt x="441" y="115" on="0"/>
        <pt x="486" y="189" on="0"/>
        <pt x="511" y="293" on="0"/>
        <pt x="511" y="359" on="1"/>
        <pt x="511" y="422" on="0"/>
        <pt x="496" y="520" on="0"/>
        <pt x="458" y="587" on="0"/>
        <pt x="394" y="622" on="0"/>
      </contour>
      <contour>
        <pt x="39" y="344" on="1"/>
        <pt x="39" y="425" on="0"/>
        <pt x="83" y="561" on="0"/>
        <pt x="166" y="658" on="0"/>
        <pt x="282" y="712" on="0"/>
        <pt x="354" y="712" on="1"/>
        <pt x="423" y="712" on="0"/>
        <pt x="532" y="663" on="0"/>
        <pt x="607" y="573" on="0"/>
        <pt x="647" y="445" on="0"/>
        <pt x="647" y="367" on="1"/>
        <pt x="647" y="285" on="0"/>
        <pt x="602" y="146" on="0"/>
        <pt x="520" y="45" on="0"/>
        <pt x="404" y="-12" on="0"/>
        <pt x="333" y="-12" on="1"/>
        <pt x="264" y="-12" on="0"/>
        <pt x="155" y="41" on="0"/>
        <pt x="79" y="136" on="0"/>
        <pt x="39" y="266" on="0"/>
      </contour>
      <contour>
        <pt x="519" y="781" on="1"/>
        <pt x="471" y="782" on="0"/>
        <pt x="396" y="785" on="0"/>
        <pt x="349" y="785" on="1"/>
        <pt x="302" y="785" on="0"/>
        <pt x="226" y="784" on="0"/>
        <pt x="179" y="781" on="1"/>
        <pt x="182" y="863" on="1"/>
        <pt x="229" y="861" on="0"/>
        <pt x="304" y="859" on="0"/>
        <pt x="352" y="859" on="1"/>
        <pt x="399" y="859" on="0"/>
        <pt x="475" y="861" on="0"/>
        <pt x="523" y="863" on="1"/>
      </contour>
    </TTGlyph>
    <TTGlyph name="Oogonek" xMin="39" yMin="-230" xMax="647" yMax="712">
      <contour>
        <pt x="39" y="344" on="1"/>
        <pt x="39" y="425" on="0"/>
        <pt x="83" y="561" on="0"/>
        <pt x="166" y="658" on="0"/>
        <pt x="282" y="712" on="0"/>
        <pt x="354" y="712" on="1"/>
        <pt x="423" y="712" on="0"/>
        <pt x="532" y="663" on="0"/>
        <pt x="607" y="573" on="0"/>
        <pt x="647" y="445" on="0"/>
        <pt x="647" y="367" on="1"/>
        <pt x="647" y="291" on="0"/>
        <pt x="609" y="161" on="0"/>
        <pt x="538" y="62" on="0"/>
        <pt x="438" y="0" on="0"/>
        <pt x="377" y="-9" on="1"/>
        <pt x="361" y="-31" on="0"/>
        <pt x="336" y="-90" on="0"/>
        <pt x="336" y="-121" on="1"/>
        <pt x="336" y="-143" on="0"/>
        <pt x="354" y="-167" on="0"/>
        <pt x="375" y="-167" on="1"/>
        <pt x="392" y="-167" on="0"/>
        <pt x="429" y="-150" on="0"/>
        <pt x="441" y="-134" on="1"/>
        <pt x="456" y="-179" on="1"/>
        <pt x="440" y="-202" on="0"/>
        <pt x="391" y="-230" on="0"/>
        <pt x="349" y="-230" on="1"/>
        <pt x="319" y="-230" on="0"/>
        <pt x="278" y="-215" on="0"/>
        <pt x="253" y="-190" on="0"/>
        <pt x="242" y="-157" on="0"/>
        <pt x="242" y="-140" on="1"/>
        <pt x="242" y="-120" on="0"/>
        <pt x="254" y="-83" on="0"/>
        <pt x="274" y="-50" on="0"/>
        <pt x="297" y="-22" on="0"/>
        <pt x="309" y="-11" on="1"/>
        <pt x="246" y="-7" on="0"/>
        <pt x="145" y="50" on="0"/>
        <pt x="76" y="144" on="0"/>
        <pt x="39" y="270" on="0"/>
      </contour>
      <contour>
        <pt x="345" y="622" on="1"/>
        <pt x="267" y="622" on="0"/>
        <pt x="176" y="480" on="0"/>
        <pt x="176" y="347" on="1"/>
        <pt x="176" y="215" on="0"/>
        <pt x="253" y="76" on="0"/>
        <pt x="340" y="76" on="1"/>
        <pt x="378" y="76" on="0"/>
        <pt x="441" y="115" on="0"/>
        <pt x="486" y="189" on="0"/>
        <pt x="511" y="293" on="0"/>
        <pt x="511" y="359" on="1"/>
        <pt x="511" y="422" on="0"/>
        <pt x="496" y="520" on="0"/>
        <pt x="458" y="587" on="0"/>
        <pt x="394" y="622" on="0"/>
      </contour>
    </TTGlyph>
    <TTGlyph name="Oslash" xMin="14" yMin="-12" xMax="673" yMax="712">
      <contour>
        <pt x="41" y="344" on="1"/>
        <pt x="41" y="425" on="0"/>
        <pt x="85" y="561" on="0"/>
        <pt x="168" y="658" on="0"/>
        <pt x="284" y="712" on="0"/>
        <pt x="356" y="712" on="1"/>
        <pt x="408" y="712" on="0"/>
        <pt x="494" y="685" on="0"/>
        <pt x="529" y="659" on="1"/>
        <pt x="560" y="700" on="1"/>
        <pt x="673" y="700" on="1"/>
        <pt x="589" y="594" on="1"/>
        <pt x="649" y="505" on="0"/>
        <pt x="649" y="367" on="1"/>
        <pt x="649" y="285" on="0"/>
        <pt x="604" y="146" on="0"/>
        <pt x="522" y="45" on="0"/>
        <pt x="406" y="-12" on="0"/>
        <pt x="335" y="-12" on="1"/>
        <pt x="234" y="-12" on="0"/>
        <pt x="163" y="45" on="1"/>
        <pt x="154" y="34" on="0"/>
        <pt x="137" y="11" on="0"/>
        <pt x="129" y="0" on="1"/>
        <pt x="14" y="0" on="1"/>
        <pt x="102" y="111" on="1"/>
        <pt x="41" y="204" on="0"/>
      </contour>
      <contour>
        <pt x="503" y="484" on="1"/>
        <pt x="433" y="395" on="0"/>
        <pt x="296" y="219" on="0"/>
        <pt x="227" y="129" on="1"/>
        <pt x="268" y="76" on="0"/>
        <pt x="342" y="76" on="1"/>
        <pt x="380" y="76" on="0"/>
        <pt x="443" y="115" on="0"/>
        <pt x="488" y="189" on="0"/>
        <pt x="513" y="293" on="0"/>
        <pt x="513" y="359" on="1"/>
        <pt x="513" y="395" on="0"/>
        <pt x="508" y="458" on="0"/>
      </contour>
      <contour>
        <pt x="347" y="622" on="1"/>
        <pt x="269" y="622" on="0"/>
        <pt x="178" y="480" on="0"/>
        <pt x="178" y="347" on="1"/>
        <pt x="178" y="311" on="0"/>
        <pt x="184" y="248" on="0"/>
        <pt x="189" y="221" on="1"/>
        <pt x="259" y="310" on="0"/>
        <pt x="396" y="486" on="0"/>
        <pt x="464" y="575" on="1"/>
        <pt x="426" y="622" on="0"/>
      </contour>
    </TTGlyph>
    <TTGlyph name="Oslashacute" xMin="14" yMin="-12" xMax="673" yMax="921">
      <contour>
        <pt x="41" y="344" on="1"/>
        <pt x="41" y="425" on="0"/>
        <pt x="85" y="561" on="0"/>
        <pt x="168" y="658" on="0"/>
        <pt x="284" y="712" on="0"/>
        <pt x="356" y="712" on="1"/>
        <pt x="408" y="712" on="0"/>
        <pt x="494" y="685" on="0"/>
        <pt x="529" y="659" on="1"/>
        <pt x="560" y="700" on="1"/>
        <pt x="673" y="700" on="1"/>
        <pt x="589" y="594" on="1"/>
        <pt x="649" y="505" on="0"/>
        <pt x="649" y="367" on="1"/>
        <pt x="649" y="285" on="0"/>
        <pt x="604" y="146" on="0"/>
        <pt x="522" y="45" on="0"/>
        <pt x="406" y="-12" on="0"/>
        <pt x="335" y="-12" on="1"/>
        <pt x="234" y="-12" on="0"/>
        <pt x="163" y="45" on="1"/>
        <pt x="154" y="34" on="0"/>
        <pt x="137" y="11" on="0"/>
        <pt x="129" y="0" on="1"/>
        <pt x="14" y="0" on="1"/>
        <pt x="102" y="111" on="1"/>
        <pt x="41" y="204" on="0"/>
      </contour>
      <contour>
        <pt x="503" y="484" on="1"/>
        <pt x="433" y="395" on="0"/>
        <pt x="296" y="219" on="0"/>
        <pt x="227" y="129" on="1"/>
        <pt x="268" y="76" on="0"/>
        <pt x="342" y="76" on="1"/>
        <pt x="380" y="76" on="0"/>
        <pt x="443" y="115" on="0"/>
        <pt x="488" y="189" on="0"/>
        <pt x="513" y="293" on="0"/>
        <pt x="513" y="359" on="1"/>
        <pt x="513" y="395" on="0"/>
        <pt x="508" y="458" on="0"/>
      </contour>
      <contour>
        <pt x="347" y="622" on="1"/>
        <pt x="269" y="622" on="0"/>
        <pt x="178" y="480" on="0"/>
        <pt x="178" y="347" on="1"/>
        <pt x="178" y="311" on="0"/>
        <pt x="184" y="248" on="0"/>
        <pt x="189" y="221" on="1"/>
        <pt x="259" y="310" on="0"/>
        <pt x="396" y="486" on="0"/>
        <pt x="464" y="575" on="1"/>
        <pt x="426" y="622" on="0"/>
      </contour>
      <contour>
        <pt x="544" y="909" on="1"/>
        <pt x="372" y="782" on="1"/>
        <pt x="293" y="794" on="1"/>
        <pt x="412" y="921" on="1"/>
      </contour>
    </TTGlyph>
    <TTGlyph name="Otilde" xMin="39" yMin="-12" xMax="647" yMax="912">
      <contour>
        <pt x="345" y="622" on="1"/>
        <pt x="267" y="622" on="0"/>
        <pt x="176" y="480" on="0"/>
        <pt x="176" y="347" on="1"/>
        <pt x="176" y="215" on="0"/>
        <pt x="253" y="76" on="0"/>
        <pt x="340" y="76" on="1"/>
        <pt x="378" y="76" on="0"/>
        <pt x="441" y="115" on="0"/>
        <pt x="486" y="189" on="0"/>
        <pt x="511" y="293" on="0"/>
        <pt x="511" y="359" on="1"/>
        <pt x="511" y="422" on="0"/>
        <pt x="496" y="520" on="0"/>
        <pt x="458" y="587" on="0"/>
        <pt x="394" y="622" on="0"/>
      </contour>
      <contour>
        <pt x="39" y="344" on="1"/>
        <pt x="39" y="425" on="0"/>
        <pt x="83" y="561" on="0"/>
        <pt x="166" y="658" on="0"/>
        <pt x="282" y="712" on="0"/>
        <pt x="354" y="712" on="1"/>
        <pt x="423" y="712" on="0"/>
        <pt x="532" y="663" on="0"/>
        <pt x="607" y="573" on="0"/>
        <pt x="647" y="445" on="0"/>
        <pt x="647" y="367" on="1"/>
        <pt x="647" y="285" on="0"/>
        <pt x="602" y="146" on="0"/>
        <pt x="520" y="45" on="0"/>
        <pt x="404" y="-12" on="0"/>
        <pt x="333" y="-12" on="1"/>
        <pt x="264" y="-12" on="0"/>
        <pt x="155" y="41" on="0"/>
        <pt x="79" y="136" on="0"/>
        <pt x="39" y="266" on="0"/>
      </contour>
      <contour>
        <pt x="533" y="876" on="1"/>
        <pt x="477" y="769" on="0"/>
        <pt x="418" y="769" on="1"/>
        <pt x="398" y="769" on="0"/>
        <pt x="363" y="786" on="0"/>
        <pt x="330" y="805" on="0"/>
        <pt x="300" y="822" on="0"/>
        <pt x="285" y="822" on="1"/>
        <pt x="249" y="822" on="0"/>
        <pt x="224" y="773" on="1"/>
        <pt x="170" y="805" on="1"/>
        <pt x="226" y="912" on="0"/>
        <pt x="285" y="912" on="1"/>
        <pt x="305" y="912" on="0"/>
        <pt x="340" y="895" on="0"/>
        <pt x="373" y="876" on="0"/>
        <pt x="403" y="859" on="0"/>
        <pt x="418" y="859" on="1"/>
        <pt x="454" y="859" on="0"/>
        <pt x="479" y="908" on="1"/>
      </contour>
    </TTGlyph>
    <TTGlyph name="P" xMin="71" yMin="0" xMax="554" yMax="711">
      <contour>
        <pt x="554" y="501" on="1"/>
        <pt x="554" y="444" on="0"/>
        <pt x="515" y="353" on="0"/>
        <pt x="442" y="290" on="0"/>
        <pt x="338" y="256" on="0"/>
        <pt x="273" y="256" on="1"/>
        <pt x="256" y="256" on="0"/>
        <pt x="225" y="258" on="0"/>
        <pt x="209" y="260" on="1"/>
        <pt x="209" y="183" on="0"/>
        <pt x="210" y="60" on="0"/>
        <pt x="212" y="0" on="1"/>
        <pt x="71" y="0" on="1"/>
        <pt x="73" y="48" on="0"/>
        <pt x="76" y="121" on="0"/>
        <pt x="78" y="200" on="0"/>
        <pt x="79" y="298" on="0"/>
        <pt x="79" y="371" on="1"/>
        <pt x="79" y="455" on="0"/>
        <pt x="77" y="609" on="0"/>
        <pt x="74" y="690" on="1"/>
        <pt x="96" y="694" on="0"/>
        <pt x="148" y="702" on="0"/>
        <pt x="203" y="708" on="0"/>
        <pt x="258" y="711" on="0"/>
        <pt x="284" y="711" on="1"/>
        <pt x="367" y="711" on="0"/>
        <pt x="472" y="674" on="0"/>
        <pt x="532" y="615" on="0"/>
        <pt x="554" y="540" on="0"/>
      </contour>
      <contour>
        <pt x="209" y="347" on="1"/>
        <pt x="223" y="344" on="0"/>
        <pt x="253" y="342" on="0"/>
        <pt x="269" y="342" on="1"/>
        <pt x="344" y="342" on="0"/>
        <pt x="422" y="415" on="0"/>
        <pt x="422" y="486" on="1"/>
        <pt x="422" y="552" on="0"/>
        <pt x="357" y="622" on="0"/>
        <pt x="297" y="622" on="1"/>
        <pt x="277" y="622" on="0"/>
        <pt x="234" y="615" on="0"/>
        <pt x="211" y="609" on="1"/>
        <pt x="209" y="561" on="0"/>
        <pt x="209" y="441" on="0"/>
        <pt x="209" y="356" on="1"/>
      </contour>
    </TTGlyph>
    <TTGlyph name="Q" xMin="39" yMin="-131" xMax="663" yMax="712">
      <contour>
        <pt x="591" y="-131" on="1"/>
        <pt x="565" y="-130" on="0"/>
        <pt x="473" y="-112" on="0"/>
        <pt x="363" y="-77" on="0"/>
        <pt x="249" y="-26" on="0"/>
        <pt x="201" y="9" on="1"/>
        <pt x="124" y="64" on="0"/>
        <pt x="39" y="223" on="0"/>
        <pt x="39" y="340" on="1"/>
        <pt x="39" y="424" on="0"/>
        <pt x="83" y="561" on="0"/>
        <pt x="166" y="658" on="0"/>
        <pt x="282" y="712" on="0"/>
        <pt x="354" y="712" on="1"/>
        <pt x="423" y="712" on="0"/>
        <pt x="532" y="663" on="0"/>
        <pt x="607" y="573" on="0"/>
        <pt x="647" y="446" on="0"/>
        <pt x="647" y="369" on="1"/>
        <pt x="647" y="297" on="0"/>
        <pt x="613" y="173" on="0"/>
        <pt x="551" y="76" on="0"/>
        <pt x="462" y="10" on="0"/>
        <pt x="407" y="-3" on="1"/>
        <pt x="452" y="-15" on="0"/>
        <pt x="544" y="-26" on="0"/>
        <pt x="595" y="-26" on="1"/>
        <pt x="612" y="-26" on="0"/>
        <pt x="645" y="-26" on="0"/>
        <pt x="663" y="-24" on="1"/>
      </contour>
      <contour>
        <pt x="353" y="622" on="1"/>
        <pt x="265" y="622" on="0"/>
        <pt x="177" y="479" on="0"/>
        <pt x="177" y="342" on="1"/>
        <pt x="177" y="214" on="0"/>
        <pt x="255" y="76" on="0"/>
        <pt x="335" y="76" on="1"/>
        <pt x="415" y="76" on="0"/>
        <pt x="510" y="222" on="0"/>
        <pt x="510" y="371" on="1"/>
        <pt x="510" y="425" on="0"/>
        <pt x="495" y="517" on="0"/>
        <pt x="459" y="584" on="0"/>
        <pt x="399" y="622" on="0"/>
      </contour>
    </TTGlyph>
    <TTGlyph name="R" xMin="71" yMin="-12" xMax="564" yMax="711">
      <contour>
        <pt x="74" y="690" on="1"/>
        <pt x="119" y="698" on="0"/>
        <pt x="232" y="711" on="0"/>
        <pt x="285" y="711" on="1"/>
        <pt x="370" y="711" on="0"/>
        <pt x="479" y="675" on="0"/>
        <pt x="541" y="618" on="0"/>
        <pt x="564" y="547" on="0"/>
        <pt x="564" y="512" on="1"/>
        <pt x="564" y="449" on="0"/>
        <pt x="507" y="356" on="0"/>
        <pt x="455" y="329" on="1"/>
        <pt x="486" y="314" on="0"/>
        <pt x="527" y="275" on="0"/>
        <pt x="551" y="219" on="0"/>
        <pt x="560" y="142" on="0"/>
        <pt x="560" y="91" on="1"/>
        <pt x="560" y="50" on="0"/>
        <pt x="557" y="0" on="1"/>
        <pt x="418" y="-12" on="1"/>
        <pt x="421" y="21" on="0"/>
        <pt x="425" y="81" on="0"/>
        <pt x="425" y="108" on="1"/>
        <pt x="425" y="152" on="0"/>
        <pt x="411" y="218" on="0"/>
        <pt x="375" y="263" on="0"/>
        <pt x="314" y="285" on="0"/>
        <pt x="266" y="285" on="1"/>
        <pt x="255" y="285" on="0"/>
        <pt x="225" y="284" on="0"/>
        <pt x="209" y="282" on="1"/>
        <pt x="209" y="199" on="0"/>
        <pt x="210" y="65" on="0"/>
        <pt x="212" y="0" on="1"/>
        <pt x="71" y="0" on="1"/>
        <pt x="73" y="48" on="0"/>
        <pt x="76" y="121" on="0"/>
        <pt x="78" y="200" on="0"/>
        <pt x="79" y="298" on="0"/>
        <pt x="79" y="371" on="1"/>
        <pt x="79" y="455" on="0"/>
        <pt x="77" y="609" on="0"/>
      </contour>
      <contour>
        <pt x="298" y="622" on="1"/>
        <pt x="278" y="622" on="0"/>
        <pt x="234" y="615" on="0"/>
        <pt x="211" y="609" on="1"/>
        <pt x="209" y="567" on="0"/>
        <pt x="209" y="462" on="0"/>
        <pt x="209" y="388" on="1"/>
        <pt x="209" y="375" on="1"/>
        <pt x="237" y="369" on="0"/>
        <pt x="274" y="369" on="1"/>
        <pt x="349" y="369" on="0"/>
        <pt x="432" y="434" on="0"/>
        <pt x="432" y="497" on="1"/>
        <pt x="432" y="555" on="0"/>
        <pt x="361" y="622" on="0"/>
      </contour>
    </TTGlyph>
    <TTGlyph name="Racute" xMin="71" yMin="-12" xMax="564" yMax="922">
      <contour>
        <pt x="74" y="690" on="1"/>
        <pt x="119" y="698" on="0"/>
        <pt x="232" y="711" on="0"/>
        <pt x="285" y="711" on="1"/>
        <pt x="370" y="711" on="0"/>
        <pt x="479" y="675" on="0"/>
        <pt x="541" y="618" on="0"/>
        <pt x="564" y="547" on="0"/>
        <pt x="564" y="512" on="1"/>
        <pt x="564" y="449" on="0"/>
        <pt x="507" y="356" on="0"/>
        <pt x="455" y="329" on="1"/>
        <pt x="486" y="314" on="0"/>
        <pt x="527" y="275" on="0"/>
        <pt x="551" y="219" on="0"/>
        <pt x="560" y="142" on="0"/>
        <pt x="560" y="91" on="1"/>
        <pt x="560" y="50" on="0"/>
        <pt x="557" y="0" on="1"/>
        <pt x="418" y="-12" on="1"/>
        <pt x="421" y="21" on="0"/>
        <pt x="425" y="81" on="0"/>
        <pt x="425" y="108" on="1"/>
        <pt x="425" y="152" on="0"/>
        <pt x="411" y="218" on="0"/>
        <pt x="375" y="263" on="0"/>
        <pt x="314" y="285" on="0"/>
        <pt x="266" y="285" on="1"/>
        <pt x="255" y="285" on="0"/>
        <pt x="225" y="284" on="0"/>
        <pt x="209" y="282" on="1"/>
        <pt x="209" y="199" on="0"/>
        <pt x="210" y="65" on="0"/>
        <pt x="212" y="0" on="1"/>
        <pt x="71" y="0" on="1"/>
        <pt x="73" y="48" on="0"/>
        <pt x="76" y="121" on="0"/>
        <pt x="78" y="200" on="0"/>
        <pt x="79" y="298" on="0"/>
        <pt x="79" y="371" on="1"/>
        <pt x="79" y="455" on="0"/>
        <pt x="77" y="609" on="0"/>
      </contour>
      <contour>
        <pt x="298" y="622" on="1"/>
        <pt x="278" y="622" on="0"/>
        <pt x="234" y="615" on="0"/>
        <pt x="211" y="609" on="1"/>
        <pt x="209" y="567" on="0"/>
        <pt x="209" y="462" on="0"/>
        <pt x="209" y="388" on="1"/>
        <pt x="209" y="375" on="1"/>
        <pt x="237" y="369" on="0"/>
        <pt x="274" y="369" on="1"/>
        <pt x="349" y="369" on="0"/>
        <pt x="432" y="434" on="0"/>
        <pt x="432" y="497" on="1"/>
        <pt x="432" y="555" on="0"/>
        <pt x="361" y="622" on="0"/>
      </contour>
      <contour>
        <pt x="528" y="910" on="1"/>
        <pt x="356" y="783" on="1"/>
        <pt x="277" y="795" on="1"/>
        <pt x="396" y="922" on="1"/>
      </contour>
    </TTGlyph>
    <TTGlyph name="Rcaron" xMin="71" yMin="-12" xMax="564" yMax="932">
      <contour>
        <pt x="74" y="690" on="1"/>
        <pt x="119" y="698" on="0"/>
        <pt x="232" y="711" on="0"/>
        <pt x="285" y="711" on="1"/>
        <pt x="370" y="711" on="0"/>
        <pt x="479" y="675" on="0"/>
        <pt x="541" y="618" on="0"/>
        <pt x="564" y="547" on="0"/>
        <pt x="564" y="512" on="1"/>
        <pt x="564" y="449" on="0"/>
        <pt x="507" y="356" on="0"/>
        <pt x="455" y="329" on="1"/>
        <pt x="486" y="314" on="0"/>
        <pt x="527" y="275" on="0"/>
        <pt x="551" y="219" on="0"/>
        <pt x="560" y="142" on="0"/>
        <pt x="560" y="91" on="1"/>
        <pt x="560" y="50" on="0"/>
        <pt x="557" y="0" on="1"/>
        <pt x="418" y="-12" on="1"/>
        <pt x="421" y="21" on="0"/>
        <pt x="425" y="81" on="0"/>
        <pt x="425" y="108" on="1"/>
        <pt x="425" y="152" on="0"/>
        <pt x="411" y="218" on="0"/>
        <pt x="375" y="263" on="0"/>
        <pt x="314" y="285" on="0"/>
        <pt x="266" y="285" on="1"/>
        <pt x="255" y="285" on="0"/>
        <pt x="225" y="284" on="0"/>
        <pt x="209" y="282" on="1"/>
        <pt x="209" y="199" on="0"/>
        <pt x="210" y="65" on="0"/>
        <pt x="212" y="0" on="1"/>
        <pt x="71" y="0" on="1"/>
        <pt x="73" y="48" on="0"/>
        <pt x="76" y="121" on="0"/>
        <pt x="78" y="200" on="0"/>
        <pt x="79" y="298" on="0"/>
        <pt x="79" y="371" on="1"/>
        <pt x="79" y="455" on="0"/>
        <pt x="77" y="609" on="0"/>
      </contour>
      <contour>
        <pt x="298" y="622" on="1"/>
        <pt x="278" y="622" on="0"/>
        <pt x="234" y="615" on="0"/>
        <pt x="211" y="609" on="1"/>
        <pt x="209" y="567" on="0"/>
        <pt x="209" y="462" on="0"/>
        <pt x="209" y="388" on="1"/>
        <pt x="209" y="375" on="1"/>
        <pt x="237" y="369" on="0"/>
        <pt x="274" y="369" on="1"/>
        <pt x="349" y="369" on="0"/>
        <pt x="432" y="434" on="0"/>
        <pt x="432" y="497" on="1"/>
        <pt x="432" y="555" on="0"/>
        <pt x="361" y="622" on="0"/>
      </contour>
      <contour>
        <pt x="122" y="910" on="1"/>
        <pt x="186" y="932" on="1"/>
        <pt x="309" y="859" on="1"/>
        <pt x="432" y="932" on="1"/>
        <pt x="496" y="910" on="1"/>
        <pt x="382" y="783" on="1"/>
        <pt x="371" y="785" on="0"/>
        <pt x="327" y="790" on="0"/>
        <pt x="309" y="790" on="1"/>
        <pt x="291" y="790" on="0"/>
        <pt x="247" y="785" on="0"/>
        <pt x="236" y="783" on="1"/>
      </contour>
    </TTGlyph>
    <TTGlyph name="Rcommaaccent" xMin="71" yMin="-250" xMax="564" yMax="711">
      <contour>
        <pt x="74" y="690" on="1"/>
        <pt x="119" y="698" on="0"/>
        <pt x="232" y="711" on="0"/>
        <pt x="285" y="711" on="1"/>
        <pt x="370" y="711" on="0"/>
        <pt x="479" y="675" on="0"/>
        <pt x="541" y="618" on="0"/>
        <pt x="564" y="547" on="0"/>
        <pt x="564" y="512" on="1"/>
        <pt x="564" y="449" on="0"/>
        <pt x="507" y="356" on="0"/>
        <pt x="455" y="329" on="1"/>
        <pt x="486" y="314" on="0"/>
        <pt x="527" y="275" on="0"/>
        <pt x="551" y="219" on="0"/>
        <pt x="560" y="142" on="0"/>
        <pt x="560" y="91" on="1"/>
        <pt x="560" y="50" on="0"/>
        <pt x="557" y="0" on="1"/>
        <pt x="418" y="-12" on="1"/>
        <pt x="421" y="21" on="0"/>
        <pt x="425" y="81" on="0"/>
        <pt x="425" y="108" on="1"/>
        <pt x="425" y="152" on="0"/>
        <pt x="411" y="218" on="0"/>
        <pt x="375" y="263" on="0"/>
        <pt x="314" y="285" on="0"/>
        <pt x="266" y="285" on="1"/>
        <pt x="255" y="285" on="0"/>
        <pt x="225" y="284" on="0"/>
        <pt x="209" y="282" on="1"/>
        <pt x="209" y="199" on="0"/>
        <pt x="210" y="65" on="0"/>
        <pt x="212" y="0" on="1"/>
        <pt x="71" y="0" on="1"/>
        <pt x="73" y="48" on="0"/>
        <pt x="76" y="121" on="0"/>
        <pt x="78" y="200" on="0"/>
        <pt x="79" y="298" on="0"/>
        <pt x="79" y="371" on="1"/>
        <pt x="79" y="455" on="0"/>
        <pt x="77" y="609" on="0"/>
      </contour>
      <contour>
        <pt x="298" y="622" on="1"/>
        <pt x="278" y="622" on="0"/>
        <pt x="234" y="615" on="0"/>
        <pt x="211" y="609" on="1"/>
        <pt x="209" y="567" on="0"/>
        <pt x="209" y="462" on="0"/>
        <pt x="209" y="388" on="1"/>
        <pt x="209" y="375" on="1"/>
        <pt x="237" y="369" on="0"/>
        <pt x="274" y="369" on="1"/>
        <pt x="349" y="369" on="0"/>
        <pt x="432" y="434" on="0"/>
        <pt x="432" y="497" on="1"/>
        <pt x="432" y="555" on="0"/>
        <pt x="361" y="622" on="0"/>
      </contour>
      <contour>
        <pt x="239" y="-105" on="1"/>
        <pt x="241" y="-78" on="0"/>
        <pt x="282" y="-51" on="0"/>
        <pt x="305" y="-51" on="1"/>
        <pt x="334" y="-51" on="0"/>
        <pt x="365" y="-87" on="0"/>
        <pt x="365" y="-110" on="1"/>
        <pt x="365" y="-126" on="0"/>
        <pt x="351" y="-161" on="0"/>
        <pt x="328" y="-198" on="0"/>
        <pt x="300" y="-234" on="0"/>
        <pt x="286" y="-250" on="1"/>
        <pt x="241" y="-224" on="1"/>
        <pt x="254" y="-208" on="0"/>
        <pt x="278" y="-168" on="0"/>
        <pt x="278" y="-148" on="1"/>
        <pt x="278" y="-134" on="0"/>
        <pt x="260" y="-112" on="0"/>
      </contour>
    </TTGlyph>
    <TTGlyph name="Rdotbelow" xMin="71" yMin="-197" xMax="564" yMax="711">
      <contour>
        <pt x="74" y="690" on="1"/>
        <pt x="119" y="698" on="0"/>
        <pt x="232" y="711" on="0"/>
        <pt x="285" y="711" on="1"/>
        <pt x="370" y="711" on="0"/>
        <pt x="479" y="675" on="0"/>
        <pt x="541" y="618" on="0"/>
        <pt x="564" y="547" on="0"/>
        <pt x="564" y="512" on="1"/>
        <pt x="564" y="449" on="0"/>
        <pt x="507" y="356" on="0"/>
        <pt x="455" y="329" on="1"/>
        <pt x="486" y="314" on="0"/>
        <pt x="527" y="275" on="0"/>
        <pt x="551" y="219" on="0"/>
        <pt x="560" y="142" on="0"/>
        <pt x="560" y="91" on="1"/>
        <pt x="560" y="50" on="0"/>
        <pt x="557" y="0" on="1"/>
        <pt x="418" y="-12" on="1"/>
        <pt x="421" y="21" on="0"/>
        <pt x="425" y="81" on="0"/>
        <pt x="425" y="108" on="1"/>
        <pt x="425" y="152" on="0"/>
        <pt x="411" y="218" on="0"/>
        <pt x="375" y="263" on="0"/>
        <pt x="314" y="285" on="0"/>
        <pt x="266" y="285" on="1"/>
        <pt x="255" y="285" on="0"/>
        <pt x="225" y="284" on="0"/>
        <pt x="209" y="282" on="1"/>
        <pt x="209" y="199" on="0"/>
        <pt x="210" y="65" on="0"/>
        <pt x="212" y="0" on="1"/>
        <pt x="71" y="0" on="1"/>
        <pt x="73" y="48" on="0"/>
        <pt x="76" y="121" on="0"/>
        <pt x="78" y="200" on="0"/>
        <pt x="79" y="298" on="0"/>
        <pt x="79" y="371" on="1"/>
        <pt x="79" y="455" on="0"/>
        <pt x="77" y="609" on="0"/>
      </contour>
      <contour>
        <pt x="298" y="622" on="1"/>
        <pt x="278" y="622" on="0"/>
        <pt x="234" y="615" on="0"/>
        <pt x="211" y="609" on="1"/>
        <pt x="209" y="567" on="0"/>
        <pt x="209" y="462" on="0"/>
        <pt x="209" y="388" on="1"/>
        <pt x="209" y="375" on="1"/>
        <pt x="237" y="369" on="0"/>
        <pt x="274" y="369" on="1"/>
        <pt x="349" y="369" on="0"/>
        <pt x="432" y="434" on="0"/>
        <pt x="432" y="497" on="1"/>
        <pt x="432" y="555" on="0"/>
        <pt x="361" y="622" on="0"/>
      </contour>
      <contour>
        <pt x="243" y="-143" on="1"/>
        <pt x="243" y="-117" on="0"/>
        <pt x="278" y="-80" on="0"/>
        <pt x="309" y="-80" on="1"/>
        <pt x="335" y="-80" on="0"/>
        <pt x="374" y="-111" on="0"/>
        <pt x="374" y="-137" on="1"/>
        <pt x="374" y="-162" on="0"/>
        <pt x="340" y="-197" on="0"/>
        <pt x="309" y="-197" on="1"/>
        <pt x="283" y="-197" on="0"/>
        <pt x="243" y="-169" on="0"/>
      </contour>
    </TTGlyph>
    <TTGlyph name="S" xMin="42" yMin="-12" xMax="521" yMax="711">
      <contour>
        <pt x="271" y="102" on="1"/>
        <pt x="334" y="102" on="0"/>
        <pt x="395" y="146" on="0"/>
        <pt x="395" y="188" on="1"/>
        <pt x="395" y="214" on="0"/>
        <pt x="373" y="250" on="0"/>
        <pt x="336" y="276" on="0"/>
        <pt x="287" y="295" on="0"/>
        <pt x="261" y="304" on="1"/>
        <pt x="213" y="320" on="0"/>
        <pt x="136" y="352" on="0"/>
        <pt x="81" y="395" on="0"/>
        <pt x="51" y="458" on="0"/>
        <pt x="51" y="505" on="1"/>
        <pt x="51" y="570" on="0"/>
        <pt x="104" y="651" on="0"/>
        <pt x="184" y="696" on="0"/>
        <pt x="279" y="711" on="0"/>
        <pt x="320" y="711" on="1"/>
        <pt x="372" y="711" on="0"/>
        <pt x="465" y="695" on="0"/>
        <pt x="500" y="687" on="1"/>
        <pt x="500" y="571" on="1"/>
        <pt x="452" y="585" on="0"/>
        <pt x="350" y="603" on="0"/>
        <pt x="308" y="603" on="1"/>
        <pt x="236" y="603" on="0"/>
        <pt x="170" y="552" on="0"/>
        <pt x="170" y="516" on="1"/>
        <pt x="170" y="489" on="0"/>
        <pt x="201" y="453" on="0"/>
        <pt x="246" y="427" on="0"/>
        <pt x="297" y="412" on="0"/>
        <pt x="318" y="406" on="1"/>
        <pt x="354" y="396" on="0"/>
        <pt x="426" y="367" on="0"/>
        <pt x="485" y="319" on="0"/>
        <pt x="521" y="248" on="0"/>
        <pt x="521" y="196" on="1"/>
        <pt x="521" y="144" on="0"/>
        <pt x="484" y="66" on="0"/>
        <pt x="417" y="14" on="0"/>
        <pt x="325" y="-12" on="0"/>
        <pt x="270" y="-12" on="1"/>
        <pt x="222" y="-12" on="0"/>
        <pt x="103" y="8" on="0"/>
        <pt x="46" y="29" on="1"/>
        <pt x="42" y="152" on="1"/>
        <pt x="60" y="143" on="0"/>
        <pt x="114" y="126" on="0"/>
        <pt x="177" y="111" on="0"/>
        <pt x="242" y="102" on="0"/>
      </contour>
    </TTGlyph>
    <TTGlyph name="Sacute" xMin="42" yMin="-12" xMax="521" yMax="920">
      <contour>
        <pt x="271" y="102" on="1"/>
        <pt x="334" y="102" on="0"/>
        <pt x="395" y="146" on="0"/>
        <pt x="395" y="188" on="1"/>
        <pt x="395" y="214" on="0"/>
        <pt x="373" y="250" on="0"/>
        <pt x="336" y="276" on="0"/>
        <pt x="287" y="295" on="0"/>
        <pt x="261" y="304" on="1"/>
        <pt x="213" y="320" on="0"/>
        <pt x="136" y="352" on="0"/>
        <pt x="81" y="395" on="0"/>
        <pt x="51" y="458" on="0"/>
        <pt x="51" y="505" on="1"/>
        <pt x="51" y="570" on="0"/>
        <pt x="104" y="651" on="0"/>
        <pt x="184" y="696" on="0"/>
        <pt x="279" y="711" on="0"/>
        <pt x="320" y="711" on="1"/>
        <pt x="372" y="711" on="0"/>
        <pt x="465" y="695" on="0"/>
        <pt x="500" y="687" on="1"/>
        <pt x="500" y="571" on="1"/>
        <pt x="452" y="585" on="0"/>
        <pt x="350" y="603" on="0"/>
        <pt x="308" y="603" on="1"/>
        <pt x="236" y="603" on="0"/>
        <pt x="170" y="552" on="0"/>
        <pt x="170" y="516" on="1"/>
        <pt x="170" y="489" on="0"/>
        <pt x="201" y="453" on="0"/>
        <pt x="246" y="427" on="0"/>
        <pt x="297" y="412" on="0"/>
        <pt x="318" y="406" on="1"/>
        <pt x="354" y="396" on="0"/>
        <pt x="426" y="367" on="0"/>
        <pt x="485" y="319" on="0"/>
        <pt x="521" y="248" on="0"/>
        <pt x="521" y="196" on="1"/>
        <pt x="521" y="144" on="0"/>
        <pt x="484" y="66" on="0"/>
        <pt x="417" y="14" on="0"/>
        <pt x="325" y="-12" on="0"/>
        <pt x="270" y="-12" on="1"/>
        <pt x="222" y="-12" on="0"/>
        <pt x="103" y="8" on="0"/>
        <pt x="46" y="29" on="1"/>
        <pt x="42" y="152" on="1"/>
        <pt x="60" y="143" on="0"/>
        <pt x="114" y="126" on="0"/>
        <pt x="177" y="111" on="0"/>
        <pt x="242" y="102" on="0"/>
      </contour>
      <contour>
        <pt x="471" y="908" on="1"/>
        <pt x="299" y="781" on="1"/>
        <pt x="220" y="793" on="1"/>
        <pt x="339" y="920" on="1"/>
      </contour>
    </TTGlyph>
    <TTGlyph name="Scaron" xMin="42" yMin="-12" xMax="521" yMax="930">
      <contour>
        <pt x="271" y="102" on="1"/>
        <pt x="334" y="102" on="0"/>
        <pt x="395" y="146" on="0"/>
        <pt x="395" y="188" on="1"/>
        <pt x="395" y="214" on="0"/>
        <pt x="373" y="250" on="0"/>
        <pt x="336" y="276" on="0"/>
        <pt x="287" y="295" on="0"/>
        <pt x="261" y="304" on="1"/>
        <pt x="213" y="320" on="0"/>
        <pt x="136" y="352" on="0"/>
        <pt x="81" y="395" on="0"/>
        <pt x="51" y="458" on="0"/>
        <pt x="51" y="505" on="1"/>
        <pt x="51" y="570" on="0"/>
        <pt x="104" y="651" on="0"/>
        <pt x="184" y="696" on="0"/>
        <pt x="279" y="711" on="0"/>
        <pt x="320" y="711" on="1"/>
        <pt x="372" y="711" on="0"/>
        <pt x="465" y="695" on="0"/>
        <pt x="500" y="687" on="1"/>
        <pt x="500" y="571" on="1"/>
        <pt x="452" y="585" on="0"/>
        <pt x="350" y="603" on="0"/>
        <pt x="308" y="603" on="1"/>
        <pt x="236" y="603" on="0"/>
        <pt x="170" y="552" on="0"/>
        <pt x="170" y="516" on="1"/>
        <pt x="170" y="489" on="0"/>
        <pt x="201" y="453" on="0"/>
        <pt x="246" y="427" on="0"/>
        <pt x="297" y="412" on="0"/>
        <pt x="318" y="406" on="1"/>
        <pt x="354" y="396" on="0"/>
        <pt x="426" y="367" on="0"/>
        <pt x="485" y="319" on="0"/>
        <pt x="521" y="248" on="0"/>
        <pt x="521" y="196" on="1"/>
        <pt x="521" y="144" on="0"/>
        <pt x="484" y="66" on="0"/>
        <pt x="417" y="14" on="0"/>
        <pt x="325" y="-12" on="0"/>
        <pt x="270" y="-12" on="1"/>
        <pt x="222" y="-12" on="0"/>
        <pt x="103" y="8" on="0"/>
        <pt x="46" y="29" on="1"/>
        <pt x="42" y="152" on="1"/>
        <pt x="60" y="143" on="0"/>
        <pt x="114" y="126" on="0"/>
        <pt x="177" y="111" on="0"/>
        <pt x="242" y="102" on="0"/>
      </contour>
      <contour>
        <pt x="105" y="908" on="1"/>
        <pt x="169" y="930" on="1"/>
        <pt x="292" y="857" on="1"/>
        <pt x="415" y="930" on="1"/>
        <pt x="479" y="908" on="1"/>
        <pt x="365" y="781" on="1"/>
        <pt x="354" y="783" on="0"/>
        <pt x="310" y="788" on="0"/>
        <pt x="292" y="788" on="1"/>
        <pt x="274" y="788" on="0"/>
        <pt x="230" y="783" on="0"/>
        <pt x="219" y="781" on="1"/>
      </contour>
    </TTGlyph>
    <TTGlyph name="Schwa" xMin="31" yMin="-12" xMax="594" yMax="713">
      <contour>
        <pt x="31" y="255" on="1"/>
        <pt x="31" y="288" on="0"/>
        <pt x="43" y="362" on="0"/>
        <pt x="52" y="384" on="1"/>
        <pt x="454" y="384" on="1"/>
        <pt x="453" y="440" on="0"/>
        <pt x="438" y="528" on="0"/>
        <pt x="400" y="589" on="0"/>
        <pt x="337" y="621" on="0"/>
        <pt x="288" y="621" on="1"/>
        <pt x="235" y="621" on="0"/>
        <pt x="142" y="587" on="0"/>
        <pt x="86" y="561" on="1"/>
        <pt x="71" y="649" on="1"/>
        <pt x="92" y="666" on="0"/>
        <pt x="150" y="691" on="0"/>
        <pt x="212" y="706" on="0"/>
        <pt x="274" y="713" on="0"/>
        <pt x="299" y="713" on="1"/>
        <pt x="360" y="713" on="0"/>
        <pt x="468" y="673" on="0"/>
        <pt x="548" y="588" on="0"/>
        <pt x="594" y="457" on="0"/>
        <pt x="594" y="367" on="1"/>
        <pt x="594" y="280" on="0"/>
        <pt x="550" y="140" on="0"/>
        <pt x="469" y="41" on="0"/>
        <pt x="356" y="-12" on="0"/>
        <pt x="287" y="-12" on="1"/>
        <pt x="219" y="-12" on="0"/>
        <pt x="123" y="36" on="0"/>
        <pt x="60" y="112" on="0"/>
        <pt x="31" y="207" on="0"/>
      </contour>
      <contour>
        <pt x="292" y="80" on="1"/>
        <pt x="368" y="80" on="0"/>
        <pt x="442" y="193" on="0"/>
        <pt x="451" y="296" on="1"/>
        <pt x="158" y="296" on="1"/>
        <pt x="155" y="281" on="0"/>
        <pt x="155" y="251" on="1"/>
        <pt x="155" y="228" on="0"/>
        <pt x="165" y="168" on="0"/>
        <pt x="194" y="116" on="0"/>
        <pt x="248" y="80" on="0"/>
      </contour>
    </TTGlyph>
    <TTGlyph name="Scircumflex" xMin="42" yMin="-12" xMax="521" yMax="930">
      <contour>
        <pt x="271" y="102" on="1"/>
        <pt x="334" y="102" on="0"/>
        <pt x="395" y="146" on="0"/>
        <pt x="395" y="188" on="1"/>
        <pt x="395" y="214" on="0"/>
        <pt x="373" y="250" on="0"/>
        <pt x="336" y="276" on="0"/>
        <pt x="287" y="295" on="0"/>
        <pt x="261" y="304" on="1"/>
        <pt x="213" y="320" on="0"/>
        <pt x="136" y="352" on="0"/>
        <pt x="81" y="395" on="0"/>
        <pt x="51" y="458" on="0"/>
        <pt x="51" y="505" on="1"/>
        <pt x="51" y="570" on="0"/>
        <pt x="104" y="651" on="0"/>
        <pt x="184" y="696" on="0"/>
        <pt x="279" y="711" on="0"/>
        <pt x="320" y="711" on="1"/>
        <pt x="372" y="711" on="0"/>
        <pt x="465" y="695" on="0"/>
        <pt x="500" y="687" on="1"/>
        <pt x="500" y="571" on="1"/>
        <pt x="452" y="585" on="0"/>
        <pt x="350" y="603" on="0"/>
        <pt x="308" y="603" on="1"/>
        <pt x="236" y="603" on="0"/>
        <pt x="170" y="552" on="0"/>
        <pt x="170" y="516" on="1"/>
        <pt x="170" y="489" on="0"/>
        <pt x="201" y="453" on="0"/>
        <pt x="246" y="427" on="0"/>
        <pt x="297" y="412" on="0"/>
        <pt x="318" y="406" on="1"/>
        <pt x="354" y="396" on="0"/>
        <pt x="426" y="367" on="0"/>
        <pt x="485" y="319" on="0"/>
        <pt x="521" y="248" on="0"/>
        <pt x="521" y="196" on="1"/>
        <pt x="521" y="144" on="0"/>
        <pt x="484" y="66" on="0"/>
        <pt x="417" y="14" on="0"/>
        <pt x="325" y="-12" on="0"/>
        <pt x="270" y="-12" on="1"/>
        <pt x="222" y="-12" on="0"/>
        <pt x="103" y="8" on="0"/>
        <pt x="46" y="29" on="1"/>
        <pt x="42" y="152" on="1"/>
        <pt x="60" y="143" on="0"/>
        <pt x="114" y="126" on="0"/>
        <pt x="177" y="111" on="0"/>
        <pt x="242" y="102" on="0"/>
      </contour>
      <contour>
        <pt x="219" y="930" on="1"/>
        <pt x="230" y="928" on="0"/>
        <pt x="274" y="923" on="0"/>
        <pt x="292" y="923" on="1"/>
        <pt x="310" y="923" on="0"/>
        <pt x="354" y="928" on="0"/>
        <pt x="365" y="930" on="1"/>
        <pt x="479" y="803" on="1"/>
        <pt x="415" y="781" on="1"/>
        <pt x="292" y="854" on="1"/>
        <pt x="169" y="781" on="1"/>
        <pt x="105" y="803" on="1"/>
      </contour>
    </TTGlyph>
    <TTGlyph name="Sdotbelow" xMin="42" yMin="-197" xMax="521" yMax="711">
      <contour>
        <pt x="271" y="102" on="1"/>
        <pt x="334" y="102" on="0"/>
        <pt x="395" y="146" on="0"/>
        <pt x="395" y="188" on="1"/>
        <pt x="395" y="214" on="0"/>
        <pt x="373" y="250" on="0"/>
        <pt x="336" y="276" on="0"/>
        <pt x="287" y="295" on="0"/>
        <pt x="261" y="304" on="1"/>
        <pt x="213" y="320" on="0"/>
        <pt x="136" y="352" on="0"/>
        <pt x="81" y="395" on="0"/>
        <pt x="51" y="458" on="0"/>
        <pt x="51" y="505" on="1"/>
        <pt x="51" y="570" on="0"/>
        <pt x="104" y="651" on="0"/>
        <pt x="184" y="696" on="0"/>
        <pt x="279" y="711" on="0"/>
        <pt x="320" y="711" on="1"/>
        <pt x="372" y="711" on="0"/>
        <pt x="465" y="695" on="0"/>
        <pt x="500" y="687" on="1"/>
        <pt x="500" y="571" on="1"/>
        <pt x="452" y="585" on="0"/>
        <pt x="350" y="603" on="0"/>
        <pt x="308" y="603" on="1"/>
        <pt x="236" y="603" on="0"/>
        <pt x="170" y="552" on="0"/>
        <pt x="170" y="516" on="1"/>
        <pt x="170" y="489" on="0"/>
        <pt x="201" y="453" on="0"/>
        <pt x="246" y="427" on="0"/>
        <pt x="297" y="412" on="0"/>
        <pt x="318" y="406" on="1"/>
        <pt x="354" y="396" on="0"/>
        <pt x="426" y="367" on="0"/>
        <pt x="485" y="319" on="0"/>
        <pt x="521" y="248" on="0"/>
        <pt x="521" y="196" on="1"/>
        <pt x="521" y="144" on="0"/>
        <pt x="484" y="66" on="0"/>
        <pt x="417" y="14" on="0"/>
        <pt x="325" y="-12" on="0"/>
        <pt x="270" y="-12" on="1"/>
        <pt x="222" y="-12" on="0"/>
        <pt x="103" y="8" on="0"/>
        <pt x="46" y="29" on="1"/>
        <pt x="42" y="152" on="1"/>
        <pt x="60" y="143" on="0"/>
        <pt x="114" y="126" on="0"/>
        <pt x="177" y="111" on="0"/>
        <pt x="242" y="102" on="0"/>
      </contour>
      <contour>
        <pt x="227" y="-143" on="1"/>
        <pt x="227" y="-117" on="0"/>
        <pt x="262" y="-80" on="0"/>
        <pt x="293" y="-80" on="1"/>
        <pt x="319" y="-80" on="0"/>
        <pt x="358" y="-111" on="0"/>
        <pt x="358" y="-137" on="1"/>
        <pt x="358" y="-162" on="0"/>
        <pt x="324" y="-197" on="0"/>
        <pt x="293" y="-197" on="1"/>
        <pt x="267" y="-197" on="0"/>
        <pt x="227" y="-169" on="0"/>
      </contour>
    </TTGlyph>
    <TTGlyph name="T" xMin="10" yMin="0" xMax="540" yMax="700">
      <contour>
        <pt x="540" y="602" on="1"/>
        <pt x="342" y="602" on="1"/>
        <pt x="340" y="555" on="0"/>
        <pt x="340" y="438" on="0"/>
        <pt x="340" y="356" on="1"/>
        <pt x="340" y="296" on="0"/>
        <pt x="340" y="199" on="0"/>
        <pt x="341" y="115" on="0"/>
        <pt x="342" y="39" on="0"/>
        <pt x="343" y="0" on="1"/>
        <pt x="202" y="0" on="1"/>
        <pt x="203" y="48" on="0"/>
        <pt x="206" y="121" on="0"/>
        <pt x="208" y="200" on="0"/>
        <pt x="210" y="302" on="0"/>
        <pt x="210" y="379" on="1"/>
        <pt x="210" y="435" on="0"/>
        <pt x="210" y="545" on="0"/>
        <pt x="208" y="602" on="1"/>
        <pt x="10" y="602" on="1"/>
        <pt x="10" y="700" on="1"/>
        <pt x="540" y="700" on="1"/>
      </contour>
    </TTGlyph>
    <TTGlyph name="Tbar" xMin="24" yMin="0" xMax="554" yMax="700">
      <contour>
        <pt x="554" y="602" on="1"/>
        <pt x="356" y="602" on="1"/>
        <pt x="355" y="574" on="0"/>
        <pt x="354" y="510" on="0"/>
        <pt x="354" y="473" on="1"/>
        <pt x="398" y="473" on="0"/>
        <pt x="479" y="475" on="0"/>
        <pt x="531" y="477" on="1"/>
        <pt x="527" y="395" on="1"/>
        <pt x="476" y="396" on="0"/>
        <pt x="397" y="398" on="0"/>
        <pt x="354" y="399" on="1"/>
        <pt x="354" y="323" on="0"/>
        <pt x="354" y="208" on="0"/>
        <pt x="355" y="116" on="0"/>
        <pt x="356" y="39" on="0"/>
        <pt x="357" y="0" on="1"/>
        <pt x="216" y="0" on="1"/>
        <pt x="217" y="48" on="0"/>
        <pt x="220" y="121" on="0"/>
        <pt x="222" y="205" on="0"/>
        <pt x="224" y="315" on="0"/>
        <pt x="224" y="399" on="1"/>
        <pt x="179" y="399" on="0"/>
        <pt x="98" y="397" on="0"/>
        <pt x="47" y="395" on="1"/>
        <pt x="50" y="477" on="1"/>
        <pt x="101" y="475" on="0"/>
        <pt x="180" y="473" on="0"/>
        <pt x="224" y="473" on="1"/>
        <pt x="224" y="505" on="0"/>
        <pt x="223" y="569" on="0"/>
        <pt x="222" y="602" on="1"/>
        <pt x="24" y="602" on="1"/>
        <pt x="24" y="700" on="1"/>
        <pt x="554" y="700" on="1"/>
      </contour>
    </TTGlyph>
</ttFont>
